<ttFont>
    <TTGlyph name="A" xMin="61" yMin="0" xMax="681" yMax="732">
      <contour>
        <pt x="380" y="563" on="1"/>
        <pt x="378" y="571" on="0"/>
        <pt x="373" y="586" on="0"/>
        <pt x="371" y="594" on="1"/>
        <pt x="351" y="531" on="0"/>
        <pt x="297" y="409" on="0"/>
        <pt x="271" y="348" on="1"/>
        <pt x="470" y="348" on="1"/>
        <pt x="447" y="402" on="0"/>
        <pt x="403" y="509" on="0"/>
      </contour>
      <contour>
        <pt x="681" y="0" on="1"/>
        <pt x="618" y="0" on="1"/>
        <pt x="587" y="72" on="0"/>
        <pt x="527" y="217" on="0"/>
        <pt x="496" y="289" on="1"/>
        <pt x="245" y="289" on="1"/>
        <pt x="215" y="217" on="0"/>
        <pt x="154" y="72" on="0"/>
        <pt x="123" y="0" on="1"/>
        <pt x="61" y="0" on="1"/>
        <pt x="139" y="184" on="0"/>
        <pt x="293" y="548" on="0"/>
        <pt x="371" y="732" on="1"/>
        <pt x="449" y="548" on="0"/>
        <pt x="603" y="184" on="0"/>
      </contour>
    </TTGlyph>
    <TTGlyph name="AE" xMin="60" yMin="0" xMax="712" yMax="700">
      <contour>
        <pt x="366" y="339" on="1"/>
        <pt x="366" y="583" on="1"/>
        <pt x="346" y="521" on="0"/>
        <pt x="292" y="400" on="0"/>
        <pt x="266" y="339" on="1"/>
      </contour>
      <contour>
        <pt x="60" y="0" on="1"/>
        <pt x="135" y="176" on="0"/>
        <pt x="281" y="524" on="0"/>
        <pt x="356" y="700" on="1"/>
        <pt x="698" y="700" on="1"/>
        <pt x="698" y="640" on="1"/>
        <pt x="428" y="640" on="1"/>
        <pt x="428" y="382" on="1"/>
        <pt x="659" y="382" on="1"/>
        <pt x="659" y="323" on="1"/>
        <pt x="428" y="323" on="1"/>
        <pt x="428" y="59" on="1"/>
        <pt x="712" y="59" on="1"/>
        <pt x="712" y="0" on="1"/>
        <pt x="366" y="0" on="1"/>
        <pt x="366" y="280" on="1"/>
        <pt x="241" y="280" on="1"/>
        <pt x="212" y="209" on="0"/>
        <pt x="152" y="70" on="0"/>
        <pt x="123" y="0" on="1"/>
      </contour>
    </TTGlyph>
    <TTGlyph name="Aacute" xMin="61" yMin="0" xMax="681" yMax="883">
      <component glyphName="A" x="0" y="0" flags="0x204"/>
      <component glyphName="acute" x="246" y="271" flags="0x4"/>
    </TTGlyph>
    <TTGlyph name="Acircumflex" xMin="61" yMin="0" xMax="681" yMax="931">
      <component glyphName="A" x="0" y="0" flags="0x204"/>
      <component glyphName="asciicircum" x="139" y="271" flags="0x4"/>
    </TTGlyph>
    <TTGlyph name="Adieresis" xMin="61" yMin="0" xMax="681" yMax="847">
      <component glyphName="A" x="0" y="0" flags="0x204"/>
      <component glyphName="dieresis" x="188" y="290" flags="0x4"/>
    </TTGlyph>
    <TTGlyph name="Agrave" xMin="61" yMin="0" xMax="681" yMax="883">
      <component glyphName="A" x="0" y="0" flags="0x204"/>
      <component glyphName="grave" x="275" y="271" flags="0x4"/>
    </TTGlyph>
    <TTGlyph name="Aring" xMin="61" yMin="0" xMax="681" yMax="917">
      <contour>
        <pt x="334" y="836" on="1"/>
        <pt x="334" y="821" on="0"/>
        <pt x="356" y="799" on="0"/>
        <pt x="371" y="799" on="1"/>
        <pt x="387" y="799" on="0"/>
        <pt x="409" y="821" on="0"/>
        <pt x="409" y="836" on="1"/>
        <pt x="409" y="852" on="0"/>
        <pt x="387" y="874" on="0"/>
        <pt x="371" y="874" on="1"/>
        <pt x="356" y="874" on="0"/>
        <pt x="334" y="852" on="0"/>
      </contour>
      <contour>
        <pt x="291" y="837" on="1"/>
        <pt x="291" y="853" on="0"/>
        <pt x="304" y="882" on="0"/>
        <pt x="325" y="904" on="0"/>
        <pt x="354" y="917" on="0"/>
        <pt x="371" y="917" on="1"/>
        <pt x="387" y="917" on="0"/>
        <pt x="417" y="904" on="0"/>
        <pt x="438" y="882" on="0"/>
        <pt x="451" y="853" on="0"/>
        <pt x="451" y="837" on="1"/>
        <pt x="451" y="804" on="0"/>
        <pt x="404" y="757" on="0"/>
        <pt x="371" y="757" on="1"/>
        <pt x="338" y="757" on="0"/>
        <pt x="291" y="804" on="0"/>
      </contour>
      <contour>
        <pt x="380" y="563" on="1"/>
        <pt x="378" y="571" on="0"/>
        <pt x="373" y="586" on="0"/>
        <pt x="371" y="594" on="1"/>
        <pt x="351" y="531" on="0"/>
        <pt x="297" y="409" on="0"/>
        <pt x="271" y="348" on="1"/>
        <pt x="470" y="348" on="1"/>
        <pt x="447" y="402" on="0"/>
        <pt x="403" y="509" on="0"/>
      </contour>
      <contour>
        <pt x="681" y="0" on="1"/>
        <pt x="618" y="0" on="1"/>
        <pt x="587" y="72" on="0"/>
        <pt x="527" y="217" on="0"/>
        <pt x="496" y="289" on="1"/>
        <pt x="245" y="289" on="1"/>
        <pt x="215" y="217" on="0"/>
        <pt x="154" y="72" on="0"/>
        <pt x="123" y="0" on="1"/>
        <pt x="61" y="0" on="1"/>
        <pt x="139" y="184" on="0"/>
        <pt x="293" y="548" on="0"/>
        <pt x="371" y="732" on="1"/>
        <pt x="449" y="548" on="0"/>
        <pt x="603" y="184" on="0"/>
      </contour>
    </TTGlyph>
    <TTGlyph name="Atilde" xMin="61" yMin="0" xMax="681" yMax="848">
      <component glyphName="A" x="0" y="0" flags="0x204"/>
      <component glyphName="asciitilde" x="91" y="299" flags="0x4"/>
    </TTGlyph>
    <TTGlyph name="B" xMin="66" yMin="0" xMax="477" yMax="700">
      <contour>
        <pt x="128" y="640" on="1"/>
        <pt x="128" y="382" on="1"/>
        <pt x="248" y="382" on="1"/>
        <pt x="313" y="382" on="0"/>
        <pt x="389" y="457" on="0"/>
        <pt x="389" y="517" on="1"/>
        <pt x="389" y="583" on="0"/>
        <pt x="309" y="640" on="0"/>
        <pt x="245" y="640" on="1"/>
      </contour>
      <contour>
        <pt x="128" y="322" on="1"/>
        <pt x="128" y="59" on="1"/>
        <pt x="250" y="59" on="1"/>
        <pt x="284" y="59" on="0"/>
        <pt x="344" y="75" on="0"/>
        <pt x="389" y="107" on="0"/>
        <pt x="415" y="156" on="0"/>
        <pt x="415" y="188" on="1"/>
        <pt x="415" y="223" on="0"/>
        <pt x="385" y="274" on="0"/>
        <pt x="334" y="307" on="0"/>
        <pt x="269" y="322" on="0"/>
        <pt x="235" y="322" on="1"/>
      </contour>
      <contour>
        <pt x="66" y="0" on="1"/>
        <pt x="66" y="700" on="1"/>
        <pt x="237" y="700" on="1"/>
        <pt x="285" y="700" on="0"/>
        <pt x="364" y="680" on="0"/>
        <pt x="421" y="638" on="0"/>
        <pt x="452" y="571" on="0"/>
        <pt x="452" y="525" on="1"/>
        <pt x="452" y="463" on="0"/>
        <pt x="392" y="369" on="0"/>
        <pt x="330" y="352" on="1"/>
        <pt x="359" y="346" on="0"/>
        <pt x="412" y="318" on="0"/>
        <pt x="453" y="274" on="0"/>
        <pt x="477" y="216" on="0"/>
        <pt x="477" y="180" on="1"/>
        <pt x="477" y="135" on="0"/>
        <pt x="440" y="68" on="0"/>
        <pt x="378" y="23" on="0"/>
        <pt x="298" y="0" on="0"/>
        <pt x="255" y="0" on="1"/>
      </contour>
    </TTGlyph>
    <TTGlyph name="C" xMin="62" yMin="-8" xMax="602" yMax="708">
      <contour>
        <pt x="567" y="92" on="1"/>
        <pt x="601" y="42" on="1"/>
        <pt x="561" y="19" on="0"/>
        <pt x="470" y="-8" on="0"/>
        <pt x="419" y="-8" on="1"/>
        <pt x="345" y="-8" on="0"/>
        <pt x="215" y="48" on="0"/>
        <pt x="118" y="145" on="0"/>
        <pt x="62" y="275" on="0"/>
        <pt x="62" y="349" on="1"/>
        <pt x="62" y="423" on="0"/>
        <pt x="118" y="554" on="0"/>
        <pt x="215" y="651" on="0"/>
        <pt x="345" y="708" on="0"/>
        <pt x="419" y="708" on="1"/>
        <pt x="470" y="708" on="0"/>
        <pt x="561" y="682" on="0"/>
        <pt x="602" y="658" on="1"/>
        <pt x="594" y="645" on="0"/>
        <pt x="576" y="620" on="0"/>
        <pt x="567" y="607" on="1"/>
        <pt x="500" y="648" on="0"/>
        <pt x="419" y="648" on="1"/>
        <pt x="358" y="648" on="0"/>
        <pt x="251" y="601" on="0"/>
        <pt x="171" y="519" on="0"/>
        <pt x="124" y="410" on="0"/>
        <pt x="124" y="349" on="1"/>
        <pt x="124" y="287" on="0"/>
        <pt x="170" y="179" on="0"/>
        <pt x="250" y="98" on="0"/>
        <pt x="357" y="51" on="0"/>
        <pt x="418" y="51" on="1"/>
        <pt x="459" y="51" on="0"/>
        <pt x="533" y="72" on="0"/>
      </contour>
    </TTGlyph>
    <TTGlyph name="Ccedilla" xMin="62" yMin="-242" xMax="602" yMax="708">
      <contour>
        <pt x="567" y="92" on="1"/>
        <pt x="601" y="42" on="1"/>
        <pt x="563" y="19" on="0"/>
        <pt x="477" y="-6" on="0"/>
        <pt x="429" y="-8" on="1"/>
        <pt x="429" y="-22" on="0"/>
        <pt x="437" y="-39" on="0"/>
        <pt x="450" y="-49" on="0"/>
        <pt x="464" y="-57" on="0"/>
        <pt x="470" y="-61" on="1"/>
        <pt x="492" y="-77" on="0"/>
        <pt x="510" y="-116" on="0"/>
        <pt x="510" y="-138" on="1"/>
        <pt x="510" y="-183" on="0"/>
        <pt x="457" y="-242" on="0"/>
        <pt x="411" y="-242" on="1"/>
        <pt x="379" y="-242" on="0"/>
        <pt x="326" y="-207" on="0"/>
        <pt x="314" y="-172" on="1"/>
        <pt x="323" y="-167" on="0"/>
        <pt x="342" y="-159" on="0"/>
        <pt x="351" y="-154" on="1"/>
        <pt x="356" y="-171" on="0"/>
        <pt x="385" y="-194" on="0"/>
        <pt x="406" y="-194" on="1"/>
        <pt x="432" y="-194" on="0"/>
        <pt x="462" y="-160" on="0"/>
        <pt x="462" y="-134" on="1"/>
        <pt x="462" y="-112" on="0"/>
        <pt x="439" y="-86" on="0"/>
        <pt x="412" y="-67" on="0"/>
        <pt x="389" y="-47" on="0"/>
        <pt x="389" y="-29" on="1"/>
        <pt x="389" y="-6" on="1"/>
        <pt x="320" y="-1" on="0"/>
        <pt x="201" y="59" on="0"/>
        <pt x="113" y="154" on="0"/>
        <pt x="62" y="279" on="0"/>
        <pt x="62" y="349" on="1"/>
        <pt x="62" y="423" on="0"/>
        <pt x="118" y="554" on="0"/>
        <pt x="215" y="651" on="0"/>
        <pt x="345" y="708" on="0"/>
        <pt x="419" y="708" on="1"/>
        <pt x="470" y="708" on="0"/>
        <pt x="561" y="682" on="0"/>
        <pt x="602" y="658" on="1"/>
        <pt x="594" y="645" on="0"/>
        <pt x="576" y="620" on="0"/>
        <pt x="567" y="607" on="1"/>
        <pt x="500" y="648" on="0"/>
        <pt x="419" y="648" on="1"/>
        <pt x="358" y="648" on="0"/>
        <pt x="251" y="601" on="0"/>
        <pt x="171" y="519" on="0"/>
        <pt x="124" y="410" on="0"/>
        <pt x="124" y="349" on="1"/>
        <pt x="124" y="287" on="0"/>
        <pt x="170" y="179" on="0"/>
        <pt x="250" y="98" on="0"/>
        <pt x="357" y="51" on="0"/>
        <pt x="418" y="51" on="1"/>
        <pt x="459" y="51" on="0"/>
        <pt x="533" y="72" on="0"/>
      </contour>
    </TTGlyph>
    <TTGlyph name="D" xMin="68" yMin="0" xMax="575" yMax="700">
      <contour>
        <pt x="68" y="700" on="1"/>
        <pt x="223" y="700" on="1"/>
        <pt x="295" y="700" on="0"/>
        <pt x="423" y="651" on="0"/>
        <pt x="519" y="559" on="0"/>
        <pt x="575" y="430" on="0"/>
        <pt x="575" y="349" on="1"/>
        <pt x="575" y="290" on="0"/>
        <pt x="534" y="166" on="0"/>
        <pt x="442" y="65" on="0"/>
        <pt x="295" y="0" on="0"/>
        <pt x="189" y="0" on="1"/>
        <pt x="68" y="0" on="1"/>
      </contour>
      <contour>
        <pt x="130" y="640" on="1"/>
        <pt x="130" y="60" on="1"/>
        <pt x="208" y="60" on="1"/>
        <pt x="279" y="60" on="0"/>
        <pt x="392" y="106" on="0"/>
        <pt x="471" y="184" on="0"/>
        <pt x="513" y="290" on="0"/>
        <pt x="513" y="350" on="1"/>
        <pt x="513" y="416" on="0"/>
        <pt x="467" y="524" on="0"/>
        <pt x="387" y="599" on="0"/>
        <pt x="279" y="640" on="0"/>
        <pt x="218" y="640" on="1"/>
      </contour>
    </TTGlyph>
    <TTGlyph name="E" xMin="77" yMin="0" xMax="514" yMax="700">
      <contour>
        <pt x="77" y="0" on="1"/>
        <pt x="77" y="700" on="1"/>
        <pt x="500" y="700" on="1"/>
        <pt x="500" y="640" on="1"/>
        <pt x="139" y="640" on="1"/>
        <pt x="139" y="382" on="1"/>
        <pt x="461" y="382" on="1"/>
        <pt x="461" y="323" on="1"/>
        <pt x="139" y="323" on="1"/>
        <pt x="139" y="59" on="1"/>
        <pt x="514" y="59" on="1"/>
        <pt x="514" y="0" on="1"/>
      </contour>
    </TTGlyph>
    <TTGlyph name="Eacute" xMin="77" yMin="0" xMax="514" yMax="883">
      <component glyphName="E" x="0" y="0" flags="0x204"/>
      <component glyphName="acute" x="167" y="271" flags="0x4"/>
    </TTGlyph>
    <TTGlyph name="Ecircumflex" xMin="77" yMin="0" xMax="514" yMax="931">
      <component glyphName="E" x="0" y="0" flags="0x204"/>
      <component glyphName="asciicircum" x="68" y="271" flags="0x4"/>
    </TTGlyph>
    <TTGlyph name="Edieresis" xMin="77" yMin="0" xMax="514" yMax="847">
      <component glyphName="E" x="0" y="0" flags="0x204"/>
      <component glyphName="dieresis" x="108" y="290" flags="0x4"/>
    </TTGlyph>
    <TTGlyph name="Egrave" xMin="77" yMin="0" xMax="514" yMax="883">
      <component glyphName="E" x="0" y="0" flags="0x204"/>
      <component glyphName="grave" x="201" y="271" flags="0x4"/>
    </TTGlyph>
    <TTGlyph name="Eth" xMin="22" yMin="0" xMax="595" yMax="700">
      <contour>
        <pt x="130" y="320" on="1"/>
        <pt x="130" y="59" on="1"/>
        <pt x="213" y="59" on="1"/>
        <pt x="281" y="59" on="0"/>
        <pt x="398" y="100" on="0"/>
        <pt x="484" y="176" on="0"/>
        <pt x="533" y="284" on="0"/>
        <pt x="533" y="350" on="1"/>
        <pt x="533" y="417" on="0"/>
        <pt x="484" y="524" on="0"/>
        <pt x="399" y="600" on="0"/>
        <pt x="282" y="641" on="0"/>
        <pt x="213" y="641" on="1"/>
        <pt x="130" y="641" on="1"/>
        <pt x="130" y="381" on="1"/>
        <pt x="324" y="381" on="1"/>
        <pt x="324" y="320" on="1"/>
      </contour>
      <contour>
        <pt x="68" y="381" on="1"/>
        <pt x="68" y="700" on="1"/>
        <pt x="215" y="700" on="1"/>
        <pt x="292" y="700" on="0"/>
        <pt x="430" y="651" on="0"/>
        <pt x="534" y="560" on="0"/>
        <pt x="595" y="430" on="0"/>
        <pt x="595" y="350" on="1"/>
        <pt x="595" y="291" on="0"/>
        <pt x="550" y="167" on="0"/>
        <pt x="451" y="65" on="0"/>
        <pt x="292" y="0" on="0"/>
        <pt x="178" y="0" on="1"/>
        <pt x="68" y="0" on="1"/>
        <pt x="68" y="320" on="1"/>
        <pt x="22" y="320" on="1"/>
        <pt x="22" y="381" on="1"/>
      </contour>
    </TTGlyph>
    <TTGlyph name="F" xMin="77" yMin="0" xMax="500" yMax="700">
      <contour>
        <pt x="77" y="0" on="1"/>
        <pt x="77" y="700" on="1"/>
        <pt x="500" y="700" on="1"/>
        <pt x="500" y="640" on="1"/>
        <pt x="139" y="640" on="1"/>
        <pt x="139" y="382" on="1"/>
        <pt x="461" y="382" on="1"/>
        <pt x="461" y="323" on="1"/>
        <pt x="139" y="323" on="1"/>
        <pt x="139" y="0" on="1"/>
      </contour>
    </TTGlyph>
    <TTGlyph name="G" xMin="62" yMin="-8" xMax="602" yMax="708">
      <contour>
        <pt x="415" y="240" on="1"/>
        <pt x="415" y="300" on="1"/>
        <pt x="550" y="300" on="1"/>
        <pt x="579" y="300" on="0"/>
        <pt x="601" y="275" on="0"/>
        <pt x="601" y="244" on="1"/>
        <pt x="601" y="42" on="1"/>
        <pt x="561" y="19" on="0"/>
        <pt x="470" y="-8" on="0"/>
        <pt x="419" y="-8" on="1"/>
        <pt x="345" y="-8" on="0"/>
        <pt x="215" y="48" on="0"/>
        <pt x="118" y="145" on="0"/>
        <pt x="62" y="275" on="0"/>
        <pt x="62" y="349" on="1"/>
        <pt x="62" y="423" on="0"/>
        <pt x="118" y="554" on="0"/>
        <pt x="215" y="651" on="0"/>
        <pt x="345" y="708" on="0"/>
        <pt x="419" y="708" on="1"/>
        <pt x="470" y="708" on="0"/>
        <pt x="561" y="682" on="0"/>
        <pt x="602" y="658" on="1"/>
        <pt x="594" y="645" on="0"/>
        <pt x="576" y="620" on="0"/>
        <pt x="567" y="607" on="1"/>
        <pt x="500" y="648" on="0"/>
        <pt x="419" y="648" on="1"/>
        <pt x="358" y="648" on="0"/>
        <pt x="251" y="601" on="0"/>
        <pt x="171" y="519" on="0"/>
        <pt x="124" y="410" on="0"/>
        <pt x="124" y="349" on="1"/>
        <pt x="124" y="287" on="0"/>
        <pt x="170" y="179" on="0"/>
        <pt x="250" y="98" on="0"/>
        <pt x="357" y="51" on="0"/>
        <pt x="418" y="51" on="1"/>
        <pt x="483" y="51" on="0"/>
        <pt x="539" y="78" on="1"/>
        <pt x="539" y="191" on="1"/>
        <pt x="539" y="213" on="1"/>
        <pt x="539" y="227" on="0"/>
        <pt x="530" y="240" on="0"/>
        <pt x="514" y="240" on="1"/>
      </contour>
    </TTGlyph>
    <TTGlyph name="H" xMin="86" yMin="0" xMax="615" yMax="700">
      <contour>
        <pt x="86" y="0" on="1"/>
        <pt x="86" y="700" on="1"/>
        <pt x="148" y="700" on="1"/>
        <pt x="148" y="382" on="1"/>
        <pt x="552" y="382" on="1"/>
        <pt x="552" y="700" on="1"/>
        <pt x="615" y="700" on="1"/>
        <pt x="615" y="524" on="0"/>
        <pt x="614" y="176" on="0"/>
        <pt x="614" y="0" on="1"/>
        <pt x="552" y="0" on="1"/>
        <pt x="552" y="323" on="1"/>
        <pt x="148" y="323" on="1"/>
        <pt x="148" y="0" on="1"/>
      </contour>
    </TTGlyph>
    <TTGlyph name="I" xMin="101" yMin="0" xMax="164" yMax="700">
      <contour>
        <pt x="101" y="700" on="1"/>
        <pt x="164" y="700" on="1"/>
        <pt x="164" y="0" on="1"/>
        <pt x="101" y="0" on="1"/>
      </contour>
    </TTGlyph>
    <TTGlyph name="Iacute" xMin="101" yMin="0" xMax="269" yMax="883">
      <component glyphName="I" x="0" y="0" flags="0x4"/>
      <component glyphName="acute" x="15" y="271" flags="0x4"/>
    </TTGlyph>
    <TTGlyph name="Icircumflex" xMin="13" yMin="0" xMax="253" yMax="931">
      <component glyphName="I" x="0" y="0" flags="0x4"/>
      <component glyphName="asciicircum" x="-99" y="271" flags="0x4"/>
    </TTGlyph>
    <TTGlyph name="Idieresis" xMin="6" yMin="0" xMax="256" yMax="847">
      <component glyphName="I" x="0" y="0" flags="0x4"/>
      <component glyphName="dieresis" x="-53" y="290" flags="0x4"/>
    </TTGlyph>
    <TTGlyph name="Igrave" xMin="-4" yMin="0" xMax="164" yMax="883">
      <component glyphName="I" x="0" y="0" flags="0x4"/>
      <component glyphName="grave" x="36" y="271" flags="0x4"/>
    </TTGlyph>
    <TTGlyph name="J" xMin="17" yMin="-143" xMax="241" yMax="700">
      <contour>
        <pt x="17" y="-143" on="1"/>
        <pt x="17" y="-84" on="1"/>
        <pt x="52" y="-82" on="0"/>
        <pt x="112" y="-57" on="0"/>
        <pt x="155" y="-12" on="0"/>
        <pt x="179" y="52" on="0"/>
        <pt x="179" y="93" on="1"/>
        <pt x="179" y="700" on="1"/>
        <pt x="241" y="700" on="1"/>
        <pt x="241" y="90" on="1"/>
        <pt x="241" y="34" on="0"/>
        <pt x="206" y="-52" on="0"/>
        <pt x="146" y="-110" on="0"/>
        <pt x="64" y="-142" on="0"/>
      </contour>
    </TTGlyph>
    <TTGlyph name="K" xMin="59" yMin="0" xMax="569" yMax="700">
      <contour>
        <pt x="569" y="0" on="1"/>
        <pt x="493" y="0" on="1"/>
        <pt x="418" y="95" on="0"/>
        <pt x="270" y="283" on="0"/>
        <pt x="195" y="378" on="1"/>
        <pt x="176" y="360" on="0"/>
        <pt x="140" y="325" on="0"/>
        <pt x="121" y="308" on="1"/>
        <pt x="121" y="0" on="1"/>
        <pt x="59" y="0" on="1"/>
        <pt x="59" y="700" on="1"/>
        <pt x="121" y="700" on="1"/>
        <pt x="121" y="406" on="1"/>
        <pt x="120" y="398" on="0"/>
        <pt x="119" y="383" on="0"/>
        <pt x="119" y="375" on="1"/>
        <pt x="124" y="381" on="0"/>
        <pt x="132" y="391" on="0"/>
        <pt x="137" y="397" on="1"/>
        <pt x="455" y="700" on="1"/>
        <pt x="533" y="700" on="1"/>
        <pt x="458" y="629" on="0"/>
        <pt x="312" y="489" on="0"/>
        <pt x="237" y="418" on="1"/>
        <pt x="321" y="313" on="0"/>
        <pt x="485" y="106" on="0"/>
      </contour>
    </TTGlyph>
    <TTGlyph name="L" xMin="77" yMin="0" xMax="514" yMax="700">
      <contour>
        <pt x="77" y="0" on="1"/>
        <pt x="77" y="700" on="1"/>
        <pt x="139" y="700" on="1"/>
        <pt x="139" y="59" on="1"/>
        <pt x="514" y="59" on="1"/>
        <pt x="514" y="0" on="1"/>
      </contour>
    </TTGlyph>
    <TTGlyph name="M" xMin="100" yMin="0" xMax="832" yMax="732">
      <contour>
        <pt x="100" y="732" on="1"/>
        <pt x="192" y="613" on="0"/>
        <pt x="374" y="376" on="0"/>
        <pt x="466" y="257" on="1"/>
        <pt x="558" y="376" on="0"/>
        <pt x="740" y="613" on="0"/>
        <pt x="832" y="732" on="1"/>
        <pt x="832" y="0" on="1"/>
        <pt x="770" y="0" on="1"/>
        <pt x="770" y="458" on="1"/>
        <pt x="770" y="522" on="1"/>
        <pt x="770" y="532" on="0"/>
        <pt x="771" y="549" on="0"/>
        <pt x="772" y="558" on="1"/>
        <pt x="700" y="455" on="0"/>
        <pt x="543" y="257" on="0"/>
        <pt x="466" y="156" on="1"/>
        <pt x="398" y="245" on="0"/>
        <pt x="264" y="420" on="0"/>
        <pt x="196" y="509" on="1"/>
        <pt x="175" y="536" on="1"/>
        <pt x="171" y="541" on="0"/>
        <pt x="164" y="553" on="0"/>
        <pt x="160" y="558" on="1"/>
        <pt x="161" y="549" on="0"/>
        <pt x="162" y="532" on="0"/>
        <pt x="162" y="522" on="1"/>
        <pt x="162" y="0" on="1"/>
        <pt x="100" y="0" on="1"/>
      </contour>
    </TTGlyph>
    <TTGlyph name="N" xMin="100" yMin="-32" xMax="711" yMax="732">
      <contour>
        <pt x="711" y="700" on="1"/>
        <pt x="711" y="-32" on="1"/>
        <pt x="577" y="117" on="0"/>
        <pt x="312" y="410" on="0"/>
        <pt x="178" y="559" on="1"/>
        <pt x="173" y="566" on="0"/>
        <pt x="164" y="578" on="0"/>
        <pt x="159" y="585" on="1"/>
        <pt x="160" y="577" on="0"/>
        <pt x="161" y="561" on="0"/>
        <pt x="162" y="553" on="1"/>
        <pt x="162" y="0" on="1"/>
        <pt x="100" y="0" on="1"/>
        <pt x="100" y="732" on="1"/>
        <pt x="234" y="581" on="0"/>
        <pt x="499" y="283" on="0"/>
        <pt x="633" y="132" on="1"/>
        <pt x="638" y="125" on="0"/>
        <pt x="647" y="113" on="0"/>
        <pt x="652" y="106" on="1"/>
        <pt x="651" y="114" on="0"/>
        <pt x="650" y="130" on="0"/>
        <pt x="649" y="138" on="1"/>
        <pt x="649" y="700" on="1"/>
      </contour>
    </TTGlyph>
    <TTGlyph name="Ntilde" xMin="100" yMin="-32" xMax="711" yMax="841">
      <component glyphName="N" x="0" y="0" flags="0x204"/>
      <component glyphName="asciitilde" x="133" y="292" flags="0x4"/>
    </TTGlyph>
    <TTGlyph name="O" xMin="62" yMin="-8" xMax="778" yMax="708">
      <contour>
        <pt x="62" y="349" on="1"/>
        <pt x="62" y="423" on="0"/>
        <pt x="118" y="554" on="0"/>
        <pt x="215" y="651" on="0"/>
        <pt x="345" y="708" on="0"/>
        <pt x="419" y="708" on="1"/>
        <pt x="493" y="708" on="0"/>
        <pt x="624" y="651" on="0"/>
        <pt x="721" y="554" on="0"/>
        <pt x="778" y="423" on="0"/>
        <pt x="778" y="349" on="1"/>
        <pt x="778" y="275" on="0"/>
        <pt x="721" y="145" on="0"/>
        <pt x="624" y="48" on="0"/>
        <pt x="493" y="-8" on="0"/>
        <pt x="419" y="-8" on="1"/>
        <pt x="345" y="-8" on="0"/>
        <pt x="215" y="48" on="0"/>
        <pt x="118" y="145" on="0"/>
        <pt x="62" y="275" on="0"/>
      </contour>
      <contour>
        <pt x="124" y="349" on="1"/>
        <pt x="124" y="287" on="0"/>
        <pt x="170" y="179" on="0"/>
        <pt x="250" y="98" on="0"/>
        <pt x="358" y="51" on="0"/>
        <pt x="419" y="51" on="1"/>
        <pt x="480" y="51" on="0"/>
        <pt x="588" y="98" on="0"/>
        <pt x="669" y="179" on="0"/>
        <pt x="716" y="287" on="0"/>
        <pt x="716" y="349" on="1"/>
        <pt x="716" y="410" on="0"/>
        <pt x="669" y="519" on="0"/>
        <pt x="588" y="601" on="0"/>
        <pt x="481" y="648" on="0"/>
        <pt x="420" y="648" on="1"/>
        <pt x="359" y="648" on="0"/>
        <pt x="251" y="601" on="0"/>
        <pt x="171" y="519" on="0"/>
        <pt x="124" y="410" on="0"/>
      </contour>
    </TTGlyph>
    <TTGlyph name="Oacute" xMin="61" yMin="-8" xMax="777" yMax="883">
      <component glyphName="O" x="-1" y="0" flags="0x204"/>
      <component glyphName="acute" x="300" y="271" flags="0x4"/>
    </TTGlyph>
    <TTGlyph name="Ocircumflex" xMin="61" yMin="-8" xMax="777" yMax="931">
      <component glyphName="O" x="-1" y="0" flags="0x4"/>
      <component glyphName="asciicircum" x="185" y="271" flags="0x4"/>
    </TTGlyph>
    <TTGlyph name="Odieresis" xMin="61" yMin="-8" xMax="777" yMax="847">
      <component glyphName="O" x="-1" y="0" flags="0x4"/>
      <component glyphName="dieresis" x="235" y="290" flags="0x4"/>
    </TTGlyph>
    <TTGlyph name="Ograve" xMin="61" yMin="-8" xMax="777" yMax="883">
      <component glyphName="O" x="-1" y="0" flags="0x4"/>
      <component glyphName="grave" x="320" y="271" flags="0x4"/>
    </TTGlyph>
    <TTGlyph name="Oslash" xMin="62" yMin="-14" xMax="778" yMax="716">
      <contour>
        <pt x="124" y="349" on="1"/>
        <pt x="124" y="289" on="0"/>
        <pt x="167" y="185" on="0"/>
        <pt x="205" y="145" on="1"/>
        <pt x="302" y="258" on="0"/>
        <pt x="491" y="481" on="0"/>
        <pt x="587" y="594" on="1"/>
        <pt x="551" y="620" on="0"/>
        <pt x="466" y="648" on="0"/>
        <pt x="419" y="648" on="1"/>
        <pt x="358" y="648" on="0"/>
        <pt x="251" y="601" on="0"/>
        <pt x="171" y="519" on="0"/>
        <pt x="124" y="410" on="0"/>
      </contour>
      <contour>
        <pt x="418" y="51" on="1"/>
        <pt x="479" y="51" on="0"/>
        <pt x="588" y="98" on="0"/>
        <pt x="669" y="179" on="0"/>
        <pt x="716" y="287" on="0"/>
        <pt x="716" y="349" on="1"/>
        <pt x="716" y="409" on="0"/>
        <pt x="669" y="516" on="0"/>
        <pt x="630" y="556" on="1"/>
        <pt x="534" y="443" on="0"/>
        <pt x="345" y="220" on="0"/>
        <pt x="248" y="107" on="1"/>
        <pt x="285" y="81" on="0"/>
        <pt x="370" y="51" on="0"/>
      </contour>
      <contour>
        <pt x="62" y="349" on="1"/>
        <pt x="62" y="423" on="0"/>
        <pt x="118" y="554" on="0"/>
        <pt x="215" y="651" on="0"/>
        <pt x="345" y="708" on="0"/>
        <pt x="419" y="708" on="1"/>
        <pt x="478" y="708" on="0"/>
        <pt x="583" y="673" on="0"/>
        <pt x="627" y="641" on="1"/>
        <pt x="643" y="660" on="0"/>
        <pt x="675" y="697" on="0"/>
        <pt x="691" y="716" on="1"/>
        <pt x="702" y="706" on="0"/>
        <pt x="723" y="687" on="0"/>
        <pt x="734" y="678" on="1"/>
        <pt x="718" y="659" on="0"/>
        <pt x="687" y="623" on="0"/>
        <pt x="671" y="604" on="1"/>
        <pt x="721" y="555" on="0"/>
        <pt x="778" y="424" on="0"/>
        <pt x="778" y="349" on="1"/>
        <pt x="778" y="275" on="0"/>
        <pt x="721" y="145" on="0"/>
        <pt x="624" y="48" on="0"/>
        <pt x="493" y="-8" on="0"/>
        <pt x="419" y="-8" on="1"/>
        <pt x="359" y="-8" on="0"/>
        <pt x="253" y="28" on="0"/>
        <pt x="209" y="60" on="1"/>
        <pt x="193" y="42" on="0"/>
        <pt x="162" y="4" on="0"/>
        <pt x="146" y="-14" on="1"/>
        <pt x="135" y="-5" on="0"/>
        <pt x="113" y="14" on="0"/>
        <pt x="102" y="24" on="1"/>
        <pt x="119" y="42" on="0"/>
        <pt x="149" y="79" on="0"/>
        <pt x="165" y="98" on="1"/>
        <pt x="117" y="146" on="0"/>
        <pt x="62" y="275" on="0"/>
      </contour>
    </TTGlyph>
    <TTGlyph name="Otilde" xMin="61" yMin="-8" xMax="777" yMax="876">
      <component glyphName="O" x="-1" y="0" flags="0x4"/>
      <component glyphName="asciitilde" x="141" y="327" flags="0x4"/>
    </TTGlyph>
    <TTGlyph name="P" xMin="66" yMin="0" xMax="449" yMax="700">
      <contour>
        <pt x="128" y="381" on="1"/>
        <pt x="223" y="381" on="1"/>
        <pt x="271" y="381" on="0"/>
        <pt x="335" y="406" on="0"/>
        <pt x="372" y="445" on="0"/>
        <pt x="387" y="492" on="0"/>
        <pt x="387" y="514" on="1"/>
        <pt x="387" y="539" on="0"/>
        <pt x="362" y="585" on="0"/>
        <pt x="319" y="620" on="0"/>
        <pt x="259" y="641" on="0"/>
        <pt x="224" y="641" on="1"/>
        <pt x="128" y="641" on="1"/>
      </contour>
      <contour>
        <pt x="66" y="0" on="1"/>
        <pt x="66" y="700" on="1"/>
        <pt x="223" y="700" on="1"/>
        <pt x="256" y="700" on="0"/>
        <pt x="334" y="679" on="0"/>
        <pt x="403" y="634" on="0"/>
        <pt x="449" y="564" on="0"/>
        <pt x="449" y="514" on="1"/>
        <pt x="449" y="426" on="0"/>
        <pt x="341" y="321" on="0"/>
        <pt x="238" y="321" on="1"/>
        <pt x="128" y="321" on="1"/>
        <pt x="128" y="0" on="1"/>
      </contour>
    </TTGlyph>
    <TTGlyph name="Q" xMin="62" yMin="-8" xMax="800" yMax="708">
      <contour>
        <pt x="124" y="349" on="1"/>
        <pt x="124" y="287" on="0"/>
        <pt x="170" y="179" on="0"/>
        <pt x="250" y="98" on="0"/>
        <pt x="357" y="51" on="0"/>
        <pt x="418" y="51" on="1"/>
        <pt x="479" y="51" on="0"/>
        <pt x="588" y="98" on="0"/>
        <pt x="669" y="179" on="0"/>
        <pt x="716" y="287" on="0"/>
        <pt x="716" y="349" on="1"/>
        <pt x="716" y="410" on="0"/>
        <pt x="669" y="519" on="0"/>
        <pt x="588" y="601" on="0"/>
        <pt x="480" y="648" on="0"/>
        <pt x="419" y="648" on="1"/>
        <pt x="358" y="648" on="0"/>
        <pt x="251" y="601" on="0"/>
        <pt x="171" y="519" on="0"/>
        <pt x="124" y="410" on="0"/>
      </contour>
      <contour>
        <pt x="62" y="349" on="1"/>
        <pt x="62" y="423" on="0"/>
        <pt x="118" y="554" on="0"/>
        <pt x="215" y="651" on="0"/>
        <pt x="345" y="708" on="0"/>
        <pt x="419" y="708" on="1"/>
        <pt x="493" y="708" on="0"/>
        <pt x="624" y="651" on="0"/>
        <pt x="721" y="554" on="0"/>
        <pt x="778" y="423" on="0"/>
        <pt x="778" y="349" on="1"/>
        <pt x="778" y="257" on="0"/>
        <pt x="691" y="105" on="0"/>
        <pt x="620" y="59" on="1"/>
        <pt x="800" y="59" on="1"/>
        <pt x="800" y="0" on="1"/>
        <pt x="493" y="0" on="1"/>
        <pt x="455" y="-8" on="0"/>
        <pt x="419" y="-8" on="1"/>
        <pt x="345" y="-8" on="0"/>
        <pt x="215" y="48" on="0"/>
        <pt x="118" y="145" on="0"/>
        <pt x="62" y="275" on="0"/>
      </contour>
    </TTGlyph>
    <TTGlyph name="R" xMin="66" yMin="0" xMax="455" yMax="700">
      <contour>
        <pt x="128" y="381" on="1"/>
        <pt x="223" y="381" on="1"/>
        <pt x="271" y="381" on="0"/>
        <pt x="335" y="406" on="0"/>
        <pt x="372" y="445" on="0"/>
        <pt x="387" y="492" on="0"/>
        <pt x="387" y="514" on="1"/>
        <pt x="387" y="539" on="0"/>
        <pt x="362" y="585" on="0"/>
        <pt x="319" y="620" on="0"/>
        <pt x="259" y="641" on="0"/>
        <pt x="224" y="641" on="1"/>
        <pt x="128" y="641" on="1"/>
      </contour>
      <contour>
        <pt x="66" y="0" on="1"/>
        <pt x="66" y="700" on="1"/>
        <pt x="223" y="700" on="1"/>
        <pt x="256" y="700" on="0"/>
        <pt x="334" y="679" on="0"/>
        <pt x="403" y="634" on="0"/>
        <pt x="449" y="564" on="0"/>
        <pt x="449" y="514" on="1"/>
        <pt x="449" y="440" on="0"/>
        <pt x="373" y="342" on="0"/>
        <pt x="301" y="326" on="1"/>
        <pt x="339" y="245" on="0"/>
        <pt x="416" y="82" on="0"/>
        <pt x="455" y="0" on="1"/>
        <pt x="387" y="0" on="1"/>
        <pt x="349" y="81" on="0"/>
        <pt x="273" y="241" on="0"/>
        <pt x="235" y="322" on="1"/>
        <pt x="229" y="321" on="0"/>
        <pt x="216" y="321" on="0"/>
        <pt x="209" y="321" on="1"/>
        <pt x="128" y="321" on="1"/>
        <pt x="128" y="0" on="1"/>
      </contour>
    </TTGlyph>
    <TTGlyph name="S" xMin="56" yMin="-8" xMax="484" yMax="704">
      <contour>
        <pt x="440" y="636" on="1"/>
        <pt x="431" y="625" on="0"/>
        <pt x="414" y="601" on="0"/>
        <pt x="405" y="590" on="1"/>
        <pt x="396" y="598" on="0"/>
        <pt x="370" y="617" on="0"/>
        <pt x="336" y="633" on="0"/>
        <pt x="295" y="644" on="0"/>
        <pt x="271" y="644" on="1"/>
        <pt x="239" y="644" on="0"/>
        <pt x="191" y="623" on="0"/>
        <pt x="160" y="589" on="0"/>
        <pt x="144" y="544" on="0"/>
        <pt x="144" y="519" on="1"/>
        <pt x="144" y="492" on="0"/>
        <pt x="163" y="455" on="0"/>
        <pt x="195" y="429" on="0"/>
        <pt x="238" y="411" on="0"/>
        <pt x="262" y="403" on="1"/>
        <pt x="294" y="392" on="0"/>
        <pt x="372" y="361" on="0"/>
        <pt x="439" y="312" on="0"/>
        <pt x="484" y="240" on="0"/>
        <pt x="484" y="187" on="1"/>
        <pt x="484" y="142" on="0"/>
        <pt x="451" y="70" on="0"/>
        <pt x="394" y="19" on="0"/>
        <pt x="318" y="-8" on="0"/>
        <pt x="275" y="-8" on="1"/>
        <pt x="236" y="-8" on="0"/>
        <pt x="168" y="13" on="0"/>
        <pt x="111" y="44" on="0"/>
        <pt x="68" y="81" on="0"/>
        <pt x="56" y="98" on="1"/>
        <pt x="96" y="138" on="1"/>
        <pt x="110" y="123" on="0"/>
        <pt x="145" y="93" on="0"/>
        <pt x="188" y="67" on="0"/>
        <pt x="239" y="51" on="0"/>
        <pt x="269" y="51" on="1"/>
        <pt x="299" y="51" on="0"/>
        <pt x="354" y="69" on="0"/>
        <pt x="396" y="103" on="0"/>
        <pt x="422" y="154" on="0"/>
        <pt x="422" y="186" on="1"/>
        <pt x="422" y="228" on="0"/>
        <pt x="382" y="283" on="0"/>
        <pt x="324" y="318" on="0"/>
        <pt x="258" y="339" on="0"/>
        <pt x="231" y="349" on="1"/>
        <pt x="213" y="356" on="0"/>
        <pt x="162" y="378" on="0"/>
        <pt x="116" y="416" on="0"/>
        <pt x="83" y="474" on="0"/>
        <pt x="82" y="517" on="1"/>
        <pt x="81" y="550" on="0"/>
        <pt x="100" y="617" on="0"/>
        <pt x="145" y="670" on="0"/>
        <pt x="218" y="704" on="0"/>
        <pt x="271" y="704" on="1"/>
        <pt x="310" y="704" on="0"/>
        <pt x="392" y="677" on="0"/>
      </contour>
    </TTGlyph>
    <TTGlyph name="T" xMin="0" yMin="0" xMax="553" yMax="700">
      <contour>
        <pt x="553" y="700" on="1"/>
        <pt x="553" y="640" on="1"/>
        <pt x="308" y="640" on="1"/>
        <pt x="308" y="0" on="1"/>
        <pt x="246" y="0" on="1"/>
        <pt x="246" y="640" on="1"/>
        <pt x="0" y="640" on="1"/>
        <pt x="0" y="700" on="1"/>
      </contour>
    </TTGlyph>
    <TTGlyph name="Thorn" xMin="100" yMin="0" xMax="483" yMax="700">
      <contour>
        <pt x="162" y="216" on="1"/>
        <pt x="258" y="216" on="1"/>
        <pt x="306" y="216" on="0"/>
        <pt x="369" y="241" on="0"/>
        <pt x="406" y="280" on="0"/>
        <pt x="421" y="327" on="0"/>
        <pt x="421" y="349" on="1"/>
        <pt x="421" y="374" on="0"/>
        <pt x="396" y="420" on="0"/>
        <pt x="353" y="455" on="0"/>
        <pt x="293" y="476" on="0"/>
        <pt x="259" y="476" on="1"/>
        <pt x="162" y="476" on="1"/>
      </contour>
      <contour>
        <pt x="162" y="0" on="1"/>
        <pt x="100" y="0" on="1"/>
        <pt x="100" y="700" on="1"/>
        <pt x="162" y="700" on="1"/>
        <pt x="162" y="535" on="1"/>
        <pt x="257" y="535" on="1"/>
        <pt x="290" y="535" on="0"/>
        <pt x="368" y="514" on="0"/>
        <pt x="437" y="469" on="0"/>
        <pt x="483" y="399" on="0"/>
        <pt x="483" y="349" on="1"/>
        <pt x="483" y="261" on="0"/>
        <pt x="375" y="156" on="0"/>
        <pt x="272" y="156" on="1"/>
        <pt x="162" y="156" on="1"/>
      </contour>
    </TTGlyph>
    <TTGlyph name="U" xMin="84" yMin="-8" xMax="572" yMax="700">
      <contour>
        <pt x="328" y="-8" on="1"/>
        <pt x="275" y="-8" on="0"/>
        <pt x="186" y="22" on="0"/>
        <pt x="121" y="81" on="0"/>
        <pt x="84" y="169" on="0"/>
        <pt x="84" y="226" on="1"/>
        <pt x="84" y="700" on="1"/>
        <pt x="146" y="700" on="1"/>
        <pt x="146" y="229" on="1"/>
        <pt x="146" y="186" on="0"/>
        <pt x="173" y="120" on="0"/>
        <pt x="221" y="75" on="0"/>
        <pt x="288" y="51" on="0"/>
        <pt x="328" y="51" on="1"/>
        <pt x="367" y="51" on="0"/>
        <pt x="434" y="75" on="0"/>
        <pt x="483" y="120" on="0"/>
        <pt x="510" y="186" on="0"/>
        <pt x="510" y="229" on="1"/>
        <pt x="510" y="700" on="1"/>
        <pt x="572" y="700" on="1"/>
        <pt x="572" y="226" on="1"/>
        <pt x="572" y="169" on="0"/>
        <pt x="535" y="81" on="0"/>
        <pt x="469" y="22" on="0"/>
        <pt x="380" y="-8" on="0"/>
      </contour>
    </TTGlyph>
    <TTGlyph name="Uacute" xMin="85" yMin="-8" xMax="573" yMax="883">
      <component glyphName="U" x="1" y="0" flags="0x204"/>
      <component glyphName="acute" x="200" y="271" flags="0x4"/>
    </TTGlyph>
    <TTGlyph name="Ucircumflex" xMin="85" yMin="-8" xMax="573" yMax="947">
      <component glyphName="U" x="1" y="0" flags="0x204"/>
      <component glyphName="asciicircum" x="94" y="287" flags="0x4"/>
    </TTGlyph>
    <TTGlyph name="Udieresis" xMin="85" yMin="-8" xMax="573" yMax="847">
      <component glyphName="U" x="1" y="0" flags="0x204"/>
      <component glyphName="dieresis" x="146" y="290" flags="0x4"/>
    </TTGlyph>
    <TTGlyph name="Ugrave" xMin="85" yMin="-8" xMax="573" yMax="883">
      <component glyphName="U" x="1" y="0" flags="0x204"/>
      <component glyphName="grave" x="240" y="271" flags="0x4"/>
    </TTGlyph>
    <TTGlyph name="V" xMin="54" yMin="-32" xMax="674" yMax="700">
      <contour>
        <pt x="611" y="700" on="1"/>
        <pt x="674" y="700" on="1"/>
        <pt x="596" y="516" on="0"/>
        <pt x="442" y="152" on="0"/>
        <pt x="364" y="-32" on="1"/>
        <pt x="286" y="152" on="0"/>
        <pt x="132" y="516" on="0"/>
        <pt x="54" y="700" on="1"/>
        <pt x="117" y="700" on="1"/>
        <pt x="177" y="558" on="0"/>
        <pt x="295" y="279" on="0"/>
        <pt x="355" y="137" on="1"/>
        <pt x="357" y="129" on="0"/>
        <pt x="362" y="114" on="0"/>
        <pt x="364" y="106" on="1"/>
        <pt x="366" y="114" on="0"/>
        <pt x="371" y="129" on="0"/>
        <pt x="373" y="137" on="1"/>
        <pt x="433" y="279" on="0"/>
        <pt x="551" y="558" on="0"/>
      </contour>
    </TTGlyph>
    <TTGlyph name="W" xMin="54" yMin="-32" xMax="1047" yMax="700">
      <contour>
        <pt x="984" y="700" on="1"/>
        <pt x="1047" y="700" on="1"/>
        <pt x="969" y="516" on="0"/>
        <pt x="815" y="152" on="0"/>
        <pt x="737" y="-32" on="1"/>
        <pt x="560" y="385" on="1"/>
        <pt x="558" y="393" on="0"/>
        <pt x="552" y="408" on="0"/>
        <pt x="550" y="416" on="1"/>
        <pt x="533" y="360" on="0"/>
        <pt x="488" y="247" on="0"/>
        <pt x="438" y="134" on="0"/>
        <pt x="387" y="22" on="0"/>
        <pt x="364" y="-32" on="1"/>
        <pt x="286" y="152" on="0"/>
        <pt x="132" y="516" on="0"/>
        <pt x="54" y="700" on="1"/>
        <pt x="117" y="700" on="1"/>
        <pt x="177" y="558" on="0"/>
        <pt x="294" y="279" on="0"/>
        <pt x="355" y="137" on="1"/>
        <pt x="357" y="129" on="0"/>
        <pt x="362" y="114" on="0"/>
        <pt x="364" y="106" on="1"/>
        <pt x="378" y="154" on="0"/>
        <pt x="416" y="248" on="0"/>
        <pt x="457" y="343" on="0"/>
        <pt x="500" y="436" on="0"/>
        <pt x="519" y="482" on="1"/>
        <pt x="496" y="537" on="0"/>
        <pt x="450" y="645" on="0"/>
        <pt x="427" y="700" on="1"/>
        <pt x="489" y="700" on="1"/>
        <pt x="549" y="558" on="0"/>
        <pt x="667" y="279" on="0"/>
        <pt x="728" y="137" on="1"/>
        <pt x="730" y="129" on="0"/>
        <pt x="735" y="114" on="0"/>
        <pt x="737" y="106" on="1"/>
        <pt x="739" y="114" on="0"/>
        <pt x="744" y="129" on="0"/>
        <pt x="746" y="137" on="1"/>
        <pt x="806" y="279" on="0"/>
        <pt x="924" y="558" on="0"/>
      </contour>
    </TTGlyph>
    <TTGlyph name="X" xMin="93" yMin="0" xMax="635" yMax="700">
      <contour>
        <pt x="325" y="358" on="1"/>
        <pt x="103" y="700" on="1"/>
        <pt x="179" y="700" on="1"/>
        <pt x="224" y="631" on="0"/>
        <pt x="311" y="497" on="0"/>
        <pt x="356" y="429" on="1"/>
        <pt x="360" y="418" on="0"/>
        <pt x="367" y="406" on="1"/>
        <pt x="370" y="411" on="0"/>
        <pt x="376" y="423" on="0"/>
        <pt x="379" y="429" on="1"/>
        <pt x="423" y="497" on="0"/>
        <pt x="510" y="631" on="0"/>
        <pt x="554" y="700" on="1"/>
        <pt x="630" y="700" on="1"/>
        <pt x="405" y="352" on="1"/>
        <pt x="463" y="264" on="0"/>
        <pt x="578" y="89" on="0"/>
        <pt x="635" y="0" on="1"/>
        <pt x="558" y="0" on="1"/>
        <pt x="385" y="264" on="1"/>
        <pt x="379" y="274" on="0"/>
        <pt x="369" y="295" on="0"/>
        <pt x="362" y="305" on="1"/>
        <pt x="360" y="299" on="0"/>
        <pt x="354" y="287" on="0"/>
        <pt x="351" y="281" on="1"/>
        <pt x="305" y="210" on="0"/>
        <pt x="215" y="71" on="0"/>
        <pt x="170" y="0" on="1"/>
        <pt x="93" y="0" on="1"/>
        <pt x="152" y="90" on="0"/>
        <pt x="266" y="268" on="0"/>
      </contour>
    </TTGlyph>
    <TTGlyph name="Y" xMin="23" yMin="0" xMax="612" yMax="700">
      <contour>
        <pt x="356" y="267" on="1"/>
        <pt x="356" y="0" on="1"/>
        <pt x="280" y="0" on="1"/>
        <pt x="280" y="268" on="1"/>
        <pt x="215" y="376" on="0"/>
        <pt x="88" y="591" on="0"/>
        <pt x="23" y="700" on="1"/>
        <pt x="99" y="700" on="1"/>
        <pt x="151" y="612" on="0"/>
        <pt x="255" y="441" on="0"/>
        <pt x="306" y="353" on="1"/>
        <pt x="309" y="346" on="0"/>
        <pt x="314" y="331" on="0"/>
        <pt x="317" y="324" on="1"/>
        <pt x="318" y="324" on="1"/>
        <pt x="321" y="331" on="0"/>
        <pt x="327" y="346" on="0"/>
        <pt x="330" y="353" on="1"/>
        <pt x="382" y="441" on="0"/>
        <pt x="484" y="612" on="0"/>
        <pt x="536" y="700" on="1"/>
        <pt x="612" y="700" on="1"/>
        <pt x="548" y="591" on="0"/>
        <pt x="420" y="376" on="0"/>
      </contour>
    </TTGlyph>
    <TTGlyph name="Yacute" xMin="23" yMin="0" xMax="612" yMax="883">
      <component glyphName="Y" x="0" y="0" flags="0x204"/>
      <component glyphName="acute" x="186" y="271" flags="0x4"/>
    </TTGlyph>
    <TTGlyph name="Z" xMin="81" yMin="0" xMax="640" yMax="735">
      <contour>
        <pt x="190" y="700" on="1"/>
        <pt x="611" y="700" on="1"/>
        <pt x="611" y="640" on="1"/>
        <pt x="497" y="494" on="0"/>
        <pt x="272" y="206" on="0"/>
        <pt x="158" y="60" on="1"/>
        <pt x="640" y="60" on="1"/>
        <pt x="640" y="0" on="1"/>
        <pt x="81" y="0" on="1"/>
        <pt x="81" y="60" on="1"/>
        <pt x="195" y="206" on="0"/>
        <pt x="419" y="494" on="0"/>
        <pt x="534" y="640" on="1"/>
        <pt x="167" y="640" on="1"/>
        <pt x="136" y="640" on="0"/>
        <pt x="97" y="670" on="0"/>
        <pt x="97" y="699" on="1"/>
        <pt x="97" y="735" on="1"/>
        <pt x="160" y="735" on="1"/>
        <pt x="160" y="723" on="1"/>
        <pt x="160" y="709" on="0"/>
        <pt x="173" y="700" on="0"/>
      </contour>
    </TTGlyph>
    <TTGlyph name="a" xMin="49" yMin="-8" xMax="446" yMax="384">
      <contour>
        <pt x="112" y="188" on="1"/>
        <pt x="112" y="159" on="0"/>
        <pt x="133" y="110" on="0"/>
        <pt x="169" y="74" on="0"/>
        <pt x="219" y="53" on="0"/>
        <pt x="248" y="53" on="1"/>
        <pt x="277" y="53" on="0"/>
        <pt x="327" y="74" on="0"/>
        <pt x="363" y="110" on="0"/>
        <pt x="384" y="159" on="0"/>
        <pt x="384" y="188" on="1"/>
        <pt x="384" y="216" on="0"/>
        <pt x="363" y="266" on="0"/>
        <pt x="327" y="302" on="0"/>
        <pt x="277" y="323" on="0"/>
        <pt x="248" y="323" on="1"/>
        <pt x="219" y="323" on="0"/>
        <pt x="169" y="302" on="0"/>
        <pt x="133" y="266" on="0"/>
        <pt x="112" y="216" on="0"/>
      </contour>
      <contour>
        <pt x="49" y="187" on="1"/>
        <pt x="49" y="227" on="0"/>
        <pt x="80" y="298" on="0"/>
        <pt x="133" y="352" on="0"/>
        <pt x="206" y="384" on="0"/>
        <pt x="248" y="384" on="1"/>
        <pt x="276" y="384" on="0"/>
        <pt x="325" y="368" on="0"/>
        <pt x="363" y="344" on="0"/>
        <pt x="388" y="318" on="0"/>
        <pt x="391" y="308" on="1"/>
        <pt x="391" y="324" on="0"/>
        <pt x="394" y="358" on="0"/>
        <pt x="395" y="375" on="1"/>
        <pt x="446" y="375" on="1"/>
        <pt x="446" y="0" on="1"/>
        <pt x="391" y="0" on="1"/>
        <pt x="391" y="39" on="1"/>
        <pt x="391" y="64" on="1"/>
        <pt x="388" y="54" on="0"/>
        <pt x="365" y="29" on="0"/>
        <pt x="328" y="7" on="0"/>
        <pt x="278" y="-8" on="0"/>
        <pt x="248" y="-8" on="1"/>
        <pt x="206" y="-8" on="0"/>
        <pt x="133" y="23" on="0"/>
        <pt x="80" y="76" on="0"/>
        <pt x="49" y="147" on="0"/>
      </contour>
    </TTGlyph>
    <TTGlyph name="aacute" xMin="49" yMin="-8" xMax="446" yMax="612">
      <component glyphName="a" x="0" y="0" flags="0x4"/>
      <component glyphName="acute" x="132" y="0" flags="0x4"/>
    </TTGlyph>
    <TTGlyph name="acircumflex" xMin="49" yMin="-8" xMax="446" yMax="660">
      <component glyphName="a" x="0" y="0" flags="0x4"/>
      <component glyphName="asciicircum" x="29" y="0" flags="0x4"/>
    </TTGlyph>
    <TTGlyph name="acute" xMin="100" yMin="479" xMax="254" yMax="612">
      <contour>
        <pt x="100" y="479" on="1"/>
        <pt x="123" y="512" on="0"/>
        <pt x="167" y="579" on="0"/>
        <pt x="190" y="612" on="1"/>
        <pt x="254" y="612" on="1"/>
        <pt x="227" y="579" on="0"/>
        <pt x="173" y="512" on="0"/>
        <pt x="146" y="479" on="1"/>
      </contour>
    </TTGlyph>
    <TTGlyph name="adieresis" xMin="49" yMin="-8" xMax="446" yMax="557">
      <component glyphName="a" x="0" y="0" flags="0x4"/>
      <component glyphName="dieresis" x="78" y="0" flags="0x4"/>
    </TTGlyph>
    <TTGlyph name="ae" xMin="45" yMin="-8" xMax="578" yMax="384">
      <contour>
        <pt x="360" y="244" on="1"/>
        <pt x="360" y="213" on="1"/>
        <pt x="395" y="227" on="0"/>
        <pt x="463" y="252" on="0"/>
        <pt x="498" y="266" on="1"/>
        <pt x="483" y="292" on="0"/>
        <pt x="433" y="323" on="0"/>
        <pt x="404" y="323" on="1"/>
        <pt x="374" y="323" on="0"/>
        <pt x="347" y="312" on="1"/>
        <pt x="355" y="300" on="0"/>
        <pt x="360" y="266" on="0"/>
      </contour>
      <contour>
        <pt x="297" y="149" on="1"/>
        <pt x="230" y="149" on="1"/>
        <pt x="215" y="149" on="0"/>
        <pt x="173" y="148" on="0"/>
        <pt x="135" y="140" on="0"/>
        <pt x="108" y="122" on="0"/>
        <pt x="108" y="105" on="1"/>
        <pt x="108" y="89" on="0"/>
        <pt x="126" y="69" on="0"/>
        <pt x="153" y="57" on="0"/>
        <pt x="187" y="53" on="0"/>
        <pt x="204" y="53" on="1"/>
        <pt x="219" y="53" on="0"/>
        <pt x="252" y="56" on="0"/>
        <pt x="279" y="68" on="0"/>
        <pt x="297" y="90" on="0"/>
        <pt x="297" y="109" on="1"/>
      </contour>
      <contour>
        <pt x="100" y="293" on="1"/>
        <pt x="91" y="304" on="0"/>
        <pt x="74" y="323" on="0"/>
        <pt x="65" y="334" on="1"/>
        <pt x="75" y="344" on="0"/>
        <pt x="108" y="362" on="0"/>
        <pt x="146" y="376" on="0"/>
        <pt x="187" y="384" on="0"/>
        <pt x="205" y="384" on="1"/>
        <pt x="282" y="384" on="0"/>
        <pt x="315" y="364" on="1"/>
        <pt x="357" y="384" on="0"/>
        <pt x="404" y="384" on="1"/>
        <pt x="466" y="384" on="0"/>
        <pt x="559" y="298" on="0"/>
        <pt x="578" y="231" on="1"/>
        <pt x="524" y="210" on="0"/>
        <pt x="414" y="169" on="0"/>
        <pt x="360" y="148" on="1"/>
        <pt x="360" y="138" on="1"/>
        <pt x="360" y="131" on="1"/>
        <pt x="360" y="110" on="0"/>
        <pt x="353" y="78" on="0"/>
        <pt x="344" y="65" on="1"/>
        <pt x="371" y="53" on="0"/>
        <pt x="404" y="53" on="1"/>
        <pt x="430" y="53" on="0"/>
        <pt x="477" y="74" on="0"/>
        <pt x="494" y="91" on="1"/>
        <pt x="504" y="79" on="0"/>
        <pt x="523" y="56" on="0"/>
        <pt x="533" y="45" on="1"/>
        <pt x="507" y="21" on="0"/>
        <pt x="442" y="-7" on="0"/>
        <pt x="404" y="-7" on="1"/>
        <pt x="354" y="-7" on="0"/>
        <pt x="310" y="15" on="1"/>
        <pt x="272" y="-8" on="0"/>
        <pt x="204" y="-8" on="1"/>
        <pt x="168" y="-8" on="0"/>
        <pt x="109" y="3" on="0"/>
        <pt x="68" y="30" on="0"/>
        <pt x="45" y="74" on="0"/>
        <pt x="45" y="108" on="1"/>
        <pt x="45" y="138" on="0"/>
        <pt x="70" y="178" on="0"/>
        <pt x="111" y="203" on="0"/>
        <pt x="163" y="213" on="0"/>
        <pt x="191" y="213" on="1"/>
        <pt x="297" y="213" on="1"/>
        <pt x="297" y="246" on="1"/>
        <pt x="297" y="265" on="0"/>
        <pt x="290" y="294" on="0"/>
        <pt x="271" y="314" on="0"/>
        <pt x="234" y="323" on="0"/>
        <pt x="204" y="323" on="1"/>
        <pt x="191" y="323" on="0"/>
        <pt x="161" y="318" on="0"/>
        <pt x="132" y="309" on="0"/>
        <pt x="107" y="299" on="0"/>
      </contour>
    </TTGlyph>
    <TTGlyph name="agrave" xMin="49" yMin="-8" xMax="446" yMax="612">
      <component glyphName="a" x="0" y="0" flags="0x4"/>
      <component glyphName="grave" x="159" y="0" flags="0x4"/>
    </TTGlyph>
    <TTGlyph name="ampersand" xMin="105" yMin="-19" xMax="602" yMax="750">
      <contour>
        <pt x="168" y="188" on="1"/>
        <pt x="168" y="159" on="0"/>
        <pt x="188" y="110" on="0"/>
        <pt x="224" y="73" on="0"/>
        <pt x="274" y="52" on="0"/>
        <pt x="303" y="52" on="1"/>
        <pt x="345" y="52" on="0"/>
        <pt x="407" y="92" on="0"/>
        <pt x="424" y="124" on="1"/>
        <pt x="394" y="174" on="0"/>
        <pt x="333" y="272" on="0"/>
        <pt x="303" y="322" on="1"/>
        <pt x="243" y="320" on="0"/>
        <pt x="168" y="247" on="0"/>
      </contour>
      <contour>
        <pt x="503" y="210" on="1"/>
        <pt x="503" y="187" on="1"/>
        <pt x="503" y="156" on="0"/>
        <pt x="490" y="127" on="1"/>
        <pt x="508" y="98" on="0"/>
        <pt x="543" y="42" on="0"/>
        <pt x="561" y="13" on="1"/>
        <pt x="548" y="5" on="0"/>
        <pt x="524" y="-11" on="0"/>
        <pt x="512" y="-19" on="1"/>
        <pt x="498" y="2" on="0"/>
        <pt x="473" y="45" on="0"/>
        <pt x="460" y="66" on="1"/>
        <pt x="432" y="31" on="0"/>
        <pt x="351" y="-8" on="0"/>
        <pt x="303" y="-8" on="1"/>
        <pt x="262" y="-8" on="0"/>
        <pt x="190" y="23" on="0"/>
        <pt x="136" y="76" on="0"/>
        <pt x="105" y="147" on="0"/>
        <pt x="105" y="188" on="1"/>
        <pt x="105" y="224" on="0"/>
        <pt x="130" y="288" on="0"/>
        <pt x="173" y="339" on="0"/>
        <pt x="232" y="374" on="0"/>
        <pt x="267" y="380" on="1"/>
        <pt x="250" y="409" on="0"/>
        <pt x="214" y="467" on="0"/>
        <pt x="196" y="496" on="1"/>
        <pt x="178" y="526" on="0"/>
        <pt x="163" y="590" on="0"/>
        <pt x="173" y="651" on="0"/>
        <pt x="210" y="706" on="0"/>
        <pt x="243" y="726" on="1"/>
        <pt x="271" y="743" on="0"/>
        <pt x="330" y="750" on="0"/>
        <pt x="386" y="739" on="0"/>
        <pt x="435" y="717" on="0"/>
        <pt x="454" y="705" on="1"/>
        <pt x="448" y="693" on="0"/>
        <pt x="435" y="668" on="0"/>
        <pt x="429" y="656" on="1"/>
        <pt x="415" y="664" on="0"/>
        <pt x="379" y="681" on="0"/>
        <pt x="341" y="690" on="0"/>
        <pt x="302" y="687" on="0"/>
        <pt x="285" y="676" on="1"/>
        <pt x="237" y="646" on="0"/>
        <pt x="227" y="556" on="0"/>
        <pt x="253" y="512" on="1"/>
        <pt x="298" y="438" on="0"/>
        <pt x="387" y="294" on="0"/>
        <pt x="432" y="220" on="1"/>
        <pt x="437" y="238" on="0"/>
        <pt x="443" y="270" on="0"/>
        <pt x="445" y="284" on="1"/>
        <pt x="445" y="305" on="1"/>
        <pt x="450" y="334" on="0"/>
        <pt x="473" y="363" on="0"/>
        <pt x="503" y="375" on="0"/>
        <pt x="539" y="375" on="0"/>
        <pt x="558" y="375" on="1"/>
        <pt x="602" y="375" on="1"/>
        <pt x="602" y="314" on="1"/>
        <pt x="554" y="314" on="1"/>
        <pt x="539" y="314" on="0"/>
        <pt x="519" y="305" on="0"/>
        <pt x="507" y="282" on="0"/>
        <pt x="503" y="242" on="0"/>
      </contour>
    </TTGlyph>
    <TTGlyph name="aring" xMin="49" yMin="-8" xMax="446" yMax="620">
      <contour>
        <pt x="213" y="539" on="1"/>
        <pt x="213" y="524" on="0"/>
        <pt x="235" y="502" on="0"/>
        <pt x="250" y="502" on="1"/>
        <pt x="266" y="502" on="0"/>
        <pt x="288" y="524" on="0"/>
        <pt x="288" y="539" on="1"/>
        <pt x="288" y="555" on="0"/>
        <pt x="266" y="577" on="0"/>
        <pt x="250" y="577" on="1"/>
        <pt x="235" y="577" on="0"/>
        <pt x="213" y="555" on="0"/>
      </contour>
      <contour>
        <pt x="170" y="540" on="1"/>
        <pt x="170" y="573" on="0"/>
        <pt x="217" y="620" on="0"/>
        <pt x="250" y="620" on="1"/>
        <pt x="283" y="620" on="0"/>
        <pt x="330" y="573" on="0"/>
        <pt x="330" y="540" on="1"/>
        <pt x="330" y="507" on="0"/>
        <pt x="283" y="460" on="0"/>
        <pt x="250" y="460" on="1"/>
        <pt x="217" y="460" on="0"/>
        <pt x="170" y="507" on="0"/>
      </contour>
      <contour>
        <pt x="112" y="188" on="1"/>
        <pt x="112" y="159" on="0"/>
        <pt x="133" y="110" on="0"/>
        <pt x="169" y="74" on="0"/>
        <pt x="219" y="53" on="0"/>
        <pt x="248" y="53" on="1"/>
        <pt x="277" y="53" on="0"/>
        <pt x="327" y="74" on="0"/>
        <pt x="363" y="110" on="0"/>
        <pt x="384" y="159" on="0"/>
        <pt x="384" y="188" on="1"/>
        <pt x="384" y="216" on="0"/>
        <pt x="363" y="266" on="0"/>
        <pt x="327" y="302" on="0"/>
        <pt x="277" y="323" on="0"/>
        <pt x="248" y="323" on="1"/>
        <pt x="219" y="323" on="0"/>
        <pt x="169" y="302" on="0"/>
        <pt x="133" y="266" on="0"/>
        <pt x="112" y="216" on="0"/>
      </contour>
      <contour>
        <pt x="49" y="187" on="1"/>
        <pt x="49" y="227" on="0"/>
        <pt x="80" y="298" on="0"/>
        <pt x="133" y="352" on="0"/>
        <pt x="206" y="384" on="0"/>
        <pt x="248" y="384" on="1"/>
        <pt x="276" y="384" on="0"/>
        <pt x="325" y="368" on="0"/>
        <pt x="363" y="344" on="0"/>
        <pt x="388" y="318" on="0"/>
        <pt x="391" y="308" on="1"/>
        <pt x="391" y="324" on="0"/>
        <pt x="394" y="358" on="0"/>
        <pt x="395" y="375" on="1"/>
        <pt x="446" y="375" on="1"/>
        <pt x="446" y="0" on="1"/>
        <pt x="391" y="0" on="1"/>
        <pt x="391" y="39" on="1"/>
        <pt x="391" y="64" on="1"/>
        <pt x="388" y="54" on="0"/>
        <pt x="365" y="29" on="0"/>
        <pt x="328" y="7" on="0"/>
        <pt x="278" y="-8" on="0"/>
        <pt x="248" y="-8" on="1"/>
        <pt x="206" y="-8" on="0"/>
        <pt x="133" y="23" on="0"/>
        <pt x="80" y="76" on="0"/>
        <pt x="49" y="147" on="0"/>
      </contour>
    </TTGlyph>
    <TTGlyph name="asciicircum" xMin="112" yMin="479" xMax="352" yMax="660">
      <contour>
        <pt x="232" y="660" on="1"/>
        <pt x="262" y="615" on="0"/>
        <pt x="322" y="524" on="0"/>
        <pt x="352" y="479" on="1"/>
        <pt x="306" y="479" on="1"/>
        <pt x="287" y="503" on="0"/>
        <pt x="250" y="551" on="0"/>
        <pt x="232" y="576" on="1"/>
        <pt x="213" y="551" on="0"/>
        <pt x="177" y="503" on="0"/>
        <pt x="158" y="479" on="1"/>
        <pt x="112" y="479" on="1"/>
        <pt x="142" y="524" on="0"/>
        <pt x="202" y="615" on="0"/>
      </contour>
    </TTGlyph>
    <TTGlyph name="asciitilde" xMin="124" yMin="452" xMax="432" yMax="549">
      <contour>
        <pt x="269" y="486" on="1"/>
        <pt x="254" y="503" on="0"/>
        <pt x="231" y="513" on="0"/>
        <pt x="217" y="513" on="1"/>
        <pt x="210" y="513" on="0"/>
        <pt x="191" y="509" on="0"/>
        <pt x="174" y="498" on="0"/>
        <pt x="161" y="479" on="0"/>
        <pt x="160" y="464" on="1"/>
        <pt x="124" y="467" on="1"/>
        <pt x="125" y="486" on="0"/>
        <pt x="142" y="517" on="0"/>
        <pt x="167" y="538" on="0"/>
        <pt x="198" y="549" on="0"/>
        <pt x="213" y="549" on="1"/>
        <pt x="235" y="549" on="0"/>
        <pt x="270" y="530" on="0"/>
        <pt x="287" y="514" on="1"/>
        <pt x="302" y="497" on="0"/>
        <pt x="326" y="487" on="0"/>
        <pt x="340" y="487" on="1"/>
        <pt x="347" y="487" on="0"/>
        <pt x="365" y="491" on="0"/>
        <pt x="382" y="502" on="0"/>
        <pt x="395" y="521" on="0"/>
        <pt x="397" y="536" on="1"/>
        <pt x="405" y="535" on="0"/>
        <pt x="423" y="534" on="0"/>
        <pt x="432" y="533" on="1"/>
        <pt x="431" y="513" on="0"/>
        <pt x="414" y="483" on="0"/>
        <pt x="389" y="462" on="0"/>
        <pt x="359" y="452" on="0"/>
        <pt x="344" y="452" on="1"/>
        <pt x="321" y="452" on="0"/>
        <pt x="286" y="471" on="0"/>
      </contour>
    </TTGlyph>
    <TTGlyph name="asterisk" xMin="29" yMin="434" xMax="309" yMax="720">
      <contour>
        <pt x="230" y="575" on="1"/>
        <pt x="249" y="564" on="0"/>
        <pt x="287" y="542" on="0"/>
        <pt x="307" y="531" on="1"/>
        <pt x="299" y="517" on="0"/>
        <pt x="283" y="489" on="0"/>
        <pt x="275" y="475" on="1"/>
        <pt x="255" y="486" on="0"/>
        <pt x="218" y="510" on="0"/>
        <pt x="198" y="521" on="1"/>
        <pt x="198" y="499" on="0"/>
        <pt x="197" y="456" on="0"/>
        <pt x="197" y="434" on="1"/>
        <pt x="137" y="434" on="1"/>
        <pt x="137" y="521" on="1"/>
        <pt x="118" y="510" on="0"/>
        <pt x="80" y="489" on="0"/>
        <pt x="61" y="478" on="1"/>
        <pt x="45" y="507" on="0"/>
        <pt x="29" y="533" on="1"/>
        <pt x="49" y="544" on="0"/>
        <pt x="86" y="565" on="0"/>
        <pt x="106" y="576" on="1"/>
        <pt x="87" y="587" on="0"/>
        <pt x="49" y="611" on="0"/>
        <pt x="30" y="622" on="1"/>
        <pt x="38" y="635" on="0"/>
        <pt x="52" y="660" on="0"/>
        <pt x="59" y="674" on="1"/>
        <pt x="79" y="663" on="0"/>
        <pt x="117" y="639" on="0"/>
        <pt x="137" y="628" on="1"/>
        <pt x="137" y="720" on="1"/>
        <pt x="201" y="720" on="1"/>
        <pt x="201" y="697" on="0"/>
        <pt x="200" y="651" on="0"/>
        <pt x="200" y="628" on="1"/>
        <pt x="220" y="639" on="0"/>
        <pt x="259" y="662" on="0"/>
        <pt x="279" y="673" on="1"/>
        <pt x="287" y="659" on="0"/>
        <pt x="301" y="634" on="0"/>
        <pt x="309" y="621" on="1"/>
        <pt x="289" y="610" on="0"/>
        <pt x="250" y="586" on="0"/>
      </contour>
    </TTGlyph>
    <TTGlyph name="at" xMin="74" yMin="-225" xMax="902" yMax="602">
      <contour>
        <pt x="351" y="188" on="1"/>
        <pt x="351" y="159" on="0"/>
        <pt x="371" y="110" on="0"/>
        <pt x="407" y="74" on="0"/>
        <pt x="457" y="53" on="0"/>
        <pt x="486" y="53" on="1"/>
        <pt x="516" y="53" on="0"/>
        <pt x="566" y="74" on="0"/>
        <pt x="602" y="110" on="0"/>
        <pt x="623" y="159" on="0"/>
        <pt x="623" y="188" on="1"/>
        <pt x="623" y="216" on="0"/>
        <pt x="602" y="266" on="0"/>
        <pt x="566" y="302" on="0"/>
        <pt x="516" y="323" on="0"/>
        <pt x="486" y="323" on="1"/>
        <pt x="457" y="323" on="0"/>
        <pt x="407" y="302" on="0"/>
        <pt x="371" y="266" on="0"/>
        <pt x="351" y="216" on="0"/>
      </contour>
      <contour>
        <pt x="902" y="188" on="1"/>
        <pt x="899" y="134" on="0"/>
        <pt x="863" y="61" on="0"/>
        <pt x="812" y="18" on="0"/>
        <pt x="754" y="0" on="0"/>
        <pt x="727" y="0" on="1"/>
        <pt x="630" y="0" on="1"/>
        <pt x="630" y="30" on="1"/>
        <pt x="630" y="63" on="1"/>
        <pt x="626" y="53" on="0"/>
        <pt x="602" y="28" on="0"/>
        <pt x="565" y="7" on="0"/>
        <pt x="516" y="-8" on="0"/>
        <pt x="486" y="-8" on="1"/>
        <pt x="444" y="-8" on="0"/>
        <pt x="372" y="23" on="0"/>
        <pt x="319" y="76" on="0"/>
        <pt x="288" y="147" on="0"/>
        <pt x="288" y="187" on="1"/>
        <pt x="288" y="227" on="0"/>
        <pt x="319" y="298" on="0"/>
        <pt x="372" y="351" on="0"/>
        <pt x="444" y="382" on="0"/>
        <pt x="486" y="382" on="1"/>
        <pt x="513" y="382" on="0"/>
        <pt x="562" y="366" on="0"/>
        <pt x="600" y="344" on="0"/>
        <pt x="625" y="318" on="0"/>
        <pt x="630" y="308" on="1"/>
        <pt x="630" y="324" on="0"/>
        <pt x="633" y="358" on="0"/>
        <pt x="634" y="375" on="1"/>
        <pt x="685" y="375" on="1"/>
        <pt x="685" y="61" on="1"/>
        <pt x="729" y="61" on="1"/>
        <pt x="751" y="61" on="0"/>
        <pt x="790" y="75" on="0"/>
        <pt x="820" y="105" on="0"/>
        <pt x="838" y="153" on="0"/>
        <pt x="839" y="188" on="1"/>
        <pt x="839" y="261" on="0"/>
        <pt x="784" y="390" on="0"/>
        <pt x="689" y="486" on="0"/>
        <pt x="561" y="542" on="0"/>
        <pt x="489" y="542" on="1"/>
        <pt x="416" y="542" on="0"/>
        <pt x="288" y="486" on="0"/>
        <pt x="192" y="390" on="0"/>
        <pt x="137" y="261" on="0"/>
        <pt x="137" y="188" on="1"/>
        <pt x="137" y="115" on="0"/>
        <pt x="192" y="-13" on="0"/>
        <pt x="288" y="-109" on="0"/>
        <pt x="416" y="-164" on="0"/>
        <pt x="489" y="-164" on="1"/>
        <pt x="549" y="-164" on="0"/>
        <pt x="656" y="-128" on="0"/>
        <pt x="701" y="-96" on="1"/>
        <pt x="711" y="-108" on="0"/>
        <pt x="729" y="-130" on="0"/>
        <pt x="739" y="-141" on="1"/>
        <pt x="689" y="-182" on="0"/>
        <pt x="555" y="-225" on="0"/>
        <pt x="489" y="-225" on="1"/>
        <pt x="403" y="-225" on="0"/>
        <pt x="252" y="-160" on="0"/>
        <pt x="139" y="-48" on="0"/>
        <pt x="74" y="103" on="0"/>
        <pt x="74" y="189" on="1"/>
        <pt x="74" y="275" on="0"/>
        <pt x="139" y="425" on="0"/>
        <pt x="252" y="537" on="0"/>
        <pt x="403" y="602" on="0"/>
        <pt x="489" y="602" on="1"/>
        <pt x="575" y="602" on="0"/>
        <pt x="725" y="537" on="0"/>
        <pt x="837" y="425" on="0"/>
        <pt x="902" y="274" on="0"/>
      </contour>
    </TTGlyph>
    <TTGlyph name="atilde" xMin="49" yMin="-8" xMax="446" yMax="549">
      <component glyphName="a" x="0" y="0" flags="0x4"/>
      <component glyphName="asciitilde" x="-5" y="0" flags="0x4"/>
    </TTGlyph>
    <TTGlyph name="b" xMin="82" yMin="-8" xMax="479" yMax="750">
      <contour>
        <pt x="416" y="188" on="1"/>
        <pt x="416" y="216" on="0"/>
        <pt x="396" y="266" on="0"/>
        <pt x="360" y="302" on="0"/>
        <pt x="310" y="323" on="0"/>
        <pt x="280" y="323" on="1"/>
        <pt x="251" y="323" on="0"/>
        <pt x="201" y="302" on="0"/>
        <pt x="165" y="266" on="0"/>
        <pt x="144" y="216" on="0"/>
        <pt x="144" y="188" on="1"/>
        <pt x="144" y="159" on="0"/>
        <pt x="165" y="110" on="0"/>
        <pt x="201" y="74" on="0"/>
        <pt x="251" y="53" on="0"/>
        <pt x="280" y="53" on="1"/>
        <pt x="310" y="53" on="0"/>
        <pt x="360" y="74" on="0"/>
        <pt x="396" y="110" on="0"/>
        <pt x="416" y="159" on="0"/>
      </contour>
      <contour>
        <pt x="479" y="188" on="1"/>
        <pt x="479" y="148" on="0"/>
        <pt x="448" y="77" on="0"/>
        <pt x="395" y="23" on="0"/>
        <pt x="322" y="-8" on="0"/>
        <pt x="280" y="-8" on="1"/>
        <pt x="250" y="-8" on="0"/>
        <pt x="200" y="7" on="0"/>
        <pt x="163" y="29" on="0"/>
        <pt x="140" y="54" on="0"/>
        <pt x="137" y="64" on="1"/>
        <pt x="137" y="39" on="1"/>
        <pt x="137" y="0" on="1"/>
        <pt x="82" y="0" on="1"/>
        <pt x="82" y="750" on="1"/>
        <pt x="144" y="750" on="1"/>
        <pt x="144" y="348" on="1"/>
        <pt x="142" y="337" on="0"/>
        <pt x="139" y="319" on="0"/>
        <pt x="137" y="309" on="1"/>
        <pt x="140" y="319" on="0"/>
        <pt x="165" y="345" on="0"/>
        <pt x="203" y="368" on="0"/>
        <pt x="252" y="384" on="0"/>
        <pt x="280" y="384" on="1"/>
        <pt x="322" y="384" on="0"/>
        <pt x="395" y="353" on="0"/>
        <pt x="448" y="299" on="0"/>
        <pt x="479" y="228" on="0"/>
      </contour>
    </TTGlyph>
    <TTGlyph name="backslash" xMin="5" yMin="-19" xMax="353" yMax="736">
      <contour>
        <pt x="75" y="736" on="1"/>
        <pt x="145" y="546" on="0"/>
        <pt x="283" y="171" on="0"/>
        <pt x="353" y="-19" on="1"/>
        <pt x="283" y="-19" on="1"/>
        <pt x="213" y="171" on="0"/>
        <pt x="75" y="546" on="0"/>
        <pt x="5" y="736" on="1"/>
      </contour>
    </TTGlyph>
    <TTGlyph name="bar" xMin="93" yMin="-232" xMax="156" yMax="700">
      <contour>
        <pt x="93" y="-232" on="1"/>
        <pt x="93" y="700" on="1"/>
        <pt x="156" y="700" on="1"/>
        <pt x="156" y="-232" on="1"/>
      </contour>
    </TTGlyph>
    <TTGlyph name="braceleft" xMin="30" yMin="-149" xMax="273" yMax="746">
      <contour>
        <pt x="30" y="265" on="1"/>
        <pt x="30" y="329" on="1"/>
        <pt x="54" y="330" on="0"/>
        <pt x="85" y="357" on="0"/>
        <pt x="103" y="397" on="0"/>
        <pt x="109" y="444" on="0"/>
        <pt x="109" y="464" on="1"/>
        <pt x="109" y="628" on="1"/>
        <pt x="109" y="674" on="0"/>
        <pt x="127" y="723" on="0"/>
        <pt x="157" y="744" on="0"/>
        <pt x="196" y="746" on="0"/>
        <pt x="217" y="746" on="1"/>
        <pt x="273" y="746" on="1"/>
        <pt x="273" y="685" on="1"/>
        <pt x="225" y="685" on="1"/>
        <pt x="210" y="685" on="0"/>
        <pt x="190" y="676" on="0"/>
        <pt x="178" y="652" on="0"/>
        <pt x="173" y="611" on="0"/>
        <pt x="173" y="579" on="1"/>
        <pt x="173" y="444" on="1"/>
        <pt x="173" y="408" on="0"/>
        <pt x="161" y="359" on="0"/>
        <pt x="141" y="325" on="0"/>
        <pt x="118" y="305" on="0"/>
        <pt x="107" y="298" on="1"/>
        <pt x="118" y="292" on="0"/>
        <pt x="141" y="271" on="0"/>
        <pt x="161" y="237" on="0"/>
        <pt x="173" y="187" on="0"/>
        <pt x="173" y="153" on="1"/>
        <pt x="173" y="18" on="1"/>
        <pt x="173" y="-14" on="0"/>
        <pt x="178" y="-55" on="0"/>
        <pt x="190" y="-79" on="0"/>
        <pt x="210" y="-88" on="0"/>
        <pt x="225" y="-88" on="1"/>
        <pt x="273" y="-88" on="1"/>
        <pt x="273" y="-149" on="1"/>
        <pt x="217" y="-149" on="1"/>
        <pt x="195" y="-149" on="0"/>
        <pt x="156" y="-147" on="0"/>
        <pt x="126" y="-124" on="0"/>
        <pt x="109" y="-71" on="0"/>
        <pt x="109" y="-20" on="1"/>
        <pt x="109" y="130" on="1"/>
        <pt x="109" y="150" on="0"/>
        <pt x="103" y="197" on="0"/>
        <pt x="85" y="237" on="0"/>
        <pt x="54" y="264" on="0"/>
      </contour>
    </TTGlyph>
    <TTGlyph name="braceright" xMin="47" yMin="-149" xMax="290" yMax="746">
      <contour>
        <pt x="290" y="329" on="1"/>
        <pt x="290" y="265" on="1"/>
        <pt x="264" y="264" on="0"/>
        <pt x="232" y="233" on="0"/>
        <pt x="216" y="188" on="0"/>
        <pt x="211" y="138" on="0"/>
        <pt x="211" y="119" on="1"/>
        <pt x="211" y="-31" on="1"/>
        <pt x="211" y="-77" on="0"/>
        <pt x="193" y="-126" on="0"/>
        <pt x="163" y="-147" on="0"/>
        <pt x="124" y="-149" on="0"/>
        <pt x="103" y="-149" on="1"/>
        <pt x="47" y="-149" on="1"/>
        <pt x="47" y="-88" on="1"/>
        <pt x="95" y="-88" on="1"/>
        <pt x="110" y="-88" on="0"/>
        <pt x="130" y="-79" on="0"/>
        <pt x="142" y="-55" on="0"/>
        <pt x="147" y="-14" on="0"/>
        <pt x="147" y="18" on="1"/>
        <pt x="147" y="164" on="1"/>
        <pt x="147" y="195" on="0"/>
        <pt x="161" y="241" on="0"/>
        <pt x="181" y="273" on="0"/>
        <pt x="204" y="292" on="0"/>
        <pt x="213" y="298" on="1"/>
        <pt x="202" y="305" on="0"/>
        <pt x="179" y="325" on="0"/>
        <pt x="159" y="359" on="0"/>
        <pt x="147" y="408" on="0"/>
        <pt x="147" y="444" on="1"/>
        <pt x="147" y="579" on="1"/>
        <pt x="147" y="611" on="0"/>
        <pt x="142" y="652" on="0"/>
        <pt x="130" y="676" on="0"/>
        <pt x="110" y="685" on="0"/>
        <pt x="95" y="685" on="1"/>
        <pt x="47" y="685" on="1"/>
        <pt x="47" y="746" on="1"/>
        <pt x="103" y="746" on="1"/>
        <pt x="124" y="746" on="0"/>
        <pt x="163" y="744" on="0"/>
        <pt x="193" y="723" on="0"/>
        <pt x="211" y="674" on="0"/>
        <pt x="211" y="628" on="1"/>
        <pt x="211" y="475" on="1"/>
        <pt x="211" y="455" on="0"/>
        <pt x="216" y="406" on="0"/>
        <pt x="232" y="361" on="0"/>
        <pt x="264" y="330" on="0"/>
      </contour>
    </TTGlyph>
    <TTGlyph name="bracketleft" xMin="83" yMin="-149" xMax="266" yMax="746">
      <contour>
        <pt x="83" y="-149" on="1"/>
        <pt x="83" y="746" on="1"/>
        <pt x="266" y="746" on="1"/>
        <pt x="266" y="685" on="1"/>
        <pt x="146" y="685" on="1"/>
        <pt x="146" y="-88" on="1"/>
        <pt x="266" y="-88" on="1"/>
        <pt x="266" y="-149" on="1"/>
      </contour>
    </TTGlyph>
    <TTGlyph name="bracketright" xMin="68" yMin="-149" xMax="251" yMax="746">
      <contour>
        <pt x="251" y="746" on="1"/>
        <pt x="251" y="-149" on="1"/>
        <pt x="68" y="-149" on="1"/>
        <pt x="68" y="-88" on="1"/>
        <pt x="188" y="-88" on="1"/>
        <pt x="188" y="685" on="1"/>
        <pt x="68" y="685" on="1"/>
        <pt x="68" y="746" on="1"/>
      </contour>
    </TTGlyph>
    <TTGlyph name="brokenbar" xMin="79" yMin="-233" xMax="142" yMax="700">
      <contour>
        <pt x="142" y="-233" on="1"/>
        <pt x="79" y="-233" on="1"/>
        <pt x="79" y="117" on="1"/>
        <pt x="142" y="117" on="1"/>
      </contour>
      <contour>
        <pt x="142" y="350" on="1"/>
        <pt x="79" y="350" on="1"/>
        <pt x="79" y="700" on="1"/>
        <pt x="142" y="700" on="1"/>
      </contour>
    </TTGlyph>
    <TTGlyph name="bullet" xMin="131" yMin="192" xMax="348" yMax="409">
      <contour>
        <pt x="131" y="300" on="1"/>
        <pt x="131" y="323" on="0"/>
        <pt x="148" y="363" on="0"/>
        <pt x="177" y="392" on="0"/>
        <pt x="216" y="409" on="0"/>
        <pt x="239" y="409" on="1"/>
        <pt x="262" y="409" on="0"/>
        <pt x="302" y="392" on="0"/>
        <pt x="331" y="363" on="0"/>
        <pt x="348" y="323" on="0"/>
        <pt x="348" y="300" on="1"/>
        <pt x="348" y="277" on="0"/>
        <pt x="331" y="238" on="0"/>
        <pt x="302" y="209" on="0"/>
        <pt x="262" y="192" on="0"/>
        <pt x="239" y="192" on="1"/>
        <pt x="216" y="192" on="0"/>
        <pt x="177" y="209" on="0"/>
        <pt x="148" y="238" on="0"/>
        <pt x="131" y="277" on="0"/>
      </contour>
    </TTGlyph>
    <TTGlyph name="c" xMin="36" yMin="-8" xMax="360" yMax="384">
      <contour>
        <pt x="321" y="82" on="1"/>
        <pt x="339" y="59" on="0"/>
        <pt x="359" y="35" on="1"/>
        <pt x="333" y="15" on="0"/>
        <pt x="270" y="-8" on="0"/>
        <pt x="234" y="-8" on="1"/>
        <pt x="193" y="-8" on="0"/>
        <pt x="121" y="23" on="0"/>
        <pt x="67" y="76" on="0"/>
        <pt x="36" y="147" on="0"/>
        <pt x="36" y="188" on="1"/>
        <pt x="36" y="228" on="0"/>
        <pt x="67" y="300" on="0"/>
        <pt x="121" y="353" on="0"/>
        <pt x="193" y="384" on="0"/>
        <pt x="234" y="384" on="1"/>
        <pt x="271" y="384" on="0"/>
        <pt x="334" y="361" on="0"/>
        <pt x="360" y="341" on="1"/>
        <pt x="350" y="329" on="0"/>
        <pt x="330" y="306" on="0"/>
        <pt x="321" y="294" on="1"/>
        <pt x="303" y="308" on="0"/>
        <pt x="259" y="323" on="0"/>
        <pt x="234" y="323" on="1"/>
        <pt x="205" y="323" on="0"/>
        <pt x="155" y="302" on="0"/>
        <pt x="119" y="266" on="0"/>
        <pt x="98" y="216" on="0"/>
        <pt x="98" y="188" on="1"/>
        <pt x="98" y="159" on="0"/>
        <pt x="119" y="110" on="0"/>
        <pt x="155" y="74" on="0"/>
        <pt x="205" y="53" on="0"/>
        <pt x="234" y="53" on="1"/>
        <pt x="260" y="53" on="0"/>
        <pt x="303" y="68" on="0"/>
      </contour>
    </TTGlyph>
    <TTGlyph name="ccedilla" xMin="36" yMin="-241" xMax="360" yMax="384">
      <contour>
        <pt x="321" y="82" on="1"/>
        <pt x="339" y="59" on="0"/>
        <pt x="359" y="35" on="1"/>
        <pt x="307" y="-6" on="0"/>
        <pt x="236" y="-8" on="1"/>
        <pt x="236" y="-22" on="0"/>
        <pt x="245" y="-39" on="0"/>
        <pt x="258" y="-49" on="0"/>
        <pt x="272" y="-57" on="0"/>
        <pt x="278" y="-61" on="1"/>
        <pt x="300" y="-77" on="0"/>
        <pt x="317" y="-116" on="0"/>
        <pt x="317" y="-138" on="1"/>
        <pt x="317" y="-176" on="0"/>
        <pt x="278" y="-230" on="0"/>
        <pt x="245" y="-238" on="1"/>
        <pt x="236" y="-240" on="0"/>
        <pt x="219" y="-241" on="0"/>
        <pt x="208" y="-240" on="1"/>
        <pt x="180" y="-238" on="0"/>
        <pt x="133" y="-205" on="0"/>
        <pt x="122" y="-172" on="1"/>
        <pt x="158" y="-154" on="1"/>
        <pt x="164" y="-171" on="0"/>
        <pt x="193" y="-194" on="0"/>
        <pt x="214" y="-194" on="1"/>
        <pt x="240" y="-194" on="0"/>
        <pt x="270" y="-160" on="0"/>
        <pt x="270" y="-134" on="1"/>
        <pt x="270" y="-112" on="0"/>
        <pt x="247" y="-86" on="0"/>
        <pt x="220" y="-67" on="0"/>
        <pt x="197" y="-47" on="0"/>
        <pt x="197" y="-29" on="1"/>
        <pt x="197" y="-3" on="1"/>
        <pt x="162" y="3" on="0"/>
        <pt x="104" y="37" on="0"/>
        <pt x="60" y="88" on="0"/>
        <pt x="36" y="152" on="0"/>
        <pt x="36" y="188" on="1"/>
        <pt x="36" y="228" on="0"/>
        <pt x="67" y="300" on="0"/>
        <pt x="121" y="353" on="0"/>
        <pt x="193" y="384" on="0"/>
        <pt x="234" y="384" on="1"/>
        <pt x="271" y="384" on="0"/>
        <pt x="334" y="361" on="0"/>
        <pt x="360" y="341" on="1"/>
        <pt x="350" y="329" on="0"/>
        <pt x="330" y="306" on="0"/>
        <pt x="321" y="294" on="1"/>
        <pt x="303" y="308" on="0"/>
        <pt x="259" y="323" on="0"/>
        <pt x="234" y="323" on="1"/>
        <pt x="205" y="323" on="0"/>
        <pt x="155" y="302" on="0"/>
        <pt x="119" y="266" on="0"/>
        <pt x="98" y="216" on="0"/>
        <pt x="98" y="188" on="1"/>
        <pt x="98" y="159" on="0"/>
        <pt x="119" y="110" on="0"/>
        <pt x="155" y="74" on="0"/>
        <pt x="205" y="53" on="0"/>
        <pt x="234" y="53" on="1"/>
        <pt x="260" y="53" on="0"/>
        <pt x="303" y="68" on="0"/>
      </contour>
    </TTGlyph>
    <TTGlyph name="cedilla" xMin="112" yMin="-242" xMax="307" yMax="0">
      <contour>
        <pt x="187" y="0" on="1"/>
        <pt x="227" y="0" on="1"/>
        <pt x="227" y="-7" on="1"/>
        <pt x="227" y="-21" on="0"/>
        <pt x="235" y="-38" on="0"/>
        <pt x="247" y="-49" on="0"/>
        <pt x="262" y="-57" on="0"/>
        <pt x="268" y="-61" on="1"/>
        <pt x="290" y="-77" on="0"/>
        <pt x="307" y="-116" on="0"/>
        <pt x="307" y="-138" on="1"/>
        <pt x="307" y="-183" on="0"/>
        <pt x="255" y="-242" on="0"/>
        <pt x="209" y="-242" on="1"/>
        <pt x="177" y="-242" on="0"/>
        <pt x="123" y="-207" on="0"/>
        <pt x="112" y="-172" on="1"/>
        <pt x="148" y="-154" on="1"/>
        <pt x="154" y="-171" on="0"/>
        <pt x="183" y="-194" on="0"/>
        <pt x="204" y="-194" on="1"/>
        <pt x="230" y="-194" on="0"/>
        <pt x="260" y="-160" on="0"/>
        <pt x="260" y="-134" on="1"/>
        <pt x="260" y="-112" on="0"/>
        <pt x="237" y="-86" on="0"/>
        <pt x="210" y="-67" on="0"/>
        <pt x="187" y="-47" on="0"/>
        <pt x="187" y="-29" on="1"/>
      </contour>
    </TTGlyph>
    <TTGlyph name="cent" xMin="36" yMin="-68" xMax="360" yMax="438">
      <contour>
        <pt x="98" y="188" on="1"/>
        <pt x="98" y="143" on="0"/>
        <pt x="149" y="74" on="0"/>
        <pt x="190" y="62" on="1"/>
        <pt x="190" y="313" on="1"/>
        <pt x="149" y="301" on="0"/>
        <pt x="98" y="233" on="0"/>
      </contour>
      <contour>
        <pt x="321" y="82" on="1"/>
        <pt x="339" y="59" on="0"/>
        <pt x="359" y="35" on="1"/>
        <pt x="312" y="-2" on="0"/>
        <pt x="253" y="-7" on="1"/>
        <pt x="253" y="-68" on="1"/>
        <pt x="190" y="-68" on="1"/>
        <pt x="190" y="-2" on="1"/>
        <pt x="157" y="5" on="0"/>
        <pt x="100" y="40" on="0"/>
        <pt x="59" y="90" on="0"/>
        <pt x="36" y="153" on="0"/>
        <pt x="36" y="188" on="1"/>
        <pt x="36" y="222" on="0"/>
        <pt x="59" y="285" on="0"/>
        <pt x="100" y="336" on="0"/>
        <pt x="157" y="371" on="0"/>
        <pt x="190" y="378" on="1"/>
        <pt x="190" y="438" on="1"/>
        <pt x="253" y="438" on="1"/>
        <pt x="253" y="382" on="1"/>
        <pt x="282" y="380" on="0"/>
        <pt x="338" y="358" on="0"/>
        <pt x="360" y="341" on="1"/>
        <pt x="350" y="329" on="0"/>
        <pt x="330" y="306" on="0"/>
        <pt x="321" y="294" on="1"/>
        <pt x="306" y="305" on="0"/>
        <pt x="272" y="319" on="0"/>
        <pt x="253" y="321" on="1"/>
        <pt x="253" y="54" on="1"/>
        <pt x="291" y="59" on="0"/>
      </contour>
    </TTGlyph>
    <TTGlyph name="colon" xMin="43" yMin="0" xMax="127" yMax="335">
      <contour>
        <pt x="43" y="292" on="1"/>
        <pt x="43" y="311" on="0"/>
        <pt x="68" y="335" on="0"/>
        <pt x="85" y="335" on="1"/>
        <pt x="101" y="335" on="0"/>
        <pt x="127" y="311" on="0"/>
        <pt x="127" y="292" on="1"/>
        <pt x="127" y="273" on="0"/>
        <pt x="101" y="250" on="0"/>
        <pt x="85" y="250" on="1"/>
        <pt x="68" y="250" on="0"/>
        <pt x="43" y="273" on="0"/>
      </contour>
      <contour>
        <pt x="43" y="42" on="1"/>
        <pt x="43" y="61" on="0"/>
        <pt x="68" y="85" on="0"/>
        <pt x="85" y="85" on="1"/>
        <pt x="101" y="85" on="0"/>
        <pt x="127" y="61" on="0"/>
        <pt x="127" y="42" on="1"/>
        <pt x="127" y="23" on="0"/>
        <pt x="101" y="0" on="0"/>
        <pt x="85" y="0" on="1"/>
        <pt x="68" y="0" on="0"/>
        <pt x="43" y="23" on="0"/>
      </contour>
    </TTGlyph>
    <TTGlyph name="comma" xMin="10" yMin="-120" xMax="152" yMax="86">
      <contour>
        <pt x="152" y="86" on="1"/>
        <pt x="130" y="34" on="0"/>
        <pt x="88" y="-68" on="0"/>
        <pt x="66" y="-120" on="1"/>
        <pt x="10" y="-120" on="1"/>
        <pt x="29" y="-68" on="0"/>
        <pt x="66" y="34" on="0"/>
        <pt x="86" y="86" on="1"/>
      </contour>
    </TTGlyph>
    <TTGlyph name="copyright" xMin="139" yMin="113" xMax="661" yMax="632">
      <contour>
        <pt x="400" y="143" on="1"/>
        <pt x="448" y="143" on="0"/>
        <pt x="531" y="178" on="0"/>
        <pt x="593" y="239" on="0"/>
        <pt x="628" y="323" on="0"/>
        <pt x="628" y="372" on="1"/>
        <pt x="628" y="422" on="0"/>
        <pt x="593" y="506" on="0"/>
        <pt x="531" y="568" on="0"/>
        <pt x="448" y="602" on="0"/>
        <pt x="400" y="602" on="1"/>
        <pt x="352" y="602" on="0"/>
        <pt x="269" y="568" on="0"/>
        <pt x="207" y="506" on="0"/>
        <pt x="172" y="422" on="0"/>
        <pt x="172" y="372" on="1"/>
        <pt x="172" y="323" on="0"/>
        <pt x="207" y="239" on="0"/>
        <pt x="269" y="178" on="0"/>
        <pt x="352" y="143" on="0"/>
      </contour>
      <contour>
        <pt x="400" y="113" on="1"/>
        <pt x="346" y="113" on="0"/>
        <pt x="251" y="152" on="0"/>
        <pt x="180" y="222" on="0"/>
        <pt x="139" y="316" on="0"/>
        <pt x="139" y="372" on="1"/>
        <pt x="139" y="428" on="0"/>
        <pt x="180" y="524" on="0"/>
        <pt x="251" y="593" on="0"/>
        <pt x="346" y="632" on="0"/>
        <pt x="400" y="632" on="1"/>
        <pt x="454" y="632" on="0"/>
        <pt x="549" y="593" on="0"/>
        <pt x="620" y="524" on="0"/>
        <pt x="661" y="428" on="0"/>
        <pt x="661" y="372" on="1"/>
        <pt x="661" y="316" on="0"/>
        <pt x="620" y="222" on="0"/>
        <pt x="549" y="152" on="0"/>
        <pt x="454" y="113" on="0"/>
      </contour>
      <contour>
        <pt x="473" y="259" on="1"/>
        <pt x="489" y="236" on="1"/>
        <pt x="471" y="225" on="0"/>
        <pt x="429" y="213" on="0"/>
        <pt x="406" y="213" on="1"/>
        <pt x="373" y="213" on="0"/>
        <pt x="314" y="239" on="0"/>
        <pt x="270" y="283" on="0"/>
        <pt x="245" y="342" on="0"/>
        <pt x="245" y="375" on="1"/>
        <pt x="245" y="409" on="0"/>
        <pt x="270" y="468" on="0"/>
        <pt x="314" y="512" on="0"/>
        <pt x="373" y="537" on="0"/>
        <pt x="406" y="537" on="1"/>
        <pt x="451" y="537" on="0"/>
        <pt x="489" y="515" on="1"/>
        <pt x="485" y="509" on="0"/>
        <pt x="478" y="497" on="0"/>
        <pt x="473" y="492" on="1"/>
        <pt x="443" y="510" on="0"/>
        <pt x="406" y="510" on="1"/>
        <pt x="379" y="510" on="0"/>
        <pt x="330" y="489" on="0"/>
        <pt x="294" y="452" on="0"/>
        <pt x="273" y="403" on="0"/>
        <pt x="273" y="375" on="1"/>
        <pt x="273" y="347" on="0"/>
        <pt x="294" y="298" on="0"/>
        <pt x="330" y="261" on="0"/>
        <pt x="379" y="240" on="0"/>
        <pt x="406" y="240" on="1"/>
        <pt x="441" y="240" on="0"/>
      </contour>
    </TTGlyph>
    <TTGlyph name="currency" xMin="92" yMin="203" xMax="403" yMax="514">
      <contour>
        <pt x="158" y="360" on="1"/>
        <pt x="158" y="323" on="0"/>
        <pt x="211" y="271" on="0"/>
        <pt x="248" y="271" on="1"/>
        <pt x="285" y="271" on="0"/>
        <pt x="338" y="323" on="0"/>
        <pt x="338" y="360" on="1"/>
        <pt x="338" y="398" on="0"/>
        <pt x="285" y="451" on="0"/>
        <pt x="248" y="451" on="1"/>
        <pt x="211" y="451" on="0"/>
        <pt x="158" y="398" on="0"/>
      </contour>
      <contour>
        <pt x="95" y="361" on="1"/>
        <pt x="95" y="384" on="0"/>
        <pt x="109" y="424" on="0"/>
        <pt x="120" y="442" on="1"/>
        <pt x="112" y="449" on="0"/>
        <pt x="100" y="462" on="0"/>
        <pt x="92" y="470" on="1"/>
        <pt x="136" y="514" on="1"/>
        <pt x="165" y="486" on="1"/>
        <pt x="183" y="497" on="0"/>
        <pt x="224" y="511" on="0"/>
        <pt x="247" y="511" on="1"/>
        <pt x="292" y="511" on="0"/>
        <pt x="330" y="486" on="1"/>
        <pt x="358" y="514" on="1"/>
        <pt x="402" y="470" on="1"/>
        <pt x="376" y="443" on="1"/>
        <pt x="387" y="425" on="0"/>
        <pt x="401" y="383" on="0"/>
        <pt x="401" y="361" on="1"/>
        <pt x="401" y="315" on="0"/>
        <pt x="374" y="277" on="1"/>
        <pt x="403" y="248" on="1"/>
        <pt x="359" y="204" on="1"/>
        <pt x="351" y="212" on="0"/>
        <pt x="336" y="226" on="0"/>
        <pt x="328" y="234" on="1"/>
        <pt x="293" y="210" on="0"/>
        <pt x="247" y="210" on="1"/>
        <pt x="201" y="210" on="0"/>
        <pt x="166" y="233" on="1"/>
        <pt x="136" y="203" on="1"/>
        <pt x="92" y="247" on="1"/>
        <pt x="121" y="276" on="1"/>
        <pt x="109" y="294" on="0"/>
        <pt x="95" y="337" on="0"/>
      </contour>
    </TTGlyph>
    <TTGlyph name="d" xMin="51" yMin="-8" xMax="448" yMax="750">
      <contour>
        <pt x="114" y="188" on="1"/>
        <pt x="114" y="159" on="0"/>
        <pt x="134" y="110" on="0"/>
        <pt x="170" y="74" on="0"/>
        <pt x="220" y="53" on="0"/>
        <pt x="250" y="53" on="1"/>
        <pt x="279" y="53" on="0"/>
        <pt x="329" y="74" on="0"/>
        <pt x="365" y="110" on="0"/>
        <pt x="386" y="159" on="0"/>
        <pt x="386" y="188" on="1"/>
        <pt x="386" y="216" on="0"/>
        <pt x="365" y="266" on="0"/>
        <pt x="329" y="302" on="0"/>
        <pt x="279" y="323" on="0"/>
        <pt x="250" y="323" on="1"/>
        <pt x="220" y="323" on="0"/>
        <pt x="170" y="302" on="0"/>
        <pt x="134" y="266" on="0"/>
        <pt x="114" y="216" on="0"/>
      </contour>
      <contour>
        <pt x="51" y="188" on="1"/>
        <pt x="51" y="228" on="0"/>
        <pt x="82" y="299" on="0"/>
        <pt x="135" y="353" on="0"/>
        <pt x="208" y="384" on="0"/>
        <pt x="250" y="384" on="1"/>
        <pt x="278" y="384" on="0"/>
        <pt x="327" y="368" on="0"/>
        <pt x="365" y="345" on="0"/>
        <pt x="390" y="319" on="0"/>
        <pt x="393" y="309" on="1"/>
        <pt x="391" y="319" on="0"/>
        <pt x="388" y="337" on="0"/>
        <pt x="386" y="348" on="1"/>
        <pt x="386" y="750" on="1"/>
        <pt x="448" y="750" on="1"/>
        <pt x="448" y="0" on="1"/>
        <pt x="393" y="0" on="1"/>
        <pt x="393" y="39" on="1"/>
        <pt x="393" y="64" on="1"/>
        <pt x="390" y="54" on="0"/>
        <pt x="367" y="29" on="0"/>
        <pt x="330" y="7" on="0"/>
        <pt x="280" y="-8" on="0"/>
        <pt x="250" y="-8" on="1"/>
        <pt x="208" y="-8" on="0"/>
        <pt x="135" y="23" on="0"/>
        <pt x="82" y="77" on="0"/>
        <pt x="51" y="148" on="0"/>
      </contour>
    </TTGlyph>
    <TTGlyph name="degree" xMin="43" yMin="467" xMax="231" yMax="653">
      <contour>
        <pt x="138" y="507" on="1"/>
        <pt x="160" y="507" on="0"/>
        <pt x="191" y="537" on="0"/>
        <pt x="191" y="559" on="1"/>
        <pt x="191" y="582" on="0"/>
        <pt x="160" y="612" on="0"/>
        <pt x="138" y="612" on="1"/>
        <pt x="116" y="612" on="0"/>
        <pt x="85" y="582" on="0"/>
        <pt x="85" y="559" on="1"/>
        <pt x="85" y="537" on="0"/>
        <pt x="116" y="507" on="0"/>
      </contour>
      <contour>
        <pt x="43" y="560" on="1"/>
        <pt x="43" y="599" on="0"/>
        <pt x="98" y="653" on="0"/>
        <pt x="138" y="653" on="1"/>
        <pt x="157" y="653" on="0"/>
        <pt x="191" y="639" on="0"/>
        <pt x="216" y="613" on="0"/>
        <pt x="231" y="579" on="0"/>
        <pt x="231" y="560" on="1"/>
        <pt x="231" y="540" on="0"/>
        <pt x="216" y="507" on="0"/>
        <pt x="191" y="481" on="0"/>
        <pt x="157" y="467" on="0"/>
        <pt x="138" y="467" on="1"/>
        <pt x="98" y="467" on="0"/>
        <pt x="43" y="521" on="0"/>
      </contour>
    </TTGlyph>
    <TTGlyph name="dieresis" xMin="59" yMin="472" xMax="309" yMax="557">
      <contour>
        <pt x="225" y="514" on="1"/>
        <pt x="225" y="532" on="0"/>
        <pt x="250" y="557" on="0"/>
        <pt x="267" y="557" on="1"/>
        <pt x="283" y="557" on="0"/>
        <pt x="309" y="532" on="0"/>
        <pt x="309" y="514" on="1"/>
        <pt x="309" y="495" on="0"/>
        <pt x="283" y="472" on="0"/>
        <pt x="267" y="472" on="1"/>
        <pt x="250" y="472" on="0"/>
        <pt x="225" y="495" on="0"/>
      </contour>
      <contour>
        <pt x="59" y="514" on="1"/>
        <pt x="59" y="532" on="0"/>
        <pt x="85" y="557" on="0"/>
        <pt x="101" y="557" on="1"/>
        <pt x="117" y="557" on="0"/>
        <pt x="143" y="532" on="0"/>
        <pt x="143" y="514" on="1"/>
        <pt x="143" y="495" on="0"/>
        <pt x="117" y="472" on="0"/>
        <pt x="101" y="472" on="1"/>
        <pt x="85" y="472" on="0"/>
        <pt x="59" y="495" on="0"/>
      </contour>
    </TTGlyph>
    <TTGlyph name="divide" xMin="68" yMin="71" xMax="428" yMax="406">
      <contour>
        <pt x="428" y="207" on="1"/>
        <pt x="68" y="207" on="1"/>
        <pt x="68" y="268" on="1"/>
        <pt x="428" y="268" on="1"/>
      </contour>
      <contour>
        <pt x="209" y="363" on="1"/>
        <pt x="209" y="382" on="0"/>
        <pt x="234" y="406" on="0"/>
        <pt x="251" y="406" on="1"/>
        <pt x="267" y="406" on="0"/>
        <pt x="293" y="382" on="0"/>
        <pt x="293" y="363" on="1"/>
        <pt x="293" y="344" on="0"/>
        <pt x="267" y="321" on="0"/>
        <pt x="251" y="321" on="1"/>
        <pt x="234" y="321" on="0"/>
        <pt x="209" y="344" on="0"/>
      </contour>
      <contour>
        <pt x="209" y="113" on="1"/>
        <pt x="209" y="132" on="0"/>
        <pt x="234" y="156" on="0"/>
        <pt x="251" y="156" on="1"/>
        <pt x="267" y="156" on="0"/>
        <pt x="293" y="132" on="0"/>
        <pt x="293" y="113" on="1"/>
        <pt x="293" y="94" on="0"/>
        <pt x="267" y="71" on="0"/>
        <pt x="251" y="71" on="1"/>
        <pt x="234" y="71" on="0"/>
        <pt x="209" y="94" on="0"/>
      </contour>
    </TTGlyph>
    <TTGlyph name="dollar" xMin="56" yMin="-68" xMax="484" yMax="764">
      <contour>
        <pt x="144" y="519" on="1"/>
        <pt x="144" y="477" on="0"/>
        <pt x="185" y="433" on="0"/>
        <pt x="220" y="419" on="1"/>
        <pt x="225" y="416" on="0"/>
        <pt x="236" y="412" on="0"/>
        <pt x="242" y="410" on="1"/>
        <pt x="242" y="641" on="1"/>
        <pt x="217" y="637" on="0"/>
        <pt x="180" y="614" on="0"/>
        <pt x="156" y="581" on="0"/>
        <pt x="144" y="541" on="0"/>
      </contour>
      <contour>
        <pt x="422" y="186" on="1"/>
        <pt x="422" y="216" on="0"/>
        <pt x="402" y="258" on="0"/>
        <pt x="369" y="290" on="0"/>
        <pt x="327" y="311" on="0"/>
        <pt x="305" y="320" on="1"/>
        <pt x="305" y="56" on="1"/>
        <pt x="329" y="60" on="0"/>
        <pt x="371" y="82" on="0"/>
        <pt x="403" y="115" on="0"/>
        <pt x="422" y="159" on="0"/>
      </contour>
      <contour>
        <pt x="440" y="636" on="1"/>
        <pt x="431" y="625" on="0"/>
        <pt x="414" y="601" on="0"/>
        <pt x="405" y="590" on="1"/>
        <pt x="391" y="603" on="0"/>
        <pt x="340" y="634" on="0"/>
        <pt x="305" y="640" on="1"/>
        <pt x="305" y="387" on="1"/>
        <pt x="335" y="375" on="0"/>
        <pt x="399" y="343" on="0"/>
        <pt x="451" y="297" on="0"/>
        <pt x="484" y="232" on="0"/>
        <pt x="484" y="187" on="1"/>
        <pt x="484" y="146" on="0"/>
        <pt x="456" y="79" on="0"/>
        <pt x="408" y="29" on="0"/>
        <pt x="342" y="-2" on="0"/>
        <pt x="305" y="-6" on="1"/>
        <pt x="305" y="-68" on="1"/>
        <pt x="242" y="-68" on="1"/>
        <pt x="242" y="-5" on="1"/>
        <pt x="208" y="-1" on="0"/>
        <pt x="150" y="21" on="0"/>
        <pt x="102" y="50" on="0"/>
        <pt x="66" y="83" on="0"/>
        <pt x="56" y="98" on="1"/>
        <pt x="96" y="138" on="1"/>
        <pt x="120" y="112" on="0"/>
        <pt x="192" y="61" on="0"/>
        <pt x="242" y="54" on="1"/>
        <pt x="242" y="343" on="1"/>
        <pt x="237" y="345" on="0"/>
        <pt x="226" y="349" on="0"/>
        <pt x="221" y="352" on="1"/>
        <pt x="202" y="359" on="0"/>
        <pt x="154" y="383" on="0"/>
        <pt x="112" y="421" on="0"/>
        <pt x="83" y="477" on="0"/>
        <pt x="82" y="517" on="1"/>
        <pt x="81" y="547" on="0"/>
        <pt x="97" y="609" on="0"/>
        <pt x="135" y="661" on="0"/>
        <pt x="197" y="697" on="0"/>
        <pt x="242" y="702" on="1"/>
        <pt x="242" y="764" on="1"/>
        <pt x="305" y="764" on="1"/>
        <pt x="305" y="701" on="1"/>
        <pt x="336" y="696" on="0"/>
        <pt x="403" y="668" on="0"/>
      </contour>
    </TTGlyph>
    <TTGlyph name="e" xMin="36" yMin="-8" xMax="408" yMax="384">
      <contour>
        <pt x="234" y="323" on="1"/>
        <pt x="184" y="323" on="0"/>
        <pt x="111" y="263" on="0"/>
        <pt x="103" y="218" on="1"/>
        <pt x="101" y="208" on="0"/>
        <pt x="100" y="188" on="0"/>
        <pt x="100" y="178" on="1"/>
        <pt x="157" y="200" on="0"/>
        <pt x="271" y="243" on="0"/>
        <pt x="328" y="265" on="1"/>
        <pt x="313" y="291" on="0"/>
        <pt x="264" y="323" on="0"/>
      </contour>
      <contour>
        <pt x="408" y="230" on="1"/>
        <pt x="117" y="119" on="1"/>
        <pt x="134" y="89" on="0"/>
        <pt x="195" y="53" on="0"/>
        <pt x="234" y="53" on="1"/>
        <pt x="261" y="53" on="0"/>
        <pt x="308" y="73" on="0"/>
        <pt x="325" y="90" on="1"/>
        <pt x="334" y="79" on="0"/>
        <pt x="353" y="56" on="0"/>
        <pt x="363" y="45" on="1"/>
        <pt x="337" y="20" on="0"/>
        <pt x="272" y="-8" on="0"/>
        <pt x="234" y="-8" on="1"/>
        <pt x="193" y="-8" on="0"/>
        <pt x="121" y="23" on="0"/>
        <pt x="67" y="76" on="0"/>
        <pt x="36" y="147" on="0"/>
        <pt x="36" y="188" on="1"/>
        <pt x="36" y="228" on="0"/>
        <pt x="67" y="300" on="0"/>
        <pt x="121" y="353" on="0"/>
        <pt x="193" y="384" on="0"/>
        <pt x="234" y="384" on="1"/>
        <pt x="265" y="384" on="0"/>
        <pt x="320" y="361" on="0"/>
        <pt x="365" y="320" on="0"/>
        <pt x="399" y="263" on="0"/>
      </contour>
    </TTGlyph>
    <TTGlyph name="eacute" xMin="36" yMin="-8" xMax="408" yMax="612">
      <component glyphName="e" x="0" y="0" flags="0x204"/>
      <component glyphName="acute" x="123" y="0" flags="0x4"/>
    </TTGlyph>
    <TTGlyph name="ecircumflex" xMin="36" yMin="-8" xMax="408" yMax="660">
      <component glyphName="e" x="0" y="0" flags="0x204"/>
      <component glyphName="asciicircum" x="0" y="0" flags="0x4"/>
    </TTGlyph>
    <TTGlyph name="edieresis" xMin="36" yMin="-8" xMax="408" yMax="557">
      <component glyphName="e" x="0" y="0" flags="0x204"/>
      <component glyphName="dieresis" x="46" y="0" flags="0x4"/>
    </TTGlyph>
    <TTGlyph name="egrave" xMin="36" yMin="-8" xMax="408" yMax="612">
      <component glyphName="e" x="0" y="0" flags="0x204"/>
      <component glyphName="grave" x="118" y="0" flags="0x4"/>
    </TTGlyph>
    <TTGlyph name="eight" xMin="41" yMin="-8" xMax="468" yMax="658">
      <contour>
        <pt x="163" y="502" on="1"/>
        <pt x="163" y="484" on="0"/>
        <pt x="177" y="452" on="0"/>
        <pt x="202" y="429" on="0"/>
        <pt x="236" y="416" on="0"/>
        <pt x="255" y="416" on="1"/>
        <pt x="294" y="416" on="0"/>
        <pt x="346" y="465" on="0"/>
        <pt x="346" y="502" on="1"/>
        <pt x="346" y="521" on="0"/>
        <pt x="332" y="556" on="0"/>
        <pt x="308" y="582" on="0"/>
        <pt x="274" y="597" on="0"/>
        <pt x="255" y="597" on="1"/>
        <pt x="236" y="597" on="0"/>
        <pt x="202" y="582" on="0"/>
        <pt x="177" y="556" on="0"/>
        <pt x="163" y="521" on="0"/>
      </contour>
      <contour>
        <pt x="105" y="205" on="1"/>
        <pt x="105" y="174" on="0"/>
        <pt x="128" y="119" on="0"/>
        <pt x="168" y="77" on="0"/>
        <pt x="222" y="53" on="0"/>
        <pt x="253" y="53" on="1"/>
        <pt x="284" y="53" on="0"/>
        <pt x="340" y="77" on="0"/>
        <pt x="382" y="119" on="0"/>
        <pt x="406" y="174" on="0"/>
        <pt x="406" y="205" on="1"/>
        <pt x="406" y="235" on="0"/>
        <pt x="382" y="289" on="0"/>
        <pt x="342" y="329" on="0"/>
        <pt x="287" y="353" on="0"/>
        <pt x="256" y="354" on="1"/>
        <pt x="224" y="354" on="0"/>
        <pt x="169" y="330" on="0"/>
        <pt x="128" y="290" on="0"/>
        <pt x="105" y="236" on="0"/>
      </contour>
      <contour>
        <pt x="41" y="205" on="1"/>
        <pt x="41" y="267" on="0"/>
        <pt x="106" y="365" on="0"/>
        <pt x="158" y="390" on="1"/>
        <pt x="131" y="409" on="0"/>
        <pt x="99" y="468" on="0"/>
        <pt x="99" y="504" on="1"/>
        <pt x="99" y="536" on="0"/>
        <pt x="123" y="592" on="0"/>
        <pt x="165" y="634" on="0"/>
        <pt x="221" y="658" on="0"/>
        <pt x="253" y="658" on="1"/>
        <pt x="285" y="658" on="0"/>
        <pt x="341" y="633" on="0"/>
        <pt x="383" y="591" on="0"/>
        <pt x="408" y="535" on="0"/>
        <pt x="408" y="503" on="1"/>
        <pt x="408" y="468" on="0"/>
        <pt x="376" y="409" on="0"/>
        <pt x="349" y="390" on="1"/>
        <pt x="402" y="365" on="0"/>
        <pt x="468" y="267" on="0"/>
        <pt x="468" y="205" on="1"/>
        <pt x="468" y="161" on="0"/>
        <pt x="434" y="84" on="0"/>
        <pt x="375" y="26" on="0"/>
        <pt x="297" y="-8" on="0"/>
        <pt x="254" y="-8" on="1"/>
        <pt x="210" y="-8" on="0"/>
        <pt x="133" y="26" on="0"/>
        <pt x="75" y="84" on="0"/>
        <pt x="41" y="161" on="0"/>
      </contour>
    </TTGlyph>
    <TTGlyph name="emdash" xMin="99" yMin="175" xMax="601" yMax="236">
      <contour>
        <pt x="99" y="175" on="1"/>
        <pt x="99" y="236" on="1"/>
        <pt x="601" y="236" on="1"/>
        <pt x="601" y="175" on="1"/>
      </contour>
    </TTGlyph>
    <TTGlyph name="endash" xMin="100" yMin="175" xMax="401" yMax="236">
      <contour>
        <pt x="100" y="175" on="1"/>
        <pt x="100" y="236" on="1"/>
        <pt x="401" y="236" on="1"/>
        <pt x="401" y="175" on="1"/>
      </contour>
    </TTGlyph>
    <TTGlyph name="equal" xMin="100" yMin="123" xMax="606" yMax="378">
      <contour>
        <pt x="606" y="184" on="1"/>
        <pt x="606" y="123" on="1"/>
        <pt x="100" y="123" on="1"/>
        <pt x="100" y="184" on="1"/>
      </contour>
      <contour>
        <pt x="606" y="378" on="1"/>
        <pt x="606" y="317" on="1"/>
        <pt x="100" y="317" on="1"/>
        <pt x="100" y="378" on="1"/>
      </contour>
    </TTGlyph>
    <TTGlyph name="eth" xMin="51" yMin="-7" xMax="450" yMax="734">
      <contour>
        <pt x="115" y="188" on="1"/>
        <pt x="115" y="159" on="0"/>
        <pt x="137" y="110" on="0"/>
        <pt x="174" y="74" on="0"/>
        <pt x="224" y="54" on="0"/>
        <pt x="253" y="55" on="1"/>
        <pt x="282" y="55" on="0"/>
        <pt x="332" y="77" on="0"/>
        <pt x="368" y="114" on="0"/>
        <pt x="387" y="164" on="0"/>
        <pt x="387" y="192" on="1"/>
        <pt x="386" y="221" on="0"/>
        <pt x="365" y="270" on="0"/>
        <pt x="328" y="306" on="0"/>
        <pt x="278" y="325" on="0"/>
        <pt x="249" y="325" on="1"/>
        <pt x="219" y="324" on="0"/>
        <pt x="170" y="303" on="0"/>
        <pt x="134" y="266" on="0"/>
        <pt x="115" y="216" on="0"/>
      </contour>
      <contour>
        <pt x="135" y="536" on="1"/>
        <pt x="151" y="553" on="0"/>
        <pt x="182" y="585" on="0"/>
        <pt x="197" y="602" on="1"/>
        <pt x="175" y="627" on="0"/>
        <pt x="129" y="673" on="0"/>
        <pt x="105" y="693" on="1"/>
        <pt x="116" y="704" on="0"/>
        <pt x="138" y="724" on="0"/>
        <pt x="149" y="734" on="1"/>
        <pt x="173" y="716" on="0"/>
        <pt x="219" y="673" on="0"/>
        <pt x="241" y="650" on="1"/>
        <pt x="255" y="664" on="0"/>
        <pt x="280" y="693" on="0"/>
        <pt x="294" y="708" on="1"/>
        <pt x="305" y="698" on="0"/>
        <pt x="326" y="679" on="0"/>
        <pt x="337" y="670" on="1"/>
        <pt x="322" y="653" on="0"/>
        <pt x="292" y="622" on="0"/>
        <pt x="278" y="605" on="1"/>
        <pt x="312" y="562" on="0"/>
        <pt x="374" y="461" on="0"/>
        <pt x="421" y="353" on="0"/>
        <pt x="449" y="245" on="0"/>
        <pt x="449" y="194" on="1"/>
        <pt x="450" y="153" on="0"/>
        <pt x="421" y="82" on="0"/>
        <pt x="368" y="28" on="0"/>
        <pt x="297" y="-5" on="0"/>
        <pt x="255" y="-6" on="1"/>
        <pt x="214" y="-7" on="0"/>
        <pt x="141" y="23" on="0"/>
        <pt x="86" y="75" on="0"/>
        <pt x="53" y="145" on="0"/>
        <pt x="52" y="186" on="1"/>
        <pt x="51" y="226" on="0"/>
        <pt x="81" y="298" on="0"/>
        <pt x="134" y="352" on="0"/>
        <pt x="206" y="384" on="0"/>
        <pt x="247" y="385" on="1"/>
        <pt x="273" y="386" on="0"/>
        <pt x="322" y="368" on="0"/>
        <pt x="340" y="353" on="1"/>
        <pt x="327" y="398" on="0"/>
        <pt x="275" y="502" on="0"/>
        <pt x="233" y="556" on="1"/>
        <pt x="219" y="541" on="0"/>
        <pt x="192" y="511" on="0"/>
        <pt x="178" y="496" on="1"/>
        <pt x="167" y="507" on="0"/>
        <pt x="146" y="525" on="0"/>
      </contour>
    </TTGlyph>
    <TTGlyph name="exclam" xMin="58" yMin="11" xMax="142" yMax="750">
      <contour>
        <pt x="100" y="11" on="1"/>
        <pt x="84" y="11" on="0"/>
        <pt x="58" y="35" on="0"/>
        <pt x="58" y="54" on="1"/>
        <pt x="58" y="73" on="0"/>
        <pt x="84" y="96" on="0"/>
        <pt x="100" y="96" on="1"/>
        <pt x="116" y="96" on="0"/>
        <pt x="142" y="73" on="0"/>
        <pt x="142" y="54" on="1"/>
        <pt x="142" y="35" on="0"/>
        <pt x="116" y="11" on="0"/>
        <pt x="100" y="11" on="1"/>
      </contour>
      <contour>
        <pt x="68" y="750" on="1"/>
        <pt x="131" y="750" on="1"/>
        <pt x="131" y="166" on="1"/>
        <pt x="68" y="166" on="1"/>
      </contour>
    </TTGlyph>
    <TTGlyph name="exclamdown" xMin="58" yMin="-210" xMax="142" yMax="529">
      <component glyphName="exclam" x="0" y="540" scalex="1.0" scaley="-0.999938964844" flags="0x4"/>
    </TTGlyph>
    <TTGlyph name="f" xMin="22" yMin="0" xMax="310" yMax="751">
      <contour>
        <pt x="22" y="319" on="1"/>
        <pt x="22" y="380" on="1"/>
        <pt x="86" y="380" on="1"/>
        <pt x="86" y="517" on="1"/>
        <pt x="86" y="573" on="0"/>
        <pt x="121" y="659" on="0"/>
        <pt x="181" y="718" on="0"/>
        <pt x="263" y="749" on="0"/>
        <pt x="310" y="751" on="1"/>
        <pt x="310" y="691" on="1"/>
        <pt x="276" y="690" on="0"/>
        <pt x="217" y="665" on="0"/>
        <pt x="174" y="620" on="0"/>
        <pt x="149" y="556" on="0"/>
        <pt x="149" y="516" on="1"/>
        <pt x="149" y="380" on="1"/>
        <pt x="269" y="380" on="1"/>
        <pt x="269" y="319" on="1"/>
        <pt x="149" y="319" on="1"/>
        <pt x="149" y="0" on="1"/>
        <pt x="86" y="0" on="1"/>
        <pt x="86" y="319" on="1"/>
      </contour>
    </TTGlyph>
    <TTGlyph name="five" xMin="107" yMin="-8" xMax="468" yMax="650">
      <contour>
        <pt x="143" y="307" on="1"/>
        <pt x="143" y="650" on="1"/>
        <pt x="430" y="650" on="1"/>
        <pt x="430" y="589" on="1"/>
        <pt x="206" y="589" on="1"/>
        <pt x="206" y="407" on="1"/>
        <pt x="230" y="415" on="0"/>
        <pt x="254" y="415" on="1"/>
        <pt x="297" y="415" on="0"/>
        <pt x="375" y="382" on="0"/>
        <pt x="434" y="325" on="0"/>
        <pt x="468" y="249" on="0"/>
        <pt x="468" y="205" on="1"/>
        <pt x="468" y="161" on="0"/>
        <pt x="434" y="84" on="0"/>
        <pt x="375" y="26" on="0"/>
        <pt x="297" y="-8" on="0"/>
        <pt x="254" y="-8" on="1"/>
        <pt x="211" y="-8" on="0"/>
        <pt x="136" y="23" on="0"/>
        <pt x="107" y="51" on="1"/>
        <pt x="118" y="62" on="0"/>
        <pt x="141" y="83" on="0"/>
        <pt x="153" y="94" on="1"/>
        <pt x="192" y="53" on="0"/>
        <pt x="253" y="53" on="1"/>
        <pt x="284" y="53" on="0"/>
        <pt x="340" y="77" on="0"/>
        <pt x="382" y="119" on="0"/>
        <pt x="406" y="174" on="0"/>
        <pt x="406" y="205" on="1"/>
        <pt x="406" y="236" on="0"/>
        <pt x="382" y="290" on="0"/>
        <pt x="340" y="330" on="0"/>
        <pt x="284" y="354" on="0"/>
        <pt x="253" y="354" on="1"/>
        <pt x="218" y="354" on="0"/>
        <pt x="160" y="331" on="0"/>
      </contour>
    </TTGlyph>
    <TTGlyph name="four" xMin="37" yMin="0" xMax="500" yMax="658">
      <contour>
        <pt x="340" y="474" on="1"/>
        <pt x="295" y="416" on="0"/>
        <pt x="208" y="302" on="0"/>
        <pt x="164" y="244" on="1"/>
        <pt x="340" y="244" on="1"/>
      </contour>
      <contour>
        <pt x="37" y="183" on="1"/>
        <pt x="129" y="302" on="0"/>
        <pt x="311" y="539" on="0"/>
        <pt x="403" y="658" on="1"/>
        <pt x="403" y="244" on="1"/>
        <pt x="500" y="244" on="1"/>
        <pt x="500" y="183" on="1"/>
        <pt x="403" y="183" on="1"/>
        <pt x="403" y="0" on="1"/>
        <pt x="340" y="0" on="1"/>
        <pt x="340" y="183" on="1"/>
      </contour>
    </TTGlyph>
    <TTGlyph name="g" xMin="49" yMin="-250" xMax="446" yMax="384">
      <contour>
        <pt x="112" y="188" on="1"/>
        <pt x="112" y="159" on="0"/>
        <pt x="133" y="110" on="0"/>
        <pt x="169" y="74" on="0"/>
        <pt x="219" y="53" on="0"/>
        <pt x="248" y="53" on="1"/>
        <pt x="277" y="53" on="0"/>
        <pt x="327" y="74" on="0"/>
        <pt x="363" y="110" on="0"/>
        <pt x="384" y="159" on="0"/>
        <pt x="384" y="188" on="1"/>
        <pt x="384" y="216" on="0"/>
        <pt x="363" y="266" on="0"/>
        <pt x="327" y="302" on="0"/>
        <pt x="277" y="323" on="0"/>
        <pt x="248" y="323" on="1"/>
        <pt x="219" y="323" on="0"/>
        <pt x="169" y="302" on="0"/>
        <pt x="133" y="266" on="0"/>
        <pt x="112" y="216" on="0"/>
      </contour>
      <contour>
        <pt x="395" y="375" on="1"/>
        <pt x="446" y="375" on="1"/>
        <pt x="446" y="-17" on="1"/>
        <pt x="446" y="-47" on="1"/>
        <pt x="446" y="-92" on="0"/>
        <pt x="416" y="-166" on="0"/>
        <pt x="363" y="-220" on="0"/>
        <pt x="292" y="-250" on="0"/>
        <pt x="252" y="-250" on="1"/>
        <pt x="207" y="-249" on="0"/>
        <pt x="124" y="-215" on="0"/>
        <pt x="95" y="-190" on="1"/>
        <pt x="106" y="-177" on="0"/>
        <pt x="127" y="-153" on="0"/>
        <pt x="137" y="-140" on="1"/>
        <pt x="158" y="-160" on="0"/>
        <pt x="218" y="-186" on="0"/>
        <pt x="250" y="-186" on="1"/>
        <pt x="278" y="-186" on="0"/>
        <pt x="327" y="-164" on="0"/>
        <pt x="363" y="-125" on="0"/>
        <pt x="384" y="-72" on="0"/>
        <pt x="384" y="-40" on="1"/>
        <pt x="384" y="30" on="1"/>
        <pt x="386" y="38" on="0"/>
        <pt x="389" y="54" on="0"/>
        <pt x="391" y="62" on="1"/>
        <pt x="386" y="51" on="0"/>
        <pt x="361" y="27" on="0"/>
        <pt x="324" y="6" on="0"/>
        <pt x="276" y="-7" on="0"/>
        <pt x="248" y="-7" on="1"/>
        <pt x="206" y="-7" on="0"/>
        <pt x="133" y="24" on="0"/>
        <pt x="80" y="77" on="0"/>
        <pt x="49" y="147" on="0"/>
        <pt x="49" y="187" on="1"/>
        <pt x="49" y="227" on="0"/>
        <pt x="80" y="298" on="0"/>
        <pt x="133" y="352" on="0"/>
        <pt x="206" y="384" on="0"/>
        <pt x="248" y="384" on="1"/>
        <pt x="276" y="384" on="0"/>
        <pt x="325" y="368" on="0"/>
        <pt x="363" y="344" on="0"/>
        <pt x="388" y="318" on="0"/>
        <pt x="391" y="308" on="1"/>
        <pt x="391" y="324" on="0"/>
        <pt x="394" y="358" on="0"/>
      </contour>
    </TTGlyph>
    <TTGlyph name="germandbls" xMin="16" yMin="-9" xMax="497" yMax="657">
      <contour>
        <pt x="190" y="13" on="1"/>
        <pt x="196" y="27" on="0"/>
        <pt x="209" y="54" on="0"/>
        <pt x="216" y="68" on="1"/>
        <pt x="246" y="52" on="0"/>
        <pt x="281" y="52" on="1"/>
        <pt x="312" y="52" on="0"/>
        <pt x="368" y="76" on="0"/>
        <pt x="410" y="118" on="0"/>
        <pt x="435" y="173" on="0"/>
        <pt x="435" y="204" on="1"/>
        <pt x="435" y="235" on="0"/>
        <pt x="411" y="289" on="0"/>
        <pt x="369" y="330" on="0"/>
        <pt x="313" y="354" on="0"/>
        <pt x="282" y="354" on="1"/>
        <pt x="281" y="354" on="1"/>
        <pt x="281" y="361" on="0"/>
        <pt x="280" y="376" on="0"/>
        <pt x="280" y="384" on="1"/>
        <pt x="280" y="415" on="1"/>
        <pt x="319" y="415" on="0"/>
        <pt x="374" y="462" on="0"/>
        <pt x="374" y="501" on="1"/>
        <pt x="374" y="520" on="0"/>
        <pt x="360" y="554" on="0"/>
        <pt x="336" y="581" on="0"/>
        <pt x="302" y="596" on="0"/>
        <pt x="283" y="596" on="1"/>
        <pt x="253" y="595" on="0"/>
        <pt x="202" y="571" on="0"/>
        <pt x="164" y="526" on="0"/>
        <pt x="142" y="462" on="0"/>
        <pt x="142" y="422" on="1"/>
        <pt x="142" y="0" on="1"/>
        <pt x="80" y="0" on="1"/>
        <pt x="80" y="345" on="1"/>
        <pt x="16" y="345" on="1"/>
        <pt x="16" y="406" on="1"/>
        <pt x="80" y="406" on="1"/>
        <pt x="80" y="424" on="1"/>
        <pt x="80" y="479" on="0"/>
        <pt x="113" y="565" on="0"/>
        <pt x="169" y="625" on="0"/>
        <pt x="242" y="657" on="0"/>
        <pt x="282" y="657" on="1"/>
        <pt x="314" y="657" on="0"/>
        <pt x="370" y="632" on="0"/>
        <pt x="412" y="590" on="0"/>
        <pt x="436" y="534" on="0"/>
        <pt x="436" y="502" on="1"/>
        <pt x="436" y="467" on="0"/>
        <pt x="404" y="408" on="0"/>
        <pt x="378" y="390" on="1"/>
        <pt x="430" y="365" on="0"/>
        <pt x="497" y="266" on="0"/>
        <pt x="497" y="204" on="1"/>
        <pt x="497" y="160" on="0"/>
        <pt x="463" y="83" on="0"/>
        <pt x="404" y="25" on="0"/>
        <pt x="326" y="-9" on="0"/>
        <pt x="282" y="-9" on="1"/>
        <pt x="234" y="-9" on="0"/>
      </contour>
    </TTGlyph>
    <TTGlyph name="grave" xMin="-40" yMin="479" xMax="114" yMax="612">
      <contour>
        <pt x="24" y="612" on="1"/>
        <pt x="47" y="579" on="0"/>
        <pt x="91" y="512" on="0"/>
        <pt x="114" y="479" on="1"/>
        <pt x="68" y="479" on="1"/>
        <pt x="41" y="512" on="0"/>
        <pt x="-13" y="579" on="0"/>
        <pt x="-40" y="612" on="1"/>
      </contour>
    </TTGlyph>
    <TTGlyph name="greater" xMin="116" yMin="-14" xMax="553" yMax="490">
      <contour>
        <pt x="116" y="-14" on="1"/>
        <pt x="116" y="70" on="1"/>
        <pt x="189" y="112" on="0"/>
        <pt x="335" y="196" on="0"/>
        <pt x="408" y="238" on="1"/>
        <pt x="335" y="280" on="0"/>
        <pt x="189" y="364" on="0"/>
        <pt x="116" y="406" on="1"/>
        <pt x="116" y="490" on="1"/>
        <pt x="226" y="427" on="0"/>
        <pt x="443" y="301" on="0"/>
        <pt x="553" y="238" on="1"/>
        <pt x="443" y="175" on="0"/>
        <pt x="226" y="49" on="0"/>
      </contour>
    </TTGlyph>
    <TTGlyph name="guillemotleft" xMin="117" yMin="77" xMax="459" yMax="400">
      <contour>
        <pt x="459" y="77" on="1"/>
        <pt x="288" y="239" on="1"/>
        <pt x="331" y="280" on="0"/>
        <pt x="416" y="359" on="0"/>
        <pt x="459" y="400" on="1"/>
        <pt x="459" y="329" on="1"/>
        <pt x="436" y="306" on="0"/>
        <pt x="393" y="262" on="0"/>
        <pt x="371" y="239" on="1"/>
        <pt x="393" y="216" on="0"/>
        <pt x="436" y="171" on="0"/>
        <pt x="459" y="148" on="1"/>
      </contour>
      <contour>
        <pt x="288" y="77" on="1"/>
        <pt x="117" y="239" on="1"/>
        <pt x="160" y="280" on="0"/>
        <pt x="245" y="359" on="0"/>
        <pt x="288" y="400" on="1"/>
        <pt x="288" y="328" on="1"/>
        <pt x="265" y="306" on="0"/>
        <pt x="222" y="262" on="0"/>
        <pt x="200" y="239" on="1"/>
        <pt x="222" y="216" on="0"/>
        <pt x="265" y="171" on="0"/>
        <pt x="288" y="148" on="1"/>
      </contour>
    </TTGlyph>
    <TTGlyph name="guillemotright" xMin="117" yMin="77" xMax="459" yMax="400">
      <component glyphName="guillemotleft" x="576" y="0" scalex="-0.999938964844" scaley="1.0" flags="0x4"/>
    </TTGlyph>
    <TTGlyph name="guilsinglleft" xMin="117" yMin="77" xMax="288" yMax="400">
      <contour>
        <pt x="288" y="77" on="1"/>
        <pt x="117" y="239" on="1"/>
        <pt x="160" y="280" on="0"/>
        <pt x="245" y="359" on="0"/>
        <pt x="288" y="400" on="1"/>
        <pt x="288" y="328" on="1"/>
        <pt x="265" y="306" on="0"/>
        <pt x="222" y="262" on="0"/>
        <pt x="200" y="239" on="1"/>
        <pt x="222" y="216" on="0"/>
        <pt x="265" y="171" on="0"/>
        <pt x="288" y="148" on="1"/>
      </contour>
    </TTGlyph>
    <TTGlyph name="guilsinglright" xMin="117" yMin="77" xMax="288" yMax="400">
      <component glyphName="guilsinglleft" x="405" y="0" scalex="-0.999938964844" scaley="1.0" flags="0x4"/>
    </TTGlyph>
    <TTGlyph name="h" xMin="92" yMin="0" xMax="440" yMax="750">
      <contour>
        <pt x="92" y="750" on="1"/>
        <pt x="155" y="750" on="1"/>
        <pt x="155" y="323" on="1"/>
        <pt x="152" y="278" on="1"/>
        <pt x="173" y="326" on="0"/>
        <pt x="258" y="381" on="0"/>
        <pt x="315" y="383" on="1"/>
        <pt x="372" y="383" on="0"/>
        <pt x="438" y="321" on="0"/>
        <pt x="440" y="271" on="1"/>
        <pt x="440" y="0" on="1"/>
        <pt x="378" y="0" on="1"/>
        <pt x="378" y="247" on="1"/>
        <pt x="376" y="276" on="0"/>
        <pt x="337" y="320" on="0"/>
        <pt x="297" y="322" on="1"/>
        <pt x="269" y="322" on="0"/>
        <pt x="217" y="302" on="0"/>
        <pt x="178" y="268" on="0"/>
        <pt x="155" y="221" on="0"/>
        <pt x="155" y="193" on="1"/>
        <pt x="155" y="0" on="1"/>
        <pt x="92" y="0" on="1"/>
      </contour>
    </TTGlyph>
    <TTGlyph name="hyphen" xMin="53" yMin="158" xMax="237" yMax="219">
      <contour>
        <pt x="53" y="158" on="1"/>
        <pt x="53" y="219" on="1"/>
        <pt x="237" y="219" on="1"/>
        <pt x="237" y="158" on="1"/>
      </contour>
    </TTGlyph>
    <TTGlyph name="i" xMin="56" yMin="0" xMax="140" yMax="557">
      <contour>
        <pt x="56" y="514" on="1"/>
        <pt x="56" y="532" on="0"/>
        <pt x="82" y="557" on="0"/>
        <pt x="99" y="557" on="1"/>
        <pt x="114" y="557" on="0"/>
        <pt x="140" y="532" on="0"/>
        <pt x="140" y="514" on="1"/>
        <pt x="140" y="495" on="0"/>
        <pt x="114" y="472" on="0"/>
        <pt x="99" y="472" on="1"/>
        <pt x="82" y="472" on="0"/>
        <pt x="56" y="495" on="0"/>
      </contour>
      <contour>
        <pt x="129" y="0" on="1"/>
        <pt x="66" y="0" on="1"/>
        <pt x="66" y="375" on="1"/>
        <pt x="129" y="375" on="1"/>
      </contour>
    </TTGlyph>
    <TTGlyph name="iacute" xMin="64" yMin="0" xMax="234" yMax="612">
      <contour>
        <pt x="127" y="0" on="1"/>
        <pt x="64" y="0" on="1"/>
        <pt x="64" y="375" on="1"/>
        <pt x="127" y="375" on="1"/>
      </contour>
      <contour>
        <pt x="80" y="479" on="1"/>
        <pt x="103" y="512" on="0"/>
        <pt x="147" y="579" on="0"/>
        <pt x="170" y="612" on="1"/>
        <pt x="234" y="612" on="1"/>
        <pt x="207" y="579" on="0"/>
        <pt x="153" y="512" on="0"/>
        <pt x="126" y="479" on="1"/>
      </contour>
    </TTGlyph>
    <TTGlyph name="icircumflex" xMin="-4" yMin="0" xMax="236" yMax="660">
      <contour>
        <pt x="147" y="0" on="1"/>
        <pt x="85" y="0" on="1"/>
        <pt x="85" y="375" on="1"/>
        <pt x="147" y="375" on="1"/>
      </contour>
      <contour>
        <pt x="116" y="660" on="1"/>
        <pt x="146" y="615" on="0"/>
        <pt x="206" y="524" on="0"/>
        <pt x="236" y="479" on="1"/>
        <pt x="190" y="479" on="1"/>
        <pt x="171" y="503" on="0"/>
        <pt x="134" y="551" on="0"/>
        <pt x="116" y="576" on="1"/>
        <pt x="97" y="551" on="0"/>
        <pt x="61" y="503" on="0"/>
        <pt x="42" y="479" on="1"/>
        <pt x="-4" y="479" on="1"/>
        <pt x="26" y="524" on="0"/>
        <pt x="86" y="615" on="0"/>
      </contour>
    </TTGlyph>
    <TTGlyph name="idieresis" xMin="16" yMin="0" xMax="266" yMax="557">
      <contour>
        <pt x="173" y="0" on="1"/>
        <pt x="111" y="0" on="1"/>
        <pt x="111" y="375" on="1"/>
        <pt x="173" y="375" on="1"/>
      </contour>
      <contour>
        <pt x="182" y="514" on="1"/>
        <pt x="182" y="532" on="0"/>
        <pt x="207" y="557" on="0"/>
        <pt x="224" y="557" on="1"/>
        <pt x="240" y="557" on="0"/>
        <pt x="266" y="532" on="0"/>
        <pt x="266" y="514" on="1"/>
        <pt x="266" y="495" on="0"/>
        <pt x="240" y="472" on="0"/>
        <pt x="224" y="472" on="1"/>
        <pt x="207" y="472" on="0"/>
        <pt x="182" y="495" on="0"/>
      </contour>
      <contour>
        <pt x="16" y="514" on="1"/>
        <pt x="16" y="532" on="0"/>
        <pt x="42" y="557" on="0"/>
        <pt x="58" y="557" on="1"/>
        <pt x="74" y="557" on="0"/>
        <pt x="100" y="532" on="0"/>
        <pt x="100" y="514" on="1"/>
        <pt x="100" y="495" on="0"/>
        <pt x="74" y="472" on="0"/>
        <pt x="58" y="472" on="1"/>
        <pt x="42" y="472" on="0"/>
        <pt x="16" y="495" on="0"/>
      </contour>
    </TTGlyph>
    <TTGlyph name="igrave" xMin="-41" yMin="0" xMax="129" yMax="612">
      <contour>
        <pt x="129" y="0" on="1"/>
        <pt x="66" y="0" on="1"/>
        <pt x="66" y="375" on="1"/>
        <pt x="129" y="375" on="1"/>
      </contour>
      <contour>
        <pt x="23" y="612" on="1"/>
        <pt x="46" y="579" on="0"/>
        <pt x="90" y="512" on="0"/>
        <pt x="113" y="479" on="1"/>
        <pt x="67" y="479" on="1"/>
        <pt x="40" y="512" on="0"/>
        <pt x="-14" y="579" on="0"/>
        <pt x="-41" y="612" on="1"/>
      </contour>
    </TTGlyph>
    <TTGlyph name="j" xMin="32" yMin="-181" xMax="161" yMax="557">
      <contour>
        <pt x="77" y="514" on="1"/>
        <pt x="77" y="532" on="0"/>
        <pt x="103" y="557" on="0"/>
        <pt x="119" y="557" on="1"/>
        <pt x="135" y="557" on="0"/>
        <pt x="161" y="532" on="0"/>
        <pt x="161" y="514" on="1"/>
        <pt x="161" y="495" on="0"/>
        <pt x="135" y="472" on="0"/>
        <pt x="119" y="472" on="1"/>
        <pt x="103" y="472" on="0"/>
        <pt x="77" y="495" on="0"/>
      </contour>
      <contour>
        <pt x="75" y="-181" on="1"/>
        <pt x="64" y="-169" on="0"/>
        <pt x="43" y="-146" on="0"/>
        <pt x="32" y="-135" on="1"/>
        <pt x="57" y="-112" on="0"/>
        <pt x="86" y="-46" on="0"/>
        <pt x="86" y="-1" on="1"/>
        <pt x="86" y="376" on="1"/>
        <pt x="102" y="376" on="0"/>
        <pt x="132" y="375" on="0"/>
        <pt x="148" y="375" on="1"/>
        <pt x="148" y="-2" on="1"/>
        <pt x="148" y="-62" on="0"/>
        <pt x="109" y="-152" on="0"/>
      </contour>
    </TTGlyph>
    <TTGlyph name="k" xMin="68" yMin="0" xMax="391" yMax="750">
      <contour>
        <pt x="327" y="384" on="1"/>
        <pt x="364" y="347" on="1"/>
        <pt x="329" y="314" on="0"/>
        <pt x="266" y="253" on="0"/>
        <pt x="231" y="220" on="1"/>
        <pt x="271" y="165" on="0"/>
        <pt x="351" y="55" on="0"/>
        <pt x="391" y="0" on="1"/>
        <pt x="319" y="0" on="1"/>
        <pt x="286" y="45" on="0"/>
        <pt x="219" y="134" on="0"/>
        <pt x="186" y="179" on="1"/>
        <pt x="172" y="166" on="0"/>
        <pt x="144" y="140" on="0"/>
        <pt x="130" y="126" on="1"/>
        <pt x="130" y="0" on="1"/>
        <pt x="68" y="0" on="1"/>
        <pt x="68" y="750" on="1"/>
        <pt x="130" y="750" on="1"/>
        <pt x="130" y="200" on="1"/>
        <pt x="181" y="248" on="0"/>
        <pt x="276" y="336" on="0"/>
      </contour>
    </TTGlyph>
    <TTGlyph name="l" xMin="66" yMin="0" xMax="129" yMax="750">
      <contour>
        <pt x="129" y="0" on="1"/>
        <pt x="66" y="0" on="1"/>
        <pt x="66" y="750" on="1"/>
        <pt x="129" y="750" on="1"/>
      </contour>
    </TTGlyph>
    <TTGlyph name="less" xMin="116" yMin="-14" xMax="553" yMax="490">
      <contour>
        <pt x="553" y="70" on="1"/>
        <pt x="553" y="-14" on="1"/>
        <pt x="443" y="49" on="0"/>
        <pt x="226" y="175" on="0"/>
        <pt x="116" y="238" on="1"/>
        <pt x="226" y="301" on="0"/>
        <pt x="443" y="427" on="0"/>
        <pt x="553" y="490" on="1"/>
        <pt x="553" y="406" on="1"/>
        <pt x="480" y="364" on="0"/>
        <pt x="334" y="280" on="0"/>
        <pt x="261" y="238" on="1"/>
        <pt x="334" y="196" on="0"/>
        <pt x="480" y="112" on="0"/>
      </contour>
    </TTGlyph>
    <TTGlyph name="logicalnot" xMin="100" yMin="148" xMax="460" yMax="246">
      <contour>
        <pt x="397" y="148" on="1"/>
        <pt x="397" y="200" on="1"/>
        <pt x="100" y="200" on="1"/>
        <pt x="100" y="246" on="1"/>
        <pt x="460" y="246" on="1"/>
        <pt x="460" y="148" on="1"/>
      </contour>
    </TTGlyph>
    <TTGlyph name="m" xMin="92" yMin="0" xMax="726" yMax="383">
      <contour>
        <pt x="92" y="375" on="1"/>
        <pt x="148" y="375" on="1"/>
        <pt x="148" y="353" on="1"/>
        <pt x="149" y="333" on="0"/>
        <pt x="151" y="298" on="0"/>
        <pt x="152" y="278" on="1"/>
        <pt x="172" y="326" on="0"/>
        <pt x="258" y="382" on="0"/>
        <pt x="315" y="383" on="1"/>
        <pt x="369" y="383" on="0"/>
        <pt x="434" y="328" on="0"/>
        <pt x="439" y="283" on="1"/>
        <pt x="461" y="329" on="0"/>
        <pt x="546" y="382" on="0"/>
        <pt x="601" y="383" on="1"/>
        <pt x="658" y="383" on="0"/>
        <pt x="724" y="321" on="0"/>
        <pt x="726" y="271" on="1"/>
        <pt x="726" y="0" on="1"/>
        <pt x="664" y="0" on="1"/>
        <pt x="664" y="247" on="1"/>
        <pt x="662" y="276" on="0"/>
        <pt x="623" y="320" on="0"/>
        <pt x="583" y="322" on="1"/>
        <pt x="555" y="322" on="0"/>
        <pt x="504" y="303" on="0"/>
        <pt x="465" y="269" on="0"/>
        <pt x="441" y="222" on="0"/>
        <pt x="440" y="195" on="1"/>
        <pt x="440" y="0" on="1"/>
        <pt x="378" y="0" on="1"/>
        <pt x="378" y="247" on="1"/>
        <pt x="376" y="276" on="0"/>
        <pt x="337" y="320" on="0"/>
        <pt x="297" y="322" on="1"/>
        <pt x="269" y="322" on="0"/>
        <pt x="217" y="302" on="0"/>
        <pt x="178" y="268" on="0"/>
        <pt x="155" y="221" on="0"/>
        <pt x="155" y="193" on="1"/>
        <pt x="155" y="0" on="1"/>
        <pt x="92" y="0" on="1"/>
      </contour>
    </TTGlyph>
    <TTGlyph name="macron" xMin="85" yMin="482" xMax="315" yMax="523">
      <contour>
        <pt x="85" y="482" on="1"/>
        <pt x="85" y="523" on="1"/>
        <pt x="315" y="523" on="1"/>
        <pt x="315" y="482" on="1"/>
      </contour>
    </TTGlyph>
    <TTGlyph name="mu" xMin="92" yMin="-201" xMax="440" yMax="375">
      <contour>
        <pt x="440" y="-6" on="1"/>
        <pt x="378" y="-6" on="1"/>
        <pt x="378" y="52" on="1"/>
        <pt x="381" y="97" on="1"/>
        <pt x="360" y="49" on="0"/>
        <pt x="274" y="-7" on="0"/>
        <pt x="218" y="-8" on="1"/>
        <pt x="177" y="-8" on="0"/>
        <pt x="155" y="13" on="1"/>
        <pt x="155" y="-201" on="1"/>
        <pt x="92" y="-201" on="1"/>
        <pt x="92" y="375" on="1"/>
        <pt x="155" y="375" on="1"/>
        <pt x="155" y="128" on="1"/>
        <pt x="157" y="98" on="0"/>
        <pt x="196" y="55" on="0"/>
        <pt x="236" y="53" on="1"/>
        <pt x="264" y="53" on="0"/>
        <pt x="316" y="72" on="0"/>
        <pt x="355" y="107" on="0"/>
        <pt x="378" y="154" on="0"/>
        <pt x="378" y="182" on="1"/>
        <pt x="378" y="375" on="1"/>
        <pt x="440" y="375" on="1"/>
      </contour>
    </TTGlyph>
    <TTGlyph name="multiply" xMin="116" yMin="0" xMax="415" yMax="299">
      <contour>
        <pt x="370" y="0" on="1"/>
        <pt x="344" y="26" on="0"/>
        <pt x="290" y="79" on="0"/>
        <pt x="264" y="105" on="1"/>
        <pt x="238" y="79" on="0"/>
        <pt x="186" y="27" on="0"/>
        <pt x="160" y="1" on="1"/>
        <pt x="149" y="12" on="0"/>
        <pt x="127" y="33" on="0"/>
        <pt x="116" y="44" on="1"/>
        <pt x="221" y="149" on="1"/>
        <pt x="116" y="255" on="1"/>
        <pt x="160" y="299" on="1"/>
        <pt x="265" y="193" on="1"/>
        <pt x="292" y="220" on="0"/>
        <pt x="345" y="272" on="0"/>
        <pt x="371" y="299" on="1"/>
        <pt x="382" y="288" on="0"/>
        <pt x="403" y="266" on="0"/>
        <pt x="414" y="255" on="1"/>
        <pt x="309" y="150" on="1"/>
        <pt x="415" y="44" on="1"/>
      </contour>
    </TTGlyph>
    <TTGlyph name="n" xMin="92" yMin="0" xMax="440" yMax="383">
      <contour>
        <pt x="92" y="375" on="1"/>
        <pt x="148" y="375" on="1"/>
        <pt x="148" y="353" on="1"/>
        <pt x="149" y="333" on="0"/>
        <pt x="151" y="298" on="0"/>
        <pt x="152" y="278" on="1"/>
        <pt x="172" y="326" on="0"/>
        <pt x="260" y="383" on="0"/>
        <pt x="315" y="383" on="1"/>
        <pt x="372" y="383" on="0"/>
        <pt x="438" y="321" on="0"/>
        <pt x="440" y="271" on="1"/>
        <pt x="440" y="0" on="1"/>
        <pt x="378" y="0" on="1"/>
        <pt x="378" y="247" on="1"/>
        <pt x="376" y="276" on="0"/>
        <pt x="337" y="320" on="0"/>
        <pt x="297" y="322" on="1"/>
        <pt x="269" y="322" on="0"/>
        <pt x="217" y="302" on="0"/>
        <pt x="178" y="268" on="0"/>
        <pt x="155" y="221" on="0"/>
        <pt x="155" y="193" on="1"/>
        <pt x="155" y="0" on="1"/>
        <pt x="92" y="0" on="1"/>
      </contour>
    </TTGlyph>
    <TTGlyph name="nine" xMin="35" yMin="-9" xMax="462" yMax="635">
      <contour>
        <pt x="398" y="423" on="1"/>
        <pt x="398" y="454" on="0"/>
        <pt x="375" y="509" on="0"/>
        <pt x="334" y="550" on="0"/>
        <pt x="280" y="574" on="0"/>
        <pt x="249" y="574" on="1"/>
        <pt x="218" y="574" on="0"/>
        <pt x="163" y="550" on="0"/>
        <pt x="121" y="509" on="0"/>
        <pt x="97" y="454" on="0"/>
        <pt x="97" y="423" on="1"/>
        <pt x="97" y="392" on="0"/>
        <pt x="121" y="337" on="0"/>
        <pt x="163" y="297" on="0"/>
        <pt x="218" y="273" on="0"/>
        <pt x="249" y="273" on="1"/>
        <pt x="280" y="273" on="0"/>
        <pt x="334" y="297" on="0"/>
        <pt x="375" y="337" on="0"/>
        <pt x="398" y="392" on="0"/>
      </contour>
      <contour>
        <pt x="462" y="423" on="1"/>
        <pt x="462" y="353" on="0"/>
        <pt x="399" y="230" on="0"/>
        <pt x="302" y="123" on="0"/>
        <pt x="185" y="30" on="0"/>
        <pt x="131" y="-9" on="1"/>
        <pt x="121" y="3" on="0"/>
        <pt x="101" y="28" on="0"/>
        <pt x="92" y="40" on="1"/>
        <pt x="177" y="97" on="0"/>
        <pt x="284" y="197" on="0"/>
        <pt x="313" y="237" on="1"/>
        <pt x="288" y="212" on="0"/>
        <pt x="249" y="212" on="1"/>
        <pt x="205" y="212" on="0"/>
        <pt x="127" y="245" on="0"/>
        <pt x="69" y="302" on="0"/>
        <pt x="35" y="379" on="0"/>
        <pt x="35" y="423" on="1"/>
        <pt x="35" y="466" on="0"/>
        <pt x="69" y="544" on="0"/>
        <pt x="127" y="601" on="0"/>
        <pt x="205" y="635" on="0"/>
        <pt x="249" y="635" on="1"/>
        <pt x="293" y="635" on="0"/>
        <pt x="370" y="601" on="0"/>
        <pt x="428" y="544" on="0"/>
        <pt x="462" y="466" on="0"/>
      </contour>
    </TTGlyph>
    <TTGlyph name="ntilde" xMin="92" yMin="0" xMax="440" yMax="541">
      <component glyphName="n" x="0" y="0" flags="0x4"/>
      <component glyphName="asciitilde" x="6" y="-8" flags="0x4"/>
    </TTGlyph>
    <TTGlyph name="numbersign" xMin="26" yMin="0" xMax="514" yMax="643">
      <contour>
        <pt x="211" y="382" on="1"/>
        <pt x="207" y="351" on="0"/>
        <pt x="200" y="291" on="0"/>
        <pt x="196" y="260" on="1"/>
        <pt x="317" y="260" on="1"/>
        <pt x="321" y="291" on="0"/>
        <pt x="328" y="351" on="0"/>
        <pt x="332" y="382" on="1"/>
      </contour>
      <contour>
        <pt x="286" y="0" on="1"/>
        <pt x="292" y="51" on="0"/>
        <pt x="304" y="148" on="0"/>
        <pt x="310" y="199" on="1"/>
        <pt x="189" y="199" on="1"/>
        <pt x="183" y="148" on="0"/>
        <pt x="171" y="51" on="0"/>
        <pt x="165" y="0" on="1"/>
        <pt x="102" y="0" on="1"/>
        <pt x="108" y="51" on="0"/>
        <pt x="120" y="148" on="0"/>
        <pt x="126" y="199" on="1"/>
        <pt x="26" y="199" on="1"/>
        <pt x="28" y="214" on="0"/>
        <pt x="31" y="245" on="0"/>
        <pt x="33" y="260" on="1"/>
        <pt x="133" y="260" on="1"/>
        <pt x="137" y="291" on="0"/>
        <pt x="144" y="351" on="0"/>
        <pt x="148" y="382" on="1"/>
        <pt x="49" y="382" on="1"/>
        <pt x="51" y="397" on="0"/>
        <pt x="53" y="427" on="0"/>
        <pt x="55" y="443" on="1"/>
        <pt x="155" y="443" on="1"/>
        <pt x="161" y="494" on="0"/>
        <pt x="173" y="592" on="0"/>
        <pt x="179" y="643" on="1"/>
        <pt x="242" y="643" on="1"/>
        <pt x="236" y="592" on="0"/>
        <pt x="224" y="494" on="0"/>
        <pt x="218" y="443" on="1"/>
        <pt x="339" y="443" on="1"/>
        <pt x="345" y="494" on="0"/>
        <pt x="357" y="592" on="0"/>
        <pt x="363" y="643" on="1"/>
        <pt x="426" y="643" on="1"/>
        <pt x="420" y="592" on="0"/>
        <pt x="408" y="494" on="0"/>
        <pt x="402" y="443" on="1"/>
        <pt x="514" y="443" on="1"/>
        <pt x="512" y="427" on="0"/>
        <pt x="510" y="397" on="0"/>
        <pt x="508" y="382" on="1"/>
        <pt x="395" y="382" on="1"/>
        <pt x="391" y="351" on="0"/>
        <pt x="384" y="291" on="0"/>
        <pt x="380" y="260" on="1"/>
        <pt x="492" y="260" on="1"/>
        <pt x="490" y="245" on="0"/>
        <pt x="487" y="214" on="0"/>
        <pt x="485" y="199" on="1"/>
        <pt x="373" y="199" on="1"/>
        <pt x="367" y="148" on="0"/>
        <pt x="355" y="51" on="0"/>
        <pt x="349" y="0" on="1"/>
      </contour>
    </TTGlyph>
    <TTGlyph name="o" xMin="36" yMin="-8" xMax="434" yMax="384">
      <contour>
        <pt x="36" y="188" on="1"/>
        <pt x="36" y="228" on="0"/>
        <pt x="67" y="300" on="0"/>
        <pt x="121" y="353" on="0"/>
        <pt x="193" y="384" on="0"/>
        <pt x="234" y="384" on="1"/>
        <pt x="276" y="384" on="0"/>
        <pt x="349" y="353" on="0"/>
        <pt x="403" y="300" on="0"/>
        <pt x="434" y="228" on="0"/>
        <pt x="434" y="188" on="1"/>
        <pt x="434" y="147" on="0"/>
        <pt x="403" y="76" on="0"/>
        <pt x="349" y="23" on="0"/>
        <pt x="276" y="-8" on="0"/>
        <pt x="234" y="-8" on="1"/>
        <pt x="193" y="-8" on="0"/>
        <pt x="121" y="23" on="0"/>
        <pt x="67" y="76" on="0"/>
        <pt x="36" y="147" on="0"/>
      </contour>
      <contour>
        <pt x="98" y="187" on="1"/>
        <pt x="98" y="159" on="0"/>
        <pt x="119" y="110" on="0"/>
        <pt x="156" y="74" on="0"/>
        <pt x="205" y="53" on="0"/>
        <pt x="233" y="53" on="1"/>
        <pt x="261" y="53" on="0"/>
        <pt x="310" y="74" on="0"/>
        <pt x="347" y="110" on="0"/>
        <pt x="368" y="159" on="0"/>
        <pt x="368" y="187" on="1"/>
        <pt x="368" y="215" on="0"/>
        <pt x="347" y="265" on="0"/>
        <pt x="310" y="302" on="0"/>
        <pt x="261" y="323" on="0"/>
        <pt x="233" y="323" on="1"/>
        <pt x="205" y="323" on="0"/>
        <pt x="156" y="302" on="0"/>
        <pt x="119" y="265" on="0"/>
        <pt x="98" y="215" on="0"/>
      </contour>
    </TTGlyph>
    <TTGlyph name="oacute" xMin="36" yMin="-8" xMax="434" yMax="612">
      <component glyphName="o" x="0" y="0" flags="0x4"/>
      <component glyphName="acute" x="131" y="0" flags="0x4"/>
    </TTGlyph>
    <TTGlyph name="ocircumflex" xMin="36" yMin="-8" xMax="434" yMax="660">
      <component glyphName="o" x="0" y="0" flags="0x4"/>
      <component glyphName="asciicircum" x="0" y="0" flags="0x4"/>
    </TTGlyph>
    <TTGlyph name="odieresis" xMin="36" yMin="-8" xMax="434" yMax="557">
      <component glyphName="o" x="0" y="0" flags="0x4"/>
      <component glyphName="dieresis" x="51" y="0" flags="0x4"/>
    </TTGlyph>
    <TTGlyph name="ograve" xMin="36" yMin="-8" xMax="434" yMax="612">
      <component glyphName="o" x="0" y="0" flags="0x4"/>
      <component glyphName="grave" x="125" y="0" flags="0x4"/>
    </TTGlyph>
    <TTGlyph name="one" xMin="34" yMin="0" xMax="178" yMax="650">
      <contour>
        <pt x="34" y="589" on="1"/>
        <pt x="34" y="650" on="1"/>
        <pt x="178" y="650" on="1"/>
        <pt x="178" y="0" on="1"/>
        <pt x="115" y="0" on="1"/>
        <pt x="115" y="589" on="1"/>
      </contour>
    </TTGlyph>
    <TTGlyph name="onehalf" xMin="121" yMin="-19" xMax="864" yMax="735">
      <component glyphName="one" x="97" y="234" scalex="0.709899902344" scaley="0.709716796875" flags="0x4"/>
      <component glyphName="two" x="523" y="0" scalex="0.707885742188" scaley="0.708801269531" flags="0x4"/>
      <component glyphName="slash" x="251" y="0" scalex="1.0" scaley="0.999572753906" flags="0x4"/>
    </TTGlyph>
    <TTGlyph name="onequarter" xMin="126" yMin="-19" xMax="845" yMax="735">
      <component glyphName="slash" x="251" y="0" scalex="1.0" scaley="0.999572753906" flags="0x4"/>
      <component glyphName="four" x="474" y="0" scalex="0.742980957031" scaley="0.744689941406" flags="0x4"/>
      <component glyphName="one" x="102" y="234" scalex="0.709533691406" scaley="0.709594726562" flags="0x4"/>
    </TTGlyph>
    <TTGlyph name="onesuperior" xMin="61" yMin="401" xMax="127" yMax="700">
      <component glyphName="one" x="46" y="401" scalex="0.459594726562" scaley="0.460021972656" flags="0x4"/>
    </TTGlyph>
    <TTGlyph name="ordfeminine" xMin="93" yMin="300" xMax="379" yMax="582">
      <component glyphName="a" x="58" y="306" scalex="0.721374511719" scaley="0.721252441406" flags="0x4"/>
    </TTGlyph>
    <TTGlyph name="ordmasculine" xMin="90" yMin="300" xMax="378" yMax="582">
      <component glyphName="o" x="65" y="306" scale="0.721252441406" flags="0x4"/>
    </TTGlyph>
    <TTGlyph name="oslash" xMin="36" yMin="-21" xMax="433" yMax="396">
      <contour>
        <pt x="98" y="188" on="1"/>
        <pt x="98" y="164" on="0"/>
        <pt x="113" y="122" on="0"/>
        <pt x="126" y="105" on="1"/>
        <pt x="170" y="156" on="0"/>
        <pt x="254" y="256" on="0"/>
        <pt x="298" y="307" on="1"/>
        <pt x="268" y="323" on="0"/>
        <pt x="234" y="323" on="1"/>
        <pt x="205" y="323" on="0"/>
        <pt x="155" y="302" on="0"/>
        <pt x="119" y="266" on="0"/>
        <pt x="98" y="216" on="0"/>
      </contour>
      <contour>
        <pt x="234" y="53" on="1"/>
        <pt x="263" y="53" on="0"/>
        <pt x="313" y="74" on="0"/>
        <pt x="349" y="110" on="0"/>
        <pt x="370" y="159" on="0"/>
        <pt x="370" y="188" on="1"/>
        <pt x="370" y="215" on="0"/>
        <pt x="351" y="262" on="0"/>
        <pt x="334" y="279" on="1"/>
        <pt x="290" y="228" on="0"/>
        <pt x="204" y="126" on="0"/>
        <pt x="160" y="74" on="1"/>
        <pt x="176" y="64" on="0"/>
        <pt x="213" y="53" on="0"/>
      </contour>
      <contour>
        <pt x="36" y="188" on="1"/>
        <pt x="36" y="228" on="0"/>
        <pt x="67" y="300" on="0"/>
        <pt x="121" y="353" on="0"/>
        <pt x="193" y="384" on="0"/>
        <pt x="234" y="384" on="1"/>
        <pt x="292" y="384" on="0"/>
        <pt x="339" y="354" on="1"/>
        <pt x="347" y="365" on="0"/>
        <pt x="365" y="385" on="0"/>
        <pt x="374" y="396" on="1"/>
        <pt x="382" y="388" on="0"/>
        <pt x="400" y="373" on="0"/>
        <pt x="408" y="365" on="1"/>
        <pt x="375" y="326" on="1"/>
        <pt x="402" y="300" on="0"/>
        <pt x="433" y="229" on="0"/>
        <pt x="433" y="188" on="1"/>
        <pt x="433" y="147" on="0"/>
        <pt x="402" y="76" on="0"/>
        <pt x="349" y="23" on="0"/>
        <pt x="276" y="-8" on="0"/>
        <pt x="234" y="-8" on="1"/>
        <pt x="170" y="-8" on="0"/>
        <pt x="120" y="28" on="1"/>
        <pt x="109" y="16" on="0"/>
        <pt x="90" y="-9" on="0"/>
        <pt x="79" y="-21" on="1"/>
        <pt x="71" y="-13" on="0"/>
        <pt x="52" y="0" on="0"/>
        <pt x="44" y="8" on="1"/>
        <pt x="55" y="21" on="0"/>
        <pt x="75" y="45" on="0"/>
        <pt x="86" y="57" on="1"/>
        <pt x="62" y="83" on="0"/>
        <pt x="36" y="150" on="0"/>
      </contour>
    </TTGlyph>
    <TTGlyph name="otilde" xMin="36" yMin="-8" xMax="434" yMax="549">
      <component glyphName="o" x="0" y="0" flags="0x4"/>
      <component glyphName="asciitilde" x="-40" y="0" flags="0x4"/>
    </TTGlyph>
    <TTGlyph name="p" xMin="67" yMin="-250" xMax="464" yMax="383">
      <contour>
        <pt x="401" y="188" on="1"/>
        <pt x="401" y="216" on="0"/>
        <pt x="381" y="265" on="0"/>
        <pt x="345" y="301" on="0"/>
        <pt x="295" y="322" on="0"/>
        <pt x="265" y="322" on="1"/>
        <pt x="236" y="322" on="0"/>
        <pt x="186" y="301" on="0"/>
        <pt x="150" y="265" on="0"/>
        <pt x="129" y="216" on="0"/>
        <pt x="129" y="188" on="1"/>
        <pt x="129" y="159" on="0"/>
        <pt x="150" y="110" on="0"/>
        <pt x="186" y="73" on="0"/>
        <pt x="236" y="52" on="0"/>
        <pt x="265" y="52" on="1"/>
        <pt x="295" y="52" on="0"/>
        <pt x="345" y="73" on="0"/>
        <pt x="381" y="110" on="0"/>
        <pt x="401" y="159" on="0"/>
      </contour>
      <contour>
        <pt x="464" y="188" on="1"/>
        <pt x="464" y="147" on="0"/>
        <pt x="433" y="76" on="0"/>
        <pt x="380" y="22" on="0"/>
        <pt x="307" y="-9" on="0"/>
        <pt x="265" y="-9" on="1"/>
        <pt x="235" y="-9" on="0"/>
        <pt x="185" y="7" on="0"/>
        <pt x="148" y="29" on="0"/>
        <pt x="125" y="53" on="0"/>
        <pt x="122" y="63" on="1"/>
        <pt x="124" y="55" on="0"/>
        <pt x="128" y="40" on="0"/>
        <pt x="130" y="32" on="1"/>
        <pt x="130" y="-250" on="1"/>
        <pt x="67" y="-250" on="1"/>
        <pt x="67" y="375" on="1"/>
        <pt x="119" y="375" on="1"/>
        <pt x="119" y="358" on="0"/>
        <pt x="121" y="324" on="0"/>
        <pt x="122" y="307" on="1"/>
        <pt x="125" y="317" on="0"/>
        <pt x="150" y="343" on="0"/>
        <pt x="188" y="367" on="0"/>
        <pt x="237" y="383" on="0"/>
        <pt x="265" y="383" on="1"/>
        <pt x="307" y="383" on="0"/>
        <pt x="380" y="352" on="0"/>
        <pt x="433" y="299" on="0"/>
        <pt x="464" y="228" on="0"/>
      </contour>
    </TTGlyph>
    <TTGlyph name="paragraph" xMin="38" yMin="0" xMax="426" yMax="750">
      <contour>
        <pt x="263" y="0" on="1"/>
        <pt x="201" y="0" on="1"/>
        <pt x="201" y="423" on="1"/>
        <pt x="167" y="423" on="0"/>
        <pt x="107" y="448" on="0"/>
        <pt x="63" y="492" on="0"/>
        <pt x="38" y="552" on="0"/>
        <pt x="38" y="586" on="1"/>
        <pt x="38" y="620" on="0"/>
        <pt x="63" y="680" on="0"/>
        <pt x="107" y="724" on="0"/>
        <pt x="167" y="750" on="0"/>
        <pt x="201" y="750" on="1"/>
        <pt x="426" y="750" on="1"/>
        <pt x="426" y="0" on="1"/>
        <pt x="364" y="0" on="1"/>
        <pt x="364" y="689" on="1"/>
        <pt x="263" y="689" on="1"/>
      </contour>
    </TTGlyph>
    <TTGlyph name="parenleft" xMin="125" yMin="-164" xMax="342" yMax="746">
      <contour>
        <pt x="125" y="291" on="1"/>
        <pt x="125" y="366" on="0"/>
        <pt x="153" y="502" on="0"/>
        <pt x="199" y="618" on="0"/>
        <pt x="258" y="713" on="0"/>
        <pt x="290" y="746" on="1"/>
        <pt x="303" y="740" on="0"/>
        <pt x="328" y="729" on="0"/>
        <pt x="342" y="723" on="1"/>
        <pt x="313" y="690" on="0"/>
        <pt x="258" y="600" on="0"/>
        <pt x="214" y="490" on="0"/>
        <pt x="188" y="362" on="0"/>
        <pt x="188" y="291" on="1"/>
        <pt x="188" y="220" on="0"/>
        <pt x="214" y="92" on="0"/>
        <pt x="258" y="-18" on="0"/>
        <pt x="313" y="-108" on="0"/>
        <pt x="342" y="-141" on="1"/>
        <pt x="328" y="-147" on="0"/>
        <pt x="303" y="-158" on="0"/>
        <pt x="290" y="-164" on="1"/>
        <pt x="258" y="-131" on="0"/>
        <pt x="199" y="-36" on="0"/>
        <pt x="153" y="80" on="0"/>
        <pt x="125" y="216" on="0"/>
      </contour>
    </TTGlyph>
    <TTGlyph name="parenright" xMin="85" yMin="-166" xMax="302" yMax="744">
      <contour>
        <pt x="302" y="289" on="1"/>
        <pt x="302" y="214" on="0"/>
        <pt x="274" y="78" on="0"/>
        <pt x="228" y="-38" on="0"/>
        <pt x="168" y="-133" on="0"/>
        <pt x="137" y="-166" on="1"/>
        <pt x="124" y="-161" on="0"/>
        <pt x="98" y="-150" on="0"/>
        <pt x="85" y="-144" on="1"/>
        <pt x="114" y="-111" on="0"/>
        <pt x="169" y="-21" on="0"/>
        <pt x="213" y="89" on="0"/>
        <pt x="239" y="217" on="0"/>
        <pt x="239" y="288" on="1"/>
        <pt x="239" y="359" on="0"/>
        <pt x="213" y="487" on="0"/>
        <pt x="169" y="597" on="0"/>
        <pt x="114" y="687" on="0"/>
        <pt x="85" y="720" on="1"/>
        <pt x="98" y="726" on="0"/>
        <pt x="124" y="738" on="0"/>
        <pt x="137" y="744" on="1"/>
        <pt x="168" y="711" on="0"/>
        <pt x="228" y="616" on="0"/>
        <pt x="274" y="500" on="0"/>
        <pt x="302" y="364" on="0"/>
      </contour>
    </TTGlyph>
    <TTGlyph name="percent" xMin="95" yMin="-10" xMax="645" yMax="510">
      <contour>
        <pt x="462" y="111" on="1"/>
        <pt x="462" y="85" on="0"/>
        <pt x="496" y="51" on="0"/>
        <pt x="522" y="51" on="1"/>
        <pt x="548" y="51" on="0"/>
        <pt x="582" y="85" on="0"/>
        <pt x="582" y="111" on="1"/>
        <pt x="582" y="137" on="0"/>
        <pt x="548" y="171" on="0"/>
        <pt x="522" y="171" on="1"/>
        <pt x="496" y="171" on="0"/>
        <pt x="462" y="137" on="0"/>
      </contour>
      <contour>
        <pt x="522" y="-10" on="1"/>
        <pt x="497" y="-10" on="0"/>
        <pt x="452" y="9" on="0"/>
        <pt x="419" y="42" on="0"/>
        <pt x="399" y="86" on="0"/>
        <pt x="399" y="112" on="1"/>
        <pt x="399" y="137" on="0"/>
        <pt x="419" y="181" on="0"/>
        <pt x="452" y="213" on="0"/>
        <pt x="497" y="232" on="0"/>
        <pt x="522" y="232" on="1"/>
        <pt x="547" y="232" on="0"/>
        <pt x="591" y="213" on="0"/>
        <pt x="625" y="181" on="0"/>
        <pt x="645" y="137" on="0"/>
        <pt x="645" y="112" on="1"/>
        <pt x="645" y="86" on="0"/>
        <pt x="625" y="42" on="0"/>
        <pt x="591" y="9" on="0"/>
        <pt x="547" y="-10" on="0"/>
      </contour>
      <contour>
        <pt x="158" y="389" on="1"/>
        <pt x="158" y="363" on="0"/>
        <pt x="192" y="328" on="0"/>
        <pt x="218" y="328" on="1"/>
        <pt x="244" y="328" on="0"/>
        <pt x="278" y="363" on="0"/>
        <pt x="278" y="389" on="1"/>
        <pt x="278" y="414" on="0"/>
        <pt x="244" y="449" on="0"/>
        <pt x="218" y="449" on="1"/>
        <pt x="192" y="449" on="0"/>
        <pt x="158" y="414" on="0"/>
      </contour>
      <contour>
        <pt x="218" y="267" on="1"/>
        <pt x="193" y="267" on="0"/>
        <pt x="148" y="286" on="0"/>
        <pt x="115" y="319" on="0"/>
        <pt x="95" y="363" on="0"/>
        <pt x="95" y="389" on="1"/>
        <pt x="95" y="414" on="0"/>
        <pt x="115" y="458" on="0"/>
        <pt x="148" y="491" on="0"/>
        <pt x="193" y="510" on="0"/>
        <pt x="218" y="510" on="1"/>
        <pt x="243" y="510" on="0"/>
        <pt x="287" y="491" on="0"/>
        <pt x="321" y="458" on="0"/>
        <pt x="341" y="414" on="0"/>
        <pt x="341" y="389" on="1"/>
        <pt x="341" y="363" on="0"/>
        <pt x="321" y="319" on="0"/>
        <pt x="287" y="286" on="0"/>
        <pt x="243" y="267" on="0"/>
      </contour>
      <contour>
        <pt x="184" y="0" on="1"/>
        <pt x="259" y="126" on="0"/>
        <pt x="407" y="374" on="0"/>
        <pt x="482" y="500" on="1"/>
        <pt x="551" y="500" on="1"/>
        <pt x="476" y="374" on="0"/>
        <pt x="328" y="126" on="0"/>
        <pt x="253" y="0" on="1"/>
      </contour>
    </TTGlyph>
    <TTGlyph name="period" xMin="43" yMin="0" xMax="127" yMax="85">
      <contour>
        <pt x="43" y="42" on="1"/>
        <pt x="43" y="61" on="0"/>
        <pt x="69" y="85" on="0"/>
        <pt x="85" y="85" on="1"/>
        <pt x="101" y="85" on="0"/>
        <pt x="127" y="61" on="0"/>
        <pt x="127" y="42" on="1"/>
        <pt x="127" y="23" on="0"/>
        <pt x="101" y="0" on="0"/>
        <pt x="85" y="0" on="1"/>
        <pt x="69" y="0" on="0"/>
        <pt x="43" y="23" on="0"/>
      </contour>
    </TTGlyph>
    <TTGlyph name="periodcentered" xMin="43" yMin="239" xMax="127" yMax="324">
      <component glyphName="period" x="0" y="239" flags="0x4"/>
    </TTGlyph>
    <TTGlyph name="plus" xMin="86" yMin="51" xMax="446" yMax="411">
      <contour>
        <pt x="234" y="51" on="1"/>
        <pt x="234" y="200" on="1"/>
        <pt x="86" y="200" on="1"/>
        <pt x="86" y="261" on="1"/>
        <pt x="234" y="261" on="1"/>
        <pt x="234" y="411" on="1"/>
        <pt x="297" y="411" on="1"/>
        <pt x="297" y="261" on="1"/>
        <pt x="446" y="261" on="1"/>
        <pt x="446" y="200" on="1"/>
        <pt x="297" y="200" on="1"/>
        <pt x="297" y="51" on="1"/>
      </contour>
    </TTGlyph>
    <TTGlyph name="plusminus" xMin="86" yMin="111" xMax="446" yMax="571">
      <contour>
        <pt x="234" y="211" on="1"/>
        <pt x="234" y="360" on="1"/>
        <pt x="86" y="360" on="1"/>
        <pt x="86" y="421" on="1"/>
        <pt x="234" y="421" on="1"/>
        <pt x="234" y="571" on="1"/>
        <pt x="297" y="571" on="1"/>
        <pt x="297" y="421" on="1"/>
        <pt x="446" y="421" on="1"/>
        <pt x="446" y="360" on="1"/>
        <pt x="297" y="360" on="1"/>
        <pt x="297" y="211" on="1"/>
      </contour>
      <contour>
        <pt x="446" y="111" on="1"/>
        <pt x="86" y="111" on="1"/>
        <pt x="86" y="172" on="1"/>
        <pt x="446" y="172" on="1"/>
      </contour>
    </TTGlyph>
    <TTGlyph name="q" xMin="50" yMin="-250" xMax="448" yMax="383">
      <contour>
        <pt x="113" y="188" on="1"/>
        <pt x="113" y="159" on="0"/>
        <pt x="134" y="110" on="0"/>
        <pt x="170" y="73" on="0"/>
        <pt x="220" y="52" on="0"/>
        <pt x="249" y="52" on="1"/>
        <pt x="278" y="52" on="0"/>
        <pt x="328" y="73" on="0"/>
        <pt x="364" y="110" on="0"/>
        <pt x="385" y="159" on="0"/>
        <pt x="385" y="188" on="1"/>
        <pt x="385" y="216" on="0"/>
        <pt x="364" y="265" on="0"/>
        <pt x="328" y="301" on="0"/>
        <pt x="278" y="322" on="0"/>
        <pt x="249" y="322" on="1"/>
        <pt x="220" y="322" on="0"/>
        <pt x="170" y="301" on="0"/>
        <pt x="134" y="265" on="0"/>
        <pt x="113" y="216" on="0"/>
      </contour>
      <contour>
        <pt x="50" y="188" on="1"/>
        <pt x="50" y="228" on="0"/>
        <pt x="81" y="299" on="0"/>
        <pt x="135" y="352" on="0"/>
        <pt x="207" y="383" on="0"/>
        <pt x="249" y="383" on="1"/>
        <pt x="277" y="383" on="0"/>
        <pt x="326" y="367" on="0"/>
        <pt x="364" y="343" on="0"/>
        <pt x="389" y="317" on="0"/>
        <pt x="393" y="307" on="1"/>
        <pt x="393" y="324" on="0"/>
        <pt x="395" y="358" on="0"/>
        <pt x="395" y="375" on="1"/>
        <pt x="448" y="375" on="1"/>
        <pt x="448" y="-250" on="1"/>
        <pt x="385" y="-250" on="1"/>
        <pt x="385" y="32" on="1"/>
        <pt x="387" y="40" on="0"/>
        <pt x="390" y="55" on="0"/>
        <pt x="392" y="63" on="1"/>
        <pt x="389" y="53" on="0"/>
        <pt x="366" y="29" on="0"/>
        <pt x="329" y="7" on="0"/>
        <pt x="279" y="-9" on="0"/>
        <pt x="249" y="-9" on="1"/>
        <pt x="207" y="-9" on="0"/>
        <pt x="135" y="22" on="0"/>
        <pt x="81" y="76" on="0"/>
        <pt x="50" y="147" on="0"/>
      </contour>
    </TTGlyph>
    <TTGlyph name="question" xMin="38" yMin="8" xMax="429" yMax="732">
      <contour>
        <pt x="93" y="565" on="1"/>
        <pt x="79" y="570" on="0"/>
        <pt x="52" y="580" on="0"/>
        <pt x="38" y="585" on="1"/>
        <pt x="46" y="609" on="0"/>
        <pt x="75" y="661" on="0"/>
        <pt x="121" y="704" on="0"/>
        <pt x="188" y="732" on="0"/>
        <pt x="233" y="732" on="1"/>
        <pt x="274" y="732" on="0"/>
        <pt x="346" y="701" on="0"/>
        <pt x="399" y="648" on="0"/>
        <pt x="429" y="577" on="0"/>
        <pt x="429" y="537" on="1"/>
        <pt x="429" y="482" on="0"/>
        <pt x="376" y="399" on="0"/>
        <pt x="331" y="366" on="1"/>
        <pt x="316" y="354" on="0"/>
        <pt x="283" y="334" on="0"/>
        <pt x="256" y="308" on="0"/>
        <pt x="239" y="270" on="0"/>
        <pt x="239" y="242" on="1"/>
        <pt x="239" y="164" on="1"/>
        <pt x="176" y="164" on="1"/>
        <pt x="176" y="261" on="1"/>
        <pt x="176" y="292" on="0"/>
        <pt x="197" y="332" on="0"/>
        <pt x="232" y="362" on="0"/>
        <pt x="276" y="389" on="0"/>
        <pt x="299" y="409" on="1"/>
        <pt x="334" y="436" on="0"/>
        <pt x="366" y="500" on="0"/>
        <pt x="366" y="537" on="1"/>
        <pt x="366" y="566" on="0"/>
        <pt x="346" y="615" on="0"/>
        <pt x="311" y="651" on="0"/>
        <pt x="262" y="671" on="0"/>
        <pt x="233" y="671" on="1"/>
        <pt x="176" y="671" on="0"/>
        <pt x="109" y="616" on="0"/>
      </contour>
      <contour>
        <pt x="207" y="8" on="1"/>
        <pt x="191" y="8" on="0"/>
        <pt x="165" y="31" on="0"/>
        <pt x="165" y="50" on="1"/>
        <pt x="165" y="68" on="0"/>
        <pt x="191" y="93" on="0"/>
        <pt x="207" y="93" on="1"/>
        <pt x="223" y="93" on="0"/>
        <pt x="249" y="68" on="0"/>
        <pt x="249" y="50" on="1"/>
        <pt x="249" y="31" on="0"/>
        <pt x="223" y="8" on="0"/>
      </contour>
    </TTGlyph>
    <TTGlyph name="questiondown" xMin="33" yMin="-193" xMax="424" yMax="531">
      <component glyphName="question" x="462" y="539" scale="-0.999938964844" flags="0x4"/>
    </TTGlyph>
    <TTGlyph name="quotedbl" xMin="63" yMin="472" xMax="259" yMax="720">
      <contour>
        <pt x="196" y="472" on="1"/>
        <pt x="196" y="720" on="1"/>
        <pt x="259" y="720" on="1"/>
        <pt x="258" y="657" on="0"/>
        <pt x="256" y="535" on="0"/>
        <pt x="255" y="472" on="1"/>
      </contour>
      <contour>
        <pt x="63" y="472" on="1"/>
        <pt x="63" y="720" on="1"/>
        <pt x="126" y="720" on="1"/>
        <pt x="125" y="657" on="0"/>
        <pt x="123" y="535" on="0"/>
        <pt x="122" y="472" on="1"/>
      </contour>
    </TTGlyph>
    <TTGlyph name="quotedblbase" xMin="19" yMin="-51" xMax="206" yMax="92">
      <contour>
        <pt x="50" y="-51" on="1"/>
        <pt x="42" y="-46" on="0"/>
        <pt x="27" y="-34" on="0"/>
        <pt x="19" y="-29" on="1"/>
        <pt x="40" y="-9" on="0"/>
        <pt x="59" y="50" on="0"/>
        <pt x="52" y="85" on="1"/>
        <pt x="63" y="87" on="0"/>
        <pt x="84" y="90" on="0"/>
        <pt x="94" y="92" on="1"/>
        <pt x="102" y="51" on="0"/>
        <pt x="78" y="-24" on="0"/>
      </contour>
      <contour>
        <pt x="154" y="-51" on="1"/>
        <pt x="146" y="-46" on="0"/>
        <pt x="131" y="-34" on="0"/>
        <pt x="123" y="-29" on="1"/>
        <pt x="144" y="-9" on="0"/>
        <pt x="163" y="50" on="0"/>
        <pt x="156" y="85" on="1"/>
        <pt x="167" y="87" on="0"/>
        <pt x="188" y="90" on="0"/>
        <pt x="198" y="92" on="1"/>
        <pt x="206" y="51" on="0"/>
        <pt x="182" y="-24" on="0"/>
      </contour>
    </TTGlyph>
    <TTGlyph name="quotedblleft" xMin="23" yMin="568" xMax="210" yMax="711">
      <contour>
        <pt x="210" y="590" on="1"/>
        <pt x="202" y="585" on="0"/>
        <pt x="188" y="573" on="0"/>
        <pt x="180" y="568" on="1"/>
        <pt x="151" y="595" on="0"/>
        <pt x="127" y="670" on="0"/>
        <pt x="135" y="711" on="1"/>
        <pt x="146" y="709" on="0"/>
        <pt x="166" y="706" on="0"/>
        <pt x="177" y="704" on="1"/>
        <pt x="170" y="669" on="0"/>
        <pt x="189" y="610" on="0"/>
      </contour>
      <contour>
        <pt x="106" y="590" on="1"/>
        <pt x="98" y="585" on="0"/>
        <pt x="84" y="573" on="0"/>
        <pt x="76" y="568" on="1"/>
        <pt x="47" y="595" on="0"/>
        <pt x="23" y="670" on="0"/>
        <pt x="31" y="711" on="1"/>
        <pt x="42" y="709" on="0"/>
        <pt x="62" y="706" on="0"/>
        <pt x="73" y="704" on="1"/>
        <pt x="66" y="669" on="0"/>
        <pt x="85" y="610" on="0"/>
      </contour>
    </TTGlyph>
    <TTGlyph name="quotedblright" xMin="21" yMin="568" xMax="208" yMax="711">
      <contour>
        <pt x="51" y="568" on="1"/>
        <pt x="43" y="573" on="0"/>
        <pt x="29" y="585" on="0"/>
        <pt x="21" y="590" on="1"/>
        <pt x="42" y="610" on="0"/>
        <pt x="61" y="669" on="0"/>
        <pt x="54" y="704" on="1"/>
        <pt x="65" y="706" on="0"/>
        <pt x="85" y="709" on="0"/>
        <pt x="96" y="711" on="1"/>
        <pt x="104" y="670" on="0"/>
        <pt x="80" y="595" on="0"/>
      </contour>
      <contour>
        <pt x="155" y="568" on="1"/>
        <pt x="147" y="573" on="0"/>
        <pt x="133" y="585" on="0"/>
        <pt x="125" y="590" on="1"/>
        <pt x="146" y="610" on="0"/>
        <pt x="165" y="669" on="0"/>
        <pt x="158" y="704" on="1"/>
        <pt x="169" y="706" on="0"/>
        <pt x="189" y="709" on="0"/>
        <pt x="200" y="711" on="1"/>
        <pt x="208" y="670" on="0"/>
        <pt x="184" y="595" on="0"/>
      </contour>
    </TTGlyph>
    <TTGlyph name="quoteleft" xMin="26" yMin="568" xMax="109" yMax="711">
      <contour>
        <pt x="109" y="590" on="1"/>
        <pt x="101" y="585" on="0"/>
        <pt x="86" y="573" on="0"/>
        <pt x="78" y="568" on="1"/>
        <pt x="50" y="595" on="0"/>
        <pt x="26" y="670" on="0"/>
        <pt x="34" y="711" on="1"/>
        <pt x="44" y="709" on="0"/>
        <pt x="65" y="706" on="0"/>
        <pt x="76" y="704" on="1"/>
        <pt x="69" y="669" on="0"/>
        <pt x="88" y="610" on="0"/>
      </contour>
    </TTGlyph>
    <TTGlyph name="quoteright" xMin="42" yMin="568" xMax="125" yMax="711">
      <contour>
        <pt x="73" y="568" on="1"/>
        <pt x="65" y="573" on="0"/>
        <pt x="50" y="585" on="0"/>
        <pt x="42" y="590" on="1"/>
        <pt x="63" y="610" on="0"/>
        <pt x="82" y="669" on="0"/>
        <pt x="75" y="704" on="1"/>
        <pt x="86" y="706" on="0"/>
        <pt x="107" y="709" on="0"/>
        <pt x="117" y="711" on="1"/>
        <pt x="125" y="670" on="0"/>
        <pt x="101" y="595" on="0"/>
      </contour>
    </TTGlyph>
    <TTGlyph name="quotesinglbase" xMin="19" yMin="-51" xMax="102" yMax="92">
      <contour>
        <pt x="50" y="-51" on="1"/>
        <pt x="42" y="-46" on="0"/>
        <pt x="27" y="-34" on="0"/>
        <pt x="19" y="-29" on="1"/>
        <pt x="40" y="-9" on="0"/>
        <pt x="59" y="50" on="0"/>
        <pt x="52" y="85" on="1"/>
        <pt x="63" y="87" on="0"/>
        <pt x="84" y="90" on="0"/>
        <pt x="94" y="92" on="1"/>
        <pt x="102" y="51" on="0"/>
        <pt x="78" y="-24" on="0"/>
      </contour>
    </TTGlyph>
    <TTGlyph name="quotesingle" xMin="49" yMin="472" xMax="114" yMax="720">
      <contour>
        <pt x="49" y="472" on="1"/>
        <pt x="49" y="720" on="1"/>
        <pt x="114" y="720" on="1"/>
        <pt x="113" y="657" on="0"/>
        <pt x="111" y="535" on="0"/>
        <pt x="110" y="472" on="1"/>
      </contour>
    </TTGlyph>
    <TTGlyph name="r" xMin="92" yMin="0" xMax="302" yMax="383">
      <contour>
        <pt x="298" y="322" on="1"/>
        <pt x="267" y="322" on="0"/>
        <pt x="214" y="302" on="0"/>
        <pt x="176" y="268" on="0"/>
        <pt x="155" y="221" on="0"/>
        <pt x="155" y="193" on="1"/>
        <pt x="155" y="0" on="1"/>
        <pt x="92" y="0" on="1"/>
        <pt x="92" y="375" on="1"/>
        <pt x="148" y="375" on="1"/>
        <pt x="148" y="353" on="1"/>
        <pt x="149" y="333" on="0"/>
        <pt x="151" y="298" on="0"/>
        <pt x="152" y="278" on="1"/>
        <pt x="164" y="303" on="0"/>
        <pt x="200" y="342" on="0"/>
        <pt x="241" y="369" on="0"/>
        <pt x="284" y="383" on="0"/>
        <pt x="302" y="383" on="1"/>
      </contour>
    </TTGlyph>
    <TTGlyph name="registered" xMin="139" yMin="113" xMax="661" yMax="632">
      <contour>
        <pt x="400" y="143" on="1"/>
        <pt x="448" y="143" on="0"/>
        <pt x="531" y="178" on="0"/>
        <pt x="593" y="239" on="0"/>
        <pt x="628" y="323" on="0"/>
        <pt x="628" y="372" on="1"/>
        <pt x="628" y="422" on="0"/>
        <pt x="593" y="506" on="0"/>
        <pt x="531" y="568" on="0"/>
        <pt x="448" y="602" on="0"/>
        <pt x="400" y="602" on="1"/>
        <pt x="352" y="602" on="0"/>
        <pt x="269" y="568" on="0"/>
        <pt x="207" y="506" on="0"/>
        <pt x="172" y="422" on="0"/>
        <pt x="172" y="372" on="1"/>
        <pt x="172" y="323" on="0"/>
        <pt x="207" y="239" on="0"/>
        <pt x="269" y="178" on="0"/>
        <pt x="352" y="143" on="0"/>
      </contour>
      <contour>
        <pt x="400" y="113" on="1"/>
        <pt x="346" y="113" on="0"/>
        <pt x="251" y="152" on="0"/>
        <pt x="180" y="222" on="0"/>
        <pt x="139" y="316" on="0"/>
        <pt x="139" y="372" on="1"/>
        <pt x="139" y="428" on="0"/>
        <pt x="180" y="524" on="0"/>
        <pt x="251" y="593" on="0"/>
        <pt x="346" y="632" on="0"/>
        <pt x="400" y="632" on="1"/>
        <pt x="454" y="632" on="0"/>
        <pt x="549" y="593" on="0"/>
        <pt x="620" y="524" on="0"/>
        <pt x="661" y="428" on="0"/>
        <pt x="661" y="372" on="1"/>
        <pt x="661" y="316" on="0"/>
        <pt x="620" y="222" on="0"/>
        <pt x="549" y="152" on="0"/>
        <pt x="454" y="113" on="0"/>
      </contour>
      <contour>
        <pt x="354" y="390" on="1"/>
        <pt x="399" y="390" on="1"/>
        <pt x="422" y="390" on="0"/>
        <pt x="452" y="402" on="0"/>
        <pt x="469" y="421" on="0"/>
        <pt x="476" y="443" on="0"/>
        <pt x="476" y="453" on="1"/>
        <pt x="476" y="477" on="0"/>
        <pt x="432" y="513" on="0"/>
        <pt x="399" y="513" on="1"/>
        <pt x="354" y="513" on="1"/>
      </contour>
      <contour>
        <pt x="324" y="210" on="1"/>
        <pt x="324" y="541" on="1"/>
        <pt x="399" y="541" on="1"/>
        <pt x="414" y="541" on="0"/>
        <pt x="452" y="531" on="0"/>
        <pt x="484" y="510" on="0"/>
        <pt x="506" y="477" on="0"/>
        <pt x="506" y="453" on="1"/>
        <pt x="506" y="418" on="0"/>
        <pt x="470" y="372" on="0"/>
        <pt x="435" y="364" on="1"/>
        <pt x="454" y="326" on="0"/>
        <pt x="490" y="249" on="0"/>
        <pt x="508" y="210" on="1"/>
        <pt x="476" y="210" on="1"/>
        <pt x="459" y="248" on="0"/>
        <pt x="422" y="324" on="0"/>
        <pt x="404" y="362" on="1"/>
        <pt x="392" y="362" on="1"/>
        <pt x="354" y="362" on="1"/>
        <pt x="354" y="210" on="1"/>
      </contour>
    </TTGlyph>
    <TTGlyph name="s" xMin="57" yMin="-8" xMax="303" yMax="382">
      <contour>
        <pt x="288" y="340" on="1"/>
        <pt x="280" y="329" on="0"/>
        <pt x="262" y="305" on="0"/>
        <pt x="253" y="294" on="1"/>
        <pt x="245" y="303" on="0"/>
        <pt x="208" y="322" on="0"/>
        <pt x="185" y="322" on="1"/>
        <pt x="162" y="322" on="0"/>
        <pt x="130" y="298" on="0"/>
        <pt x="132" y="273" on="1"/>
        <pt x="133" y="256" on="0"/>
        <pt x="160" y="236" on="0"/>
        <pt x="198" y="220" on="0"/>
        <pt x="241" y="204" on="0"/>
        <pt x="279" y="178" on="0"/>
        <pt x="303" y="138" on="0"/>
        <pt x="303" y="107" on="1"/>
        <pt x="303" y="92" on="0"/>
        <pt x="291" y="52" on="0"/>
        <pt x="263" y="16" on="0"/>
        <pt x="215" y="-8" on="0"/>
        <pt x="178" y="-8" on="1"/>
        <pt x="145" y="-8" on="0"/>
        <pt x="77" y="16" on="0"/>
        <pt x="57" y="39" on="1"/>
        <pt x="67" y="50" on="0"/>
        <pt x="85" y="73" on="0"/>
        <pt x="95" y="84" on="1"/>
        <pt x="115" y="69" on="0"/>
        <pt x="156" y="53" on="0"/>
        <pt x="180" y="53" on="1"/>
        <pt x="185" y="53" on="0"/>
        <pt x="205" y="57" on="0"/>
        <pt x="224" y="69" on="0"/>
        <pt x="240" y="89" on="0"/>
        <pt x="240" y="106" on="1"/>
        <pt x="241" y="128" on="0"/>
        <pt x="217" y="151" on="0"/>
        <pt x="179" y="166" on="0"/>
        <pt x="134" y="179" on="0"/>
        <pt x="95" y="201" on="0"/>
        <pt x="69" y="240" on="0"/>
        <pt x="69" y="274" on="1"/>
        <pt x="69" y="303" on="0"/>
        <pt x="91" y="344" on="0"/>
        <pt x="125" y="370" on="0"/>
        <pt x="164" y="382" on="0"/>
        <pt x="182" y="382" on="1"/>
        <pt x="192" y="382" on="0"/>
        <pt x="220" y="378" on="0"/>
        <pt x="250" y="368" on="0"/>
        <pt x="277" y="352" on="0"/>
      </contour>
    </TTGlyph>
    <TTGlyph name="section" xMin="124" yMin="-38" xMax="393" yMax="752">
      <contour>
        <pt x="188" y="345" on="1"/>
        <pt x="193" y="318" on="0"/>
        <pt x="234" y="285" on="0"/>
        <pt x="262" y="286" on="1"/>
        <pt x="293" y="287" on="0"/>
        <pt x="333" y="333" on="0"/>
        <pt x="332" y="363" on="1"/>
        <pt x="331" y="379" on="0"/>
        <pt x="317" y="405" on="0"/>
        <pt x="296" y="425" on="0"/>
        <pt x="269" y="435" on="0"/>
        <pt x="254" y="434" on="1"/>
        <pt x="236" y="433" on="0"/>
        <pt x="208" y="417" on="0"/>
        <pt x="190" y="392" on="0"/>
        <pt x="184" y="361" on="0"/>
      </contour>
      <contour>
        <pt x="226" y="150" on="1"/>
        <pt x="203" y="186" on="0"/>
        <pt x="175" y="234" on="0"/>
        <pt x="158" y="264" on="0"/>
        <pt x="148" y="282" on="0"/>
        <pt x="145" y="289" on="1"/>
        <pt x="132" y="311" on="0"/>
        <pt x="124" y="361" on="0"/>
        <pt x="133" y="410" on="0"/>
        <pt x="158" y="454" on="0"/>
        <pt x="179" y="469" on="1"/>
        <pt x="215" y="493" on="0"/>
        <pt x="262" y="487" on="1"/>
        <pt x="249" y="507" on="0"/>
        <pt x="227" y="547" on="0"/>
        <pt x="215" y="568" on="1"/>
        <pt x="197" y="598" on="0"/>
        <pt x="185" y="642" on="0"/>
        <pt x="189" y="674" on="0"/>
        <pt x="207" y="698" on="0"/>
        <pt x="220" y="707" on="1"/>
        <pt x="235" y="720" on="0"/>
        <pt x="276" y="741" on="0"/>
        <pt x="293" y="752" on="1"/>
        <pt x="309" y="724" on="0"/>
        <pt x="325" y="700" on="1"/>
        <pt x="314" y="694" on="0"/>
        <pt x="293" y="682" on="0"/>
        <pt x="282" y="676" on="1"/>
        <pt x="258" y="661" on="0"/>
        <pt x="257" y="620" on="0"/>
        <pt x="283" y="576" on="1"/>
        <pt x="306" y="538" on="0"/>
        <pt x="349" y="464" on="0"/>
        <pt x="372" y="426" on="1"/>
        <pt x="385" y="404" on="0"/>
        <pt x="393" y="354" on="0"/>
        <pt x="383" y="306" on="0"/>
        <pt x="356" y="264" on="0"/>
        <pt x="335" y="249" on="1"/>
        <pt x="298" y="223" on="0"/>
        <pt x="252" y="229" on="1"/>
        <pt x="265" y="209" on="0"/>
        <pt x="289" y="167" on="0"/>
        <pt x="301" y="147" on="1"/>
        <pt x="319" y="117" on="0"/>
        <pt x="332" y="72" on="0"/>
        <pt x="328" y="39" on="0"/>
        <pt x="310" y="16" on="0"/>
        <pt x="297" y="7" on="1"/>
        <pt x="281" y="-6" on="0"/>
        <pt x="242" y="-27" on="0"/>
        <pt x="224" y="-38" on="1"/>
        <pt x="216" y="-25" on="0"/>
        <pt x="201" y="1" on="0"/>
        <pt x="193" y="15" on="1"/>
        <pt x="235" y="39" on="1"/>
        <pt x="248" y="46" on="0"/>
        <pt x="260" y="64" on="0"/>
        <pt x="258" y="89" on="0"/>
        <pt x="242" y="124" on="0"/>
      </contour>
    </TTGlyph>
    <TTGlyph name="semicolon" xMin="-5" yMin="-120" xMax="155" yMax="335">
      <contour>
        <pt x="71" y="292" on="1"/>
        <pt x="71" y="311" on="0"/>
        <pt x="97" y="335" on="0"/>
        <pt x="114" y="335" on="1"/>
        <pt x="129" y="335" on="0"/>
        <pt x="155" y="311" on="0"/>
        <pt x="155" y="292" on="1"/>
        <pt x="155" y="273" on="0"/>
        <pt x="129" y="250" on="0"/>
        <pt x="114" y="250" on="1"/>
        <pt x="97" y="250" on="0"/>
        <pt x="71" y="273" on="0"/>
      </contour>
      <contour>
        <pt x="138" y="86" on="1"/>
        <pt x="116" y="34" on="0"/>
        <pt x="74" y="-68" on="0"/>
        <pt x="52" y="-120" on="1"/>
        <pt x="-5" y="-120" on="1"/>
        <pt x="15" y="-68" on="0"/>
        <pt x="52" y="34" on="0"/>
        <pt x="72" y="86" on="1"/>
      </contour>
    </TTGlyph>
    <TTGlyph name="seven" xMin="14" yMin="0" xMax="423" yMax="650">
      <contour>
        <pt x="14" y="588" on="1"/>
        <pt x="14" y="650" on="1"/>
        <pt x="423" y="650" on="1"/>
        <pt x="350" y="486" on="0"/>
        <pt x="204" y="164" on="0"/>
        <pt x="131" y="0" on="1"/>
        <pt x="59" y="0" on="1"/>
        <pt x="126" y="148" on="0"/>
        <pt x="258" y="440" on="0"/>
        <pt x="325" y="588" on="1"/>
      </contour>
    </TTGlyph>
    <TTGlyph name="six" xMin="49" yMin="-8" xMax="476" yMax="636">
      <contour>
        <pt x="113" y="204" on="1"/>
        <pt x="113" y="173" on="0"/>
        <pt x="136" y="118" on="0"/>
        <pt x="176" y="77" on="0"/>
        <pt x="230" y="53" on="0"/>
        <pt x="261" y="53" on="1"/>
        <pt x="292" y="53" on="0"/>
        <pt x="348" y="77" on="0"/>
        <pt x="390" y="118" on="0"/>
        <pt x="414" y="173" on="0"/>
        <pt x="414" y="204" on="1"/>
        <pt x="414" y="235" on="0"/>
        <pt x="390" y="290" on="0"/>
        <pt x="348" y="330" on="0"/>
        <pt x="292" y="354" on="0"/>
        <pt x="261" y="354" on="1"/>
        <pt x="230" y="354" on="0"/>
        <pt x="176" y="330" on="0"/>
        <pt x="136" y="290" on="0"/>
        <pt x="113" y="235" on="0"/>
      </contour>
      <contour>
        <pt x="49" y="196" on="1"/>
        <pt x="49" y="268" on="0"/>
        <pt x="110" y="393" on="0"/>
        <pt x="206" y="501" on="0"/>
        <pt x="324" y="595" on="0"/>
        <pt x="380" y="636" on="1"/>
        <pt x="390" y="624" on="0"/>
        <pt x="409" y="599" on="0"/>
        <pt x="419" y="587" on="1"/>
        <pt x="334" y="530" on="0"/>
        <pt x="227" y="429" on="0"/>
        <pt x="198" y="390" on="1"/>
        <pt x="210" y="401" on="0"/>
        <pt x="243" y="415" on="0"/>
        <pt x="262" y="415" on="1"/>
        <pt x="306" y="415" on="0"/>
        <pt x="384" y="382" on="0"/>
        <pt x="442" y="325" on="0"/>
        <pt x="476" y="248" on="0"/>
        <pt x="476" y="204" on="1"/>
        <pt x="476" y="160" on="0"/>
        <pt x="442" y="83" on="0"/>
        <pt x="384" y="26" on="0"/>
        <pt x="306" y="-8" on="0"/>
        <pt x="262" y="-8" on="1"/>
        <pt x="219" y="-8" on="0"/>
        <pt x="142" y="24" on="0"/>
        <pt x="85" y="79" on="0"/>
        <pt x="50" y="154" on="0"/>
      </contour>
    </TTGlyph>
    <TTGlyph name="slash" xMin="17" yMin="-19" xMax="358" yMax="736">
      <contour>
        <pt x="17" y="-19" on="1"/>
        <pt x="87" y="171" on="0"/>
        <pt x="225" y="546" on="0"/>
        <pt x="295" y="736" on="1"/>
        <pt x="358" y="736" on="1"/>
        <pt x="288" y="546" on="0"/>
        <pt x="150" y="171" on="0"/>
        <pt x="80" y="-19" on="1"/>
      </contour>
    </TTGlyph>
    <TTGlyph name="sterling" xMin="28" yMin="0" xMax="529" yMax="634">
      <contour>
        <pt x="165" y="61" on="1"/>
        <pt x="348" y="61" on="1"/>
        <pt x="360" y="61" on="1"/>
        <pt x="391" y="61" on="0"/>
        <pt x="432" y="66" on="0"/>
        <pt x="456" y="78" on="0"/>
        <pt x="466" y="98" on="0"/>
        <pt x="466" y="113" on="1"/>
        <pt x="466" y="161" on="1"/>
        <pt x="529" y="161" on="1"/>
        <pt x="529" y="85" on="1"/>
        <pt x="529" y="67" on="0"/>
        <pt x="522" y="36" on="0"/>
        <pt x="498" y="13" on="0"/>
        <pt x="451" y="0" on="0"/>
        <pt x="411" y="0" on="1"/>
        <pt x="28" y="0" on="1"/>
        <pt x="28" y="61" on="1"/>
        <pt x="72" y="61" on="1"/>
        <pt x="88" y="61" on="0"/>
        <pt x="109" y="70" on="0"/>
        <pt x="120" y="96" on="0"/>
        <pt x="124" y="141" on="0"/>
        <pt x="124" y="176" on="1"/>
        <pt x="124" y="284" on="1"/>
        <pt x="59" y="284" on="1"/>
        <pt x="59" y="345" on="1"/>
        <pt x="124" y="345" on="1"/>
        <pt x="124" y="500" on="1"/>
        <pt x="124" y="569" on="0"/>
        <pt x="232" y="634" on="0"/>
        <pt x="326" y="634" on="1"/>
        <pt x="393" y="634" on="0"/>
        <pt x="470" y="577" on="0"/>
        <pt x="490" y="537" on="1"/>
        <pt x="479" y="530" on="0"/>
        <pt x="455" y="517" on="0"/>
        <pt x="443" y="510" on="1"/>
        <pt x="435" y="522" on="0"/>
        <pt x="419" y="544" on="0"/>
        <pt x="393" y="562" on="0"/>
        <pt x="355" y="573" on="0"/>
        <pt x="326" y="573" on="1"/>
        <pt x="253" y="573" on="0"/>
        <pt x="187" y="533" on="0"/>
        <pt x="187" y="486" on="1"/>
        <pt x="187" y="345" on="1"/>
        <pt x="308" y="345" on="1"/>
        <pt x="308" y="284" on="1"/>
        <pt x="187" y="284" on="1"/>
        <pt x="187" y="159" on="1"/>
        <pt x="187" y="147" on="1"/>
        <pt x="187" y="118" on="0"/>
        <pt x="181" y="75" on="0"/>
      </contour>
    </TTGlyph>
    <TTGlyph name="t" xMin="31" yMin="0" xMax="285" yMax="619">
      <contour>
        <pt x="116" y="619" on="1"/>
        <pt x="178" y="619" on="1"/>
        <pt x="178" y="379" on="1"/>
        <pt x="285" y="379" on="1"/>
        <pt x="285" y="318" on="1"/>
        <pt x="178" y="318" on="1"/>
        <pt x="178" y="0" on="1"/>
        <pt x="116" y="0" on="1"/>
        <pt x="116" y="318" on="1"/>
        <pt x="31" y="318" on="1"/>
        <pt x="31" y="379" on="1"/>
        <pt x="116" y="379" on="1"/>
      </contour>
    </TTGlyph>
    <TTGlyph name="thorn" xMin="67" yMin="-250" xMax="464" yMax="750">
      <contour>
        <pt x="401" y="188" on="1"/>
        <pt x="401" y="216" on="0"/>
        <pt x="381" y="265" on="0"/>
        <pt x="345" y="301" on="0"/>
        <pt x="295" y="322" on="0"/>
        <pt x="265" y="322" on="1"/>
        <pt x="236" y="322" on="0"/>
        <pt x="186" y="301" on="0"/>
        <pt x="150" y="265" on="0"/>
        <pt x="129" y="216" on="0"/>
        <pt x="129" y="188" on="1"/>
        <pt x="129" y="159" on="0"/>
        <pt x="150" y="110" on="0"/>
        <pt x="186" y="73" on="0"/>
        <pt x="236" y="52" on="0"/>
        <pt x="265" y="52" on="1"/>
        <pt x="295" y="52" on="0"/>
        <pt x="345" y="73" on="0"/>
        <pt x="381" y="110" on="0"/>
        <pt x="401" y="159" on="0"/>
      </contour>
      <contour>
        <pt x="464" y="187" on="1"/>
        <pt x="464" y="147" on="0"/>
        <pt x="433" y="76" on="0"/>
        <pt x="380" y="22" on="0"/>
        <pt x="307" y="-9" on="0"/>
        <pt x="265" y="-9" on="1"/>
        <pt x="235" y="-9" on="0"/>
        <pt x="185" y="7" on="0"/>
        <pt x="148" y="29" on="0"/>
        <pt x="125" y="53" on="0"/>
        <pt x="122" y="63" on="1"/>
        <pt x="124" y="55" on="0"/>
        <pt x="128" y="40" on="0"/>
        <pt x="130" y="32" on="1"/>
        <pt x="130" y="-250" on="1"/>
        <pt x="67" y="-250" on="1"/>
        <pt x="67" y="750" on="1"/>
        <pt x="129" y="750" on="1"/>
        <pt x="129" y="348" on="1"/>
        <pt x="127" y="337" on="0"/>
        <pt x="124" y="318" on="0"/>
        <pt x="122" y="307" on="1"/>
        <pt x="125" y="317" on="0"/>
        <pt x="150" y="343" on="0"/>
        <pt x="188" y="366" on="0"/>
        <pt x="237" y="382" on="0"/>
        <pt x="265" y="382" on="1"/>
        <pt x="307" y="382" on="0"/>
        <pt x="380" y="351" on="0"/>
        <pt x="433" y="298" on="0"/>
        <pt x="464" y="227" on="0"/>
      </contour>
    </TTGlyph>
    <TTGlyph name="three" xMin="69" yMin="-8" xMax="440" yMax="650">
      <contour>
        <pt x="161" y="336" on="1"/>
        <pt x="202" y="400" on="0"/>
        <pt x="282" y="525" on="0"/>
        <pt x="322" y="588" on="1"/>
        <pt x="103" y="588" on="1"/>
        <pt x="103" y="650" on="1"/>
        <pt x="429" y="650" on="1"/>
        <pt x="389" y="589" on="0"/>
        <pt x="310" y="468" on="0"/>
        <pt x="269" y="408" on="1"/>
        <pt x="305" y="400" on="0"/>
        <pt x="368" y="364" on="0"/>
        <pt x="414" y="311" on="0"/>
        <pt x="440" y="244" on="0"/>
        <pt x="440" y="205" on="1"/>
        <pt x="440" y="161" on="0"/>
        <pt x="406" y="84" on="0"/>
        <pt x="348" y="26" on="0"/>
        <pt x="270" y="-8" on="0"/>
        <pt x="226" y="-8" on="1"/>
        <pt x="179" y="-8" on="0"/>
        <pt x="98" y="29" on="0"/>
        <pt x="69" y="61" on="1"/>
        <pt x="80" y="72" on="0"/>
        <pt x="104" y="94" on="0"/>
        <pt x="115" y="105" on="1"/>
        <pt x="135" y="82" on="0"/>
        <pt x="191" y="53" on="0"/>
        <pt x="225" y="53" on="1"/>
        <pt x="256" y="53" on="0"/>
        <pt x="312" y="77" on="0"/>
        <pt x="354" y="119" on="0"/>
        <pt x="378" y="174" on="0"/>
        <pt x="378" y="205" on="1"/>
        <pt x="378" y="236" on="0"/>
        <pt x="354" y="291" on="0"/>
        <pt x="312" y="331" on="0"/>
        <pt x="256" y="355" on="0"/>
        <pt x="225" y="355" on="1"/>
        <pt x="191" y="355" on="0"/>
      </contour>
    </TTGlyph>
    <TTGlyph name="threequarters" xMin="143" yMin="-19" xMax="1044" yMax="736">
      <component glyphName="three" x="90" y="205" scalex="0.772338867188" scaley="0.773071289062" flags="0x4"/>
      <component glyphName="slash" x="433" y="0" flags="0x4"/>
      <component glyphName="four" x="673" y="0" scalex="0.74365234375" scaley="0.744689941406" flags="0x4"/>
    </TTGlyph>
    <TTGlyph name="threesuperior" xMin="83" yMin="376" xMax="266" yMax="700">
      <component glyphName="three" x="49" y="380" scalex="0.493286132812" scaley="0.492431640625" flags="0x4"/>
    </TTGlyph>
    <TTGlyph name="two" xMin="46" yMin="0" xMax="482" yMax="658">
      <contour>
        <pt x="204" y="61" on="1"/>
        <pt x="482" y="61" on="1"/>
        <pt x="482" y="0" on="1"/>
        <pt x="53" y="0" on="1"/>
        <pt x="116" y="62" on="0"/>
        <pt x="233" y="180" on="0"/>
        <pt x="324" y="291" on="0"/>
        <pt x="379" y="395" on="0"/>
        <pt x="379" y="442" on="1"/>
        <pt x="379" y="485" on="0"/>
        <pt x="353" y="544" on="0"/>
        <pt x="313" y="581" on="0"/>
        <pt x="266" y="597" on="0"/>
        <pt x="245" y="597" on="1"/>
        <pt x="204" y="597" on="0"/>
        <pt x="151" y="568" on="0"/>
        <pt x="121" y="526" on="0"/>
        <pt x="109" y="478" on="0"/>
        <pt x="109" y="459" on="1"/>
        <pt x="109" y="394" on="0"/>
        <pt x="148" y="352" on="1"/>
        <pt x="110" y="314" on="1"/>
        <pt x="95" y="325" on="0"/>
        <pt x="71" y="359" on="0"/>
        <pt x="55" y="398" on="0"/>
        <pt x="46" y="440" on="0"/>
        <pt x="46" y="459" on="1"/>
        <pt x="46" y="499" on="0"/>
        <pt x="72" y="571" on="0"/>
        <pt x="122" y="626" on="0"/>
        <pt x="197" y="658" on="0"/>
        <pt x="245" y="658" on="1"/>
        <pt x="289" y="658" on="0"/>
        <pt x="362" y="626" on="0"/>
        <pt x="414" y="570" on="0"/>
        <pt x="442" y="496" on="0"/>
        <pt x="442" y="454" on="1"/>
        <pt x="442" y="402" on="0"/>
        <pt x="400" y="302" on="0"/>
        <pt x="333" y="204" on="0"/>
        <pt x="247" y="109" on="0"/>
      </contour>
    </TTGlyph>
    <TTGlyph name="twosuperior" xMin="99" yMin="375" xMax="315" yMax="699">
      <component glyphName="two" x="77" y="375" scalex="0.493957519531" scaley="0.493896484375" flags="0x4"/>
    </TTGlyph>
    <TTGlyph name="u" xMin="92" yMin="-8" xMax="440" yMax="375">
      <contour>
        <pt x="440" y="-6" on="1"/>
        <pt x="378" y="-6" on="1"/>
        <pt x="378" y="52" on="1"/>
        <pt x="381" y="97" on="1"/>
        <pt x="361" y="49" on="0"/>
        <pt x="272" y="-8" on="0"/>
        <pt x="218" y="-8" on="1"/>
        <pt x="161" y="-8" on="0"/>
        <pt x="94" y="54" on="0"/>
        <pt x="92" y="104" on="1"/>
        <pt x="92" y="375" on="1"/>
        <pt x="155" y="375" on="1"/>
        <pt x="155" y="128" on="1"/>
        <pt x="157" y="98" on="0"/>
        <pt x="196" y="55" on="0"/>
        <pt x="236" y="53" on="1"/>
        <pt x="264" y="53" on="0"/>
        <pt x="316" y="72" on="0"/>
        <pt x="355" y="107" on="0"/>
        <pt x="378" y="154" on="0"/>
        <pt x="378" y="182" on="1"/>
        <pt x="378" y="375" on="1"/>
        <pt x="440" y="375" on="1"/>
      </contour>
    </TTGlyph>
    <TTGlyph name="uacute" xMin="92" yMin="-8" xMax="440" yMax="612">
      <component glyphName="u" x="0" y="0" flags="0x204"/>
      <component glyphName="acute" x="131" y="0" flags="0x4"/>
    </TTGlyph>
    <TTGlyph name="ucircumflex" xMin="92" yMin="-8" xMax="440" yMax="660">
      <component glyphName="u" x="0" y="0" flags="0x204"/>
      <component glyphName="asciicircum" x="34" y="0" flags="0x4"/>
    </TTGlyph>
    <TTGlyph name="udieresis" xMin="92" yMin="-8" xMax="440" yMax="557">
      <component glyphName="u" x="0" y="0" flags="0x204"/>
      <component glyphName="dieresis" x="78" y="0" flags="0x4"/>
    </TTGlyph>
    <TTGlyph name="ugrave" xMin="92" yMin="-8" xMax="440" yMax="612">
      <component glyphName="u" x="0" y="0" flags="0x204"/>
      <component glyphName="grave" x="181" y="0" flags="0x4"/>
    </TTGlyph>
    <TTGlyph name="underscore" xMin="100" yMin="0" xMax="500" yMax="61">
      <contour>
        <pt x="500" y="0" on="1"/>
        <pt x="100" y="0" on="1"/>
        <pt x="100" y="61" on="1"/>
        <pt x="500" y="61" on="1"/>
      </contour>
    </TTGlyph>
    <TTGlyph name="v" xMin="54" yMin="-23" xMax="475" yMax="375">
      <contour>
        <pt x="265" y="-23" on="1"/>
        <pt x="211" y="77" on="0"/>
        <pt x="107" y="275" on="0"/>
        <pt x="54" y="375" on="1"/>
        <pt x="117" y="375" on="1"/>
        <pt x="154" y="305" on="0"/>
        <pt x="236" y="158" on="0"/>
        <pt x="265" y="86" on="1"/>
        <pt x="293" y="158" on="0"/>
        <pt x="375" y="305" on="0"/>
        <pt x="413" y="375" on="1"/>
        <pt x="475" y="375" on="1"/>
        <pt x="422" y="275" on="0"/>
        <pt x="318" y="77" on="0"/>
      </contour>
    </TTGlyph>
    <TTGlyph name="w" xMin="55" yMin="-23" xMax="727" yMax="375">
      <contour>
        <pt x="359" y="309" on="1"/>
        <pt x="351" y="326" on="0"/>
        <pt x="335" y="358" on="0"/>
        <pt x="327" y="375" on="1"/>
        <pt x="389" y="375" on="1"/>
        <pt x="424" y="303" on="0"/>
        <pt x="498" y="159" on="0"/>
        <pt x="527" y="86" on="1"/>
        <pt x="556" y="159" on="0"/>
        <pt x="630" y="303" on="0"/>
        <pt x="664" y="375" on="1"/>
        <pt x="727" y="375" on="1"/>
        <pt x="676" y="275" on="0"/>
        <pt x="578" y="77" on="0"/>
        <pt x="527" y="-23" on="1"/>
        <pt x="493" y="45" on="0"/>
        <pt x="425" y="179" on="0"/>
        <pt x="391" y="247" on="1"/>
        <pt x="357" y="179" on="0"/>
        <pt x="289" y="45" on="0"/>
        <pt x="255" y="-23" on="1"/>
        <pt x="204" y="77" on="0"/>
        <pt x="106" y="275" on="0"/>
        <pt x="55" y="375" on="1"/>
        <pt x="117" y="375" on="1"/>
        <pt x="152" y="303" on="0"/>
        <pt x="226" y="159" on="0"/>
        <pt x="255" y="86" on="1"/>
        <pt x="278" y="143" on="0"/>
        <pt x="333" y="254" on="0"/>
      </contour>
    </TTGlyph>
    <TTGlyph name="x" xMin="28" yMin="0" xMax="409" yMax="375">
      <contour>
        <pt x="172" y="197" on="1"/>
        <pt x="140" y="242" on="0"/>
        <pt x="74" y="330" on="0"/>
        <pt x="42" y="375" on="1"/>
        <pt x="119" y="375" on="1"/>
        <pt x="146" y="338" on="0"/>
        <pt x="200" y="265" on="0"/>
        <pt x="227" y="229" on="1"/>
        <pt x="253" y="265" on="0"/>
        <pt x="306" y="338" on="0"/>
        <pt x="332" y="375" on="1"/>
        <pt x="409" y="375" on="1"/>
        <pt x="373" y="325" on="0"/>
        <pt x="301" y="227" on="0"/>
        <pt x="266" y="177" on="1"/>
        <pt x="298" y="132" on="0"/>
        <pt x="364" y="45" on="0"/>
        <pt x="397" y="0" on="1"/>
        <pt x="318" y="0" on="1"/>
        <pt x="291" y="36" on="0"/>
        <pt x="238" y="109" on="0"/>
        <pt x="211" y="146" on="1"/>
        <pt x="185" y="109" on="0"/>
        <pt x="131" y="36" on="0"/>
        <pt x="105" y="0" on="1"/>
        <pt x="28" y="0" on="1"/>
        <pt x="64" y="49" on="0"/>
        <pt x="136" y="148" on="0"/>
      </contour>
    </TTGlyph>
    <TTGlyph name="y" xMin="32" yMin="-250" xMax="473" yMax="375">
      <contour>
        <pt x="160" y="-250" on="1"/>
        <pt x="96" y="-250" on="1"/>
        <pt x="128" y="-187" on="0"/>
        <pt x="189" y="-64" on="0"/>
        <pt x="221" y="-1" on="1"/>
        <pt x="173" y="93" on="0"/>
        <pt x="80" y="281" on="0"/>
        <pt x="32" y="375" on="1"/>
        <pt x="95" y="375" on="1"/>
        <pt x="135" y="297" on="0"/>
        <pt x="221" y="137" on="0"/>
        <pt x="253" y="56" on="1"/>
        <pt x="285" y="137" on="0"/>
        <pt x="371" y="297" on="0"/>
        <pt x="410" y="375" on="1"/>
        <pt x="473" y="375" on="1"/>
        <pt x="395" y="218" on="0"/>
        <pt x="238" y="-93" on="0"/>
      </contour>
    </TTGlyph>
    <TTGlyph name="yacute" xMin="32" yMin="-250" xMax="473" yMax="612">
      <component glyphName="y" x="0" y="0" flags="0x4"/>
      <component glyphName="acute" x="141" y="0" flags="0x4"/>
    </TTGlyph>
    <TTGlyph name="ydieresis" xMin="32" yMin="-250" xMax="473" yMax="557">
      <component glyphName="y" x="0" y="0" flags="0x4"/>
      <component glyphName="dieresis" x="71" y="0" flags="0x4"/>
    </TTGlyph>
    <TTGlyph name="yen" xMin="23" yMin="0" xMax="612" yMax="700">
      <contour>
        <pt x="483" y="161" on="1"/>
        <pt x="483" y="100" on="1"/>
        <pt x="356" y="100" on="1"/>
        <pt x="356" y="0" on="1"/>
        <pt x="280" y="0" on="1"/>
        <pt x="280" y="100" on="1"/>
        <pt x="150" y="100" on="1"/>
        <pt x="150" y="161" on="1"/>
        <pt x="280" y="161" on="1"/>
        <pt x="280" y="263" on="1"/>
        <pt x="150" y="263" on="1"/>
        <pt x="150" y="324" on="1"/>
        <pt x="247" y="324" on="1"/>
        <pt x="190" y="418" on="0"/>
        <pt x="79" y="605" on="0"/>
        <pt x="23" y="700" on="1"/>
        <pt x="99" y="700" on="1"/>
        <pt x="151" y="612" on="0"/>
        <pt x="254" y="441" on="0"/>
        <pt x="306" y="353" on="1"/>
        <pt x="309" y="346" on="0"/>
        <pt x="314" y="331" on="0"/>
        <pt x="317" y="324" on="1"/>
        <pt x="318" y="324" on="1"/>
        <pt x="321" y="331" on="0"/>
        <pt x="327" y="346" on="0"/>
        <pt x="330" y="353" on="1"/>
        <pt x="382" y="441" on="0"/>
        <pt x="484" y="612" on="0"/>
        <pt x="536" y="700" on="1"/>
        <pt x="612" y="700" on="1"/>
        <pt x="556" y="605" on="0"/>
        <pt x="445" y="418" on="0"/>
        <pt x="389" y="324" on="1"/>
        <pt x="483" y="324" on="1"/>
        <pt x="483" y="263" on="1"/>
        <pt x="356" y="263" on="1"/>
        <pt x="356" y="161" on="1"/>
      </contour>
    </TTGlyph>
    <TTGlyph name="z" xMin="42" yMin="0" xMax="405" yMax="410">
      <contour>
        <pt x="150" y="375" on="1"/>
        <pt x="384" y="375" on="1"/>
        <pt x="384" y="314" on="1"/>
        <pt x="315" y="249" on="0"/>
        <pt x="198" y="125" on="0"/>
        <pt x="129" y="61" on="1"/>
        <pt x="405" y="61" on="1"/>
        <pt x="405" y="0" on="1"/>
        <pt x="42" y="0" on="1"/>
        <pt x="42" y="61" on="1"/>
        <pt x="111" y="125" on="0"/>
        <pt x="228" y="250" on="0"/>
        <pt x="297" y="315" on="1"/>
        <pt x="127" y="315" on="1"/>
        <pt x="96" y="315" on="0"/>
        <pt x="57" y="345" on="0"/>
        <pt x="57" y="374" on="1"/>
        <pt x="57" y="410" on="1"/>
        <pt x="120" y="410" on="1"/>
        <pt x="120" y="398" on="1"/>
        <pt x="120" y="384" on="0"/>
        <pt x="133" y="375" on="0"/>
      </contour>
    </TTGlyph>
    <TTGlyph name="zero" xMin="37" yMin="-8" xMax="573" yMax="658">
      <contour>
        <pt x="37" y="327" on="1"/>
        <pt x="37" y="395" on="0"/>
        <pt x="75" y="516" on="0"/>
        <pt x="146" y="606" on="0"/>
        <pt x="245" y="658" on="0"/>
        <pt x="307" y="658" on="1"/>
        <pt x="369" y="658" on="0"/>
        <pt x="468" y="604" on="0"/>
        <pt x="537" y="512" on="0"/>
        <pt x="573" y="391" on="0"/>
        <pt x="573" y="323" on="1"/>
        <pt x="573" y="249" on="0"/>
        <pt x="527" y="127" on="0"/>
        <pt x="452" y="40" on="0"/>
        <pt x="354" y="-8" on="0"/>
        <pt x="302" y="-8" on="1"/>
        <pt x="250" y="-8" on="0"/>
        <pt x="154" y="42" on="0"/>
        <pt x="80" y="130" on="0"/>
        <pt x="37" y="253" on="0"/>
      </contour>
      <contour>
        <pt x="100" y="327" on="1"/>
        <pt x="100" y="268" on="0"/>
        <pt x="132" y="168" on="0"/>
        <pt x="188" y="95" on="0"/>
        <pt x="262" y="53" on="0"/>
        <pt x="303" y="53" on="1"/>
        <pt x="343" y="53" on="0"/>
        <pt x="418" y="93" on="0"/>
        <pt x="475" y="165" on="0"/>
        <pt x="510" y="265" on="0"/>
        <pt x="510" y="324" on="1"/>
        <pt x="510" y="371" on="0"/>
        <pt x="486" y="468" on="0"/>
        <pt x="435" y="547" on="0"/>
        <pt x="359" y="597" on="0"/>
        <pt x="307" y="597" on="1"/>
        <pt x="255" y="597" on="0"/>
        <pt x="177" y="549" on="0"/>
        <pt x="126" y="471" on="0"/>
        <pt x="100" y="374" on="0"/>
      </contour>
    </TTGlyph>
</ttFont>
